<svg xmlns="http://www.w3.org/2000/svg" xmlns:xlink="http://www.w3.org/1999/xlink" width="300" zoomAndPan="magnify" viewBox="0 0 224.87999 225" height="300" preserveAspectRatio="xMidYMid meet" version="1.0"><defs><g/><clipPath id="a52b91800a"><path d="M 80.886719 48.015625 L 140.265625 48.015625 L 140.265625 109.421875 L 80.886719 109.421875 Z M 80.886719 48.015625 " clip-rule="nonzero"/></clipPath><clipPath id="5a500194ce"><path d="M 81.019531 107.878906 C 81.3125 56.800781 80.214844 51.25 82.1875 49.203125 C 83.648438 47.816406 85.769531 48.691406 88.839844 48.617188 C 95.925781 48.328125 114.484375 49.421875 123.691406 49.277344 C 129.683594 49.128906 136.335938 47.523438 138.671875 48.398438 C 139.550781 48.765625 140.132812 49.421875 140.132812 49.933594 C 140.132812 50.371094 139.402344 51.175781 138.964844 51.324219 C 138.597656 51.394531 137.941406 51.25 137.648438 50.957031 C 137.355469 50.589844 137.210938 49.640625 137.355469 49.203125 C 137.503906 48.835938 138.089844 48.472656 138.527344 48.398438 C 138.964844 48.398438 139.914062 48.910156 139.988281 49.347656 C 140.207031 49.789062 139.839844 50.738281 139.109375 51.25 C 137.210938 52.636719 129.539062 52.054688 123.691406 52.199219 C 116.09375 52.417969 104.695312 52.492188 97.460938 52.199219 C 92.34375 51.980469 87.449219 48.398438 84.453125 51.101562 C 78.316406 56.730469 86.28125 102.691406 83.941406 107.878906 C 83.503906 108.902344 82.773438 109.339844 82.335938 109.339844 C 81.824219 109.339844 81.019531 107.878906 81.019531 107.878906 " clip-rule="nonzero"/></clipPath><clipPath id="620805727a"><path d="M 82.046875 92.171875 L 144 92.171875 L 144 105.757812 L 82.046875 105.757812 Z M 82.046875 92.171875 " clip-rule="nonzero"/></clipPath><clipPath id="049839bda9"><path d="M 83.578125 94.582031 C 108.566406 94.433594 117.992188 93.046875 125.082031 92.679688 C 130.707031 92.316406 137.941406 92.023438 140.425781 92.316406 C 141.230469 92.386719 141.59375 92.386719 142.035156 92.753906 C 142.472656 93.046875 142.691406 93.558594 142.984375 94.433594 C 143.496094 96.335938 144.371094 102.253906 143.789062 104.078125 C 143.496094 104.882812 142.910156 105.542969 142.398438 105.6875 C 142.035156 105.761719 141.375 105.394531 141.15625 105.101562 C 140.9375 104.664062 140.9375 103.714844 141.15625 103.277344 C 141.375 102.984375 142.035156 102.691406 142.398438 102.765625 C 142.910156 102.835938 143.640625 103.421875 143.789062 103.859375 C 143.859375 104.371094 143.421875 105.320312 142.984375 105.46875 C 142.546875 105.6875 141.523438 105.46875 141.011719 104.808594 C 139.988281 103.421875 142.765625 97.285156 140.425781 95.238281 C 135.382812 90.707031 105.570312 97.429688 95.339844 97.648438 C 90.007812 97.722656 85.039062 98.378906 83.210938 97.429688 C 82.480469 97.066406 82.042969 96.335938 82.117188 95.824219 C 82.1875 95.382812 83.578125 94.582031 83.578125 94.582031 " clip-rule="nonzero"/></clipPath></defs><g clip-path="url(#a52b91800a)"><g clip-path="url(#5a500194ce)"><path fill="#f3841f" d="M 78.097656 45.476562 L 143.058594 45.476562 L 143.058594 112.214844 L 78.097656 112.214844 Z M 78.097656 45.476562 " fill-opacity="1" fill-rule="nonzero"/></g></g><g clip-path="url(#620805727a)"><g clip-path="url(#049839bda9)"><path fill="#f3841f" d="M 79.191406 89.390625 L 146.753906 89.390625 L 146.753906 108.609375 L 79.191406 108.609375 Z M 79.191406 89.390625 " fill-opacity="1" fill-rule="nonzero"/></g></g><g fill="#f3841f" fill-opacity="1"><g transform="translate(29.570403, 138.903582)"><g><path d="M 5.78125 0.125 C 5.09375 0.125 4.445312 -0.00390625 3.84375 -0.265625 C 3.25 -0.523438 2.722656 -0.882812 2.265625 -1.34375 C 1.804688 -1.800781 1.445312 -2.328125 1.1875 -2.921875 C 0.925781 -3.523438 0.796875 -4.171875 0.796875 -4.859375 C 0.796875 -5.554688 0.925781 -6.203125 1.1875 -6.796875 C 1.445312 -7.398438 1.804688 -7.929688 2.265625 -8.390625 C 2.722656 -8.847656 3.25 -9.207031 3.84375 -9.46875 C 4.445312 -9.726562 5.09375 -9.859375 5.78125 -9.859375 C 6.71875 -9.859375 7.566406 -9.625 8.328125 -9.15625 C 9.097656 -8.695312 9.695312 -8.085938 10.125 -7.328125 L 9.234375 -6.828125 C 8.898438 -7.429688 8.425781 -7.910156 7.8125 -8.265625 C 7.207031 -8.628906 6.53125 -8.8125 5.78125 -8.8125 C 5.0625 -8.8125 4.398438 -8.632812 3.796875 -8.28125 C 3.203125 -7.9375 2.722656 -7.460938 2.359375 -6.859375 C 2.003906 -6.265625 1.828125 -5.597656 1.828125 -4.859375 C 1.828125 -4.128906 2.003906 -3.460938 2.359375 -2.859375 C 2.722656 -2.265625 3.203125 -1.789062 3.796875 -1.4375 C 4.398438 -1.082031 5.0625 -0.90625 5.78125 -0.90625 C 6.53125 -0.90625 7.207031 -1.085938 7.8125 -1.453125 C 8.425781 -1.828125 8.898438 -2.3125 9.234375 -2.90625 L 10.125 -2.40625 C 9.695312 -1.644531 9.097656 -1.03125 8.328125 -0.5625 C 7.566406 -0.101562 6.71875 0.125 5.78125 0.125 Z M 5.78125 0.125 "/></g></g></g><g fill="#f3841f" fill-opacity="1"><g transform="translate(40.498079, 138.903582)"><g><path d="M 4.34375 -6.609375 C 4.539062 -6.609375 4.707031 -6.59375 4.84375 -6.5625 L 4.84375 -5.546875 C 4.71875 -5.585938 4.550781 -5.609375 4.34375 -5.609375 C 3.957031 -5.609375 3.597656 -5.515625 3.265625 -5.328125 C 2.929688 -5.148438 2.664062 -4.90625 2.46875 -4.59375 C 2.28125 -4.28125 2.1875 -3.921875 2.1875 -3.515625 L 2.1875 0 L 1.1875 0 L 1.1875 -6.484375 L 2.1875 -6.484375 L 2.1875 -5.5625 C 2.4375 -5.882812 2.738281 -6.140625 3.09375 -6.328125 C 3.457031 -6.515625 3.875 -6.609375 4.34375 -6.609375 Z M 4.34375 -6.609375 "/></g></g></g><g fill="#f3841f" fill-opacity="1"><g transform="translate(45.686338, 138.903582)"><g><path d="M 7.46875 -3.3125 L 7.453125 -3.09375 L 1.734375 -3.09375 C 1.753906 -2.6875 1.875 -2.3125 2.09375 -1.96875 C 2.3125 -1.625 2.59375 -1.351562 2.9375 -1.15625 C 3.289062 -0.96875 3.675781 -0.875 4.09375 -0.875 C 4.582031 -0.875 5.023438 -1.003906 5.421875 -1.265625 C 5.816406 -1.523438 6.101562 -1.863281 6.28125 -2.28125 L 7.34375 -2.28125 C 7.207031 -1.820312 6.976562 -1.410156 6.65625 -1.046875 C 6.34375 -0.679688 5.96875 -0.394531 5.53125 -0.1875 C 5.09375 0.0195312 4.613281 0.125 4.09375 0.125 C 3.476562 0.125 2.914062 -0.0234375 2.40625 -0.328125 C 1.894531 -0.628906 1.488281 -1.035156 1.1875 -1.546875 C 0.882812 -2.054688 0.734375 -2.625 0.734375 -3.25 C 0.734375 -3.875 0.882812 -4.4375 1.1875 -4.9375 C 1.488281 -5.445312 1.894531 -5.851562 2.40625 -6.15625 C 2.914062 -6.457031 3.476562 -6.609375 4.09375 -6.609375 C 4.71875 -6.609375 5.28125 -6.460938 5.78125 -6.171875 C 6.28125 -5.878906 6.679688 -5.484375 6.984375 -4.984375 C 7.296875 -4.492188 7.457031 -3.9375 7.46875 -3.3125 Z M 4.09375 -5.609375 C 3.582031 -5.609375 3.125 -5.457031 2.71875 -5.15625 C 2.3125 -4.863281 2.023438 -4.476562 1.859375 -4 L 6.328125 -4 C 6.171875 -4.476562 5.890625 -4.863281 5.484375 -5.15625 C 5.078125 -5.457031 4.613281 -5.609375 4.09375 -5.609375 Z M 4.09375 -5.609375 "/></g></g></g><g fill="#f3841f" fill-opacity="1"><g transform="translate(54.084783, 138.903582)"><g><path d="M 8.140625 -0.84375 L 8.546875 -0.84375 L 8.546875 0 C 8.398438 0.0820312 8.238281 0.125 8.0625 0.125 C 7.675781 0.125 7.359375 0.0234375 7.109375 -0.171875 C 6.859375 -0.378906 6.675781 -0.648438 6.5625 -0.984375 C 6.257812 -0.648438 5.894531 -0.378906 5.46875 -0.171875 C 5.039062 0.0234375 4.582031 0.125 4.09375 0.125 C 3.476562 0.125 2.914062 -0.0234375 2.40625 -0.328125 C 1.894531 -0.628906 1.488281 -1.035156 1.1875 -1.546875 C 0.882812 -2.054688 0.734375 -2.625 0.734375 -3.25 C 0.734375 -3.875 0.882812 -4.4375 1.1875 -4.9375 C 1.488281 -5.445312 1.894531 -5.851562 2.40625 -6.15625 C 2.914062 -6.457031 3.476562 -6.609375 4.09375 -6.609375 C 4.5625 -6.609375 5 -6.519531 5.40625 -6.34375 C 5.8125 -6.175781 6.164062 -5.941406 6.46875 -5.640625 L 6.46875 -6.484375 L 7.46875 -6.484375 L 7.46875 -1.6875 C 7.46875 -1.382812 7.535156 -1.164062 7.671875 -1.03125 C 7.804688 -0.90625 7.960938 -0.84375 8.140625 -0.84375 Z M 4.09375 -0.875 C 4.53125 -0.875 4.925781 -0.976562 5.28125 -1.1875 C 5.632812 -1.394531 5.921875 -1.679688 6.140625 -2.046875 C 6.359375 -2.410156 6.46875 -2.8125 6.46875 -3.25 C 6.46875 -3.6875 6.359375 -4.082031 6.140625 -4.4375 C 5.921875 -4.800781 5.632812 -5.085938 5.28125 -5.296875 C 4.925781 -5.503906 4.53125 -5.609375 4.09375 -5.609375 C 3.664062 -5.609375 3.269531 -5.503906 2.90625 -5.296875 C 2.539062 -5.085938 2.253906 -4.800781 2.046875 -4.4375 C 1.835938 -4.082031 1.734375 -3.6875 1.734375 -3.25 C 1.734375 -2.8125 1.835938 -2.410156 2.046875 -2.046875 C 2.253906 -1.679688 2.539062 -1.394531 2.90625 -1.1875 C 3.269531 -0.976562 3.664062 -0.875 4.09375 -0.875 Z M 4.09375 -0.875 "/></g></g></g><g fill="#f3841f" fill-opacity="1"><g transform="translate(63.083108, 138.903582)"><g><path d="M 4.171875 -5.515625 L 2.4375 -5.515625 L 2.4375 -1.828125 C 2.4375 -1.523438 2.53125 -1.285156 2.71875 -1.109375 C 2.914062 -0.929688 3.144531 -0.84375 3.40625 -0.84375 L 4.15625 -0.84375 L 4.15625 -0.078125 C 4.0625 -0.0234375 3.929688 0.0195312 3.765625 0.0625 C 3.609375 0.101562 3.453125 0.125 3.296875 0.125 C 2.953125 0.125 2.640625 0.046875 2.359375 -0.109375 C 2.085938 -0.273438 1.863281 -0.5 1.6875 -0.78125 C 1.507812 -1.0625 1.421875 -1.367188 1.421875 -1.703125 L 1.421875 -5.515625 L 0.34375 -5.515625 L 0.34375 -6.484375 L 1.421875 -6.484375 L 1.421875 -9.3125 L 2.4375 -9.3125 L 2.4375 -6.484375 L 4.171875 -6.484375 Z M 4.171875 -5.515625 "/></g></g></g><g fill="#f3841f" fill-opacity="1"><g transform="translate(68.044386, 138.903582)"><g><path d="M 1.8125 -7.703125 C 1.625 -7.703125 1.457031 -7.769531 1.3125 -7.90625 C 1.175781 -8.039062 1.109375 -8.195312 1.109375 -8.375 C 1.109375 -8.582031 1.175781 -8.75 1.3125 -8.875 C 1.457031 -9.007812 1.625 -9.078125 1.8125 -9.078125 C 2 -9.078125 2.160156 -9.007812 2.296875 -8.875 C 2.441406 -8.75 2.515625 -8.582031 2.515625 -8.375 C 2.515625 -8.195312 2.441406 -8.039062 2.296875 -7.90625 C 2.160156 -7.769531 2 -7.703125 1.8125 -7.703125 Z M 1.3125 0 L 1.3125 -6.484375 L 2.3125 -6.484375 L 2.3125 0 Z M 1.3125 0 "/></g></g></g><g fill="#f3841f" fill-opacity="1"><g transform="translate(71.919383, 138.903582)"><g><path d="M 5.234375 -6.484375 L 6.328125 -6.484375 L 3.71875 0 L 2.734375 0 L 0.140625 -6.484375 L 1.234375 -6.484375 L 3.25 -1.171875 Z M 5.234375 -6.484375 "/></g></g></g><g fill="#f3841f" fill-opacity="1"><g transform="translate(78.647882, 138.903582)"><g><path d="M 1.8125 -7.703125 C 1.625 -7.703125 1.457031 -7.769531 1.3125 -7.90625 C 1.175781 -8.039062 1.109375 -8.195312 1.109375 -8.375 C 1.109375 -8.582031 1.175781 -8.75 1.3125 -8.875 C 1.457031 -9.007812 1.625 -9.078125 1.8125 -9.078125 C 2 -9.078125 2.160156 -9.007812 2.296875 -8.875 C 2.441406 -8.75 2.515625 -8.582031 2.515625 -8.375 C 2.515625 -8.195312 2.441406 -8.039062 2.296875 -7.90625 C 2.160156 -7.769531 2 -7.703125 1.8125 -7.703125 Z M 1.3125 0 L 1.3125 -6.484375 L 2.3125 -6.484375 L 2.3125 0 Z M 1.3125 0 "/></g></g></g><g fill="#f3841f" fill-opacity="1"><g transform="translate(82.52288, 138.903582)"><g><path d="M 4.171875 -5.515625 L 2.4375 -5.515625 L 2.4375 -1.828125 C 2.4375 -1.523438 2.53125 -1.285156 2.71875 -1.109375 C 2.914062 -0.929688 3.144531 -0.84375 3.40625 -0.84375 L 4.15625 -0.84375 L 4.15625 -0.078125 C 4.0625 -0.0234375 3.929688 0.0195312 3.765625 0.0625 C 3.609375 0.101562 3.453125 0.125 3.296875 0.125 C 2.953125 0.125 2.640625 0.046875 2.359375 -0.109375 C 2.085938 -0.273438 1.863281 -0.5 1.6875 -0.78125 C 1.507812 -1.0625 1.421875 -1.367188 1.421875 -1.703125 L 1.421875 -5.515625 L 0.34375 -5.515625 L 0.34375 -6.484375 L 1.421875 -6.484375 L 1.421875 -9.3125 L 2.4375 -9.3125 L 2.4375 -6.484375 L 4.171875 -6.484375 Z M 4.171875 -5.515625 "/></g></g></g><g fill="#f3841f" fill-opacity="1"><g transform="translate(87.484158, 138.903582)"><g><path d="M 5.34375 -6.484375 L 6.484375 -6.484375 L 3.703125 0.484375 L 2.3125 3.890625 L 1.25 3.890625 L 2.796875 0.046875 L 0.140625 -6.484375 L 1.265625 -6.484375 L 3.34375 -1.171875 Z M 5.34375 -6.484375 "/></g></g></g><g fill="#f3841f" fill-opacity="1"><g transform="translate(94.374785, 138.903582)"><g><path d="M 2.015625 -5.21875 C 1.828125 -5.21875 1.660156 -5.285156 1.515625 -5.421875 C 1.378906 -5.554688 1.3125 -5.722656 1.3125 -5.921875 C 1.3125 -6.097656 1.378906 -6.253906 1.515625 -6.390625 C 1.660156 -6.535156 1.828125 -6.609375 2.015625 -6.609375 C 2.203125 -6.609375 2.363281 -6.535156 2.5 -6.390625 C 2.644531 -6.253906 2.71875 -6.097656 2.71875 -5.921875 C 2.71875 -5.722656 2.644531 -5.554688 2.5 -5.421875 C 2.363281 -5.285156 2.203125 -5.21875 2.015625 -5.21875 Z M 2.015625 0.125 C 1.828125 0.125 1.660156 0.0546875 1.515625 -0.078125 C 1.378906 -0.210938 1.3125 -0.375 1.3125 -0.5625 C 1.3125 -0.75 1.378906 -0.910156 1.515625 -1.046875 C 1.660156 -1.191406 1.828125 -1.265625 2.015625 -1.265625 C 2.203125 -1.265625 2.363281 -1.191406 2.5 -1.046875 C 2.644531 -0.910156 2.71875 -0.75 2.71875 -0.5625 C 2.71875 -0.375 2.644531 -0.210938 2.5 -0.078125 C 2.363281 0.0546875 2.203125 0.125 2.015625 0.125 Z M 2.015625 0.125 "/></g></g></g><g fill="#f3841f" fill-opacity="1"><g transform="translate(29.570403, 156.868114)"><g><path d="M 6.5625 -9.734375 L 6.5625 -8.6875 L 3.875 -8.6875 L 3.875 0 L 2.84375 0 L 2.84375 -8.6875 L 0.140625 -8.6875 L 0.140625 -9.734375 Z M 6.5625 -9.734375 "/></g></g></g><g fill="#f3841f" fill-opacity="1"><g transform="translate(36.542091, 156.868114)"><g><path d="M 3.625 -6.609375 C 4.082031 -6.609375 4.5 -6.5 4.875 -6.28125 C 5.25 -6.0625 5.539062 -5.765625 5.75 -5.390625 C 5.96875 -5.023438 6.078125 -4.613281 6.078125 -4.15625 L 6.078125 0 L 5.09375 0 L 5.09375 -4.15625 C 5.09375 -4.5625 4.945312 -4.90625 4.65625 -5.1875 C 4.375 -5.46875 4.03125 -5.609375 3.625 -5.609375 C 3.226562 -5.609375 2.890625 -5.46875 2.609375 -5.1875 C 2.328125 -4.90625 2.1875 -4.5625 2.1875 -4.15625 L 2.1875 0 L 1.1875 0 L 1.1875 -11.9375 L 2.1875 -11.9375 L 2.1875 -6.140625 C 2.394531 -6.296875 2.617188 -6.410156 2.859375 -6.484375 C 3.097656 -6.566406 3.351562 -6.609375 3.625 -6.609375 Z M 3.625 -6.609375 "/></g></g></g><g fill="#f3841f" fill-opacity="1"><g transform="translate(43.983958, 156.868114)"><g><path d="M 1.8125 -7.703125 C 1.625 -7.703125 1.457031 -7.769531 1.3125 -7.90625 C 1.175781 -8.039062 1.109375 -8.195312 1.109375 -8.375 C 1.109375 -8.582031 1.175781 -8.75 1.3125 -8.875 C 1.457031 -9.007812 1.625 -9.078125 1.8125 -9.078125 C 2 -9.078125 2.160156 -9.007812 2.296875 -8.875 C 2.441406 -8.75 2.515625 -8.582031 2.515625 -8.375 C 2.515625 -8.195312 2.441406 -8.039062 2.296875 -7.90625 C 2.160156 -7.769531 2 -7.703125 1.8125 -7.703125 Z M 1.3125 0 L 1.3125 -6.484375 L 2.3125 -6.484375 L 2.3125 0 Z M 1.3125 0 "/></g></g></g><g fill="#f3841f" fill-opacity="1"><g transform="translate(47.858957, 156.868114)"><g><path d="M 3.765625 -6.609375 C 4.179688 -6.609375 4.570312 -6.5 4.9375 -6.28125 C 5.300781 -6.0625 5.59375 -5.765625 5.8125 -5.390625 C 6.039062 -5.015625 6.15625 -4.597656 6.15625 -4.140625 L 6.15625 0 L 5.15625 0 L 5.15625 -4.140625 C 5.15625 -4.546875 5.007812 -4.890625 4.71875 -5.171875 C 4.4375 -5.460938 4.09375 -5.609375 3.6875 -5.609375 C 3.269531 -5.609375 2.914062 -5.460938 2.625 -5.171875 C 2.332031 -4.890625 2.1875 -4.546875 2.1875 -4.140625 L 2.1875 0 L 1.1875 0 L 1.1875 -6.484375 L 2.1875 -6.484375 L 2.1875 -5.96875 C 2.40625 -6.175781 2.644531 -6.332031 2.90625 -6.4375 C 3.175781 -6.550781 3.460938 -6.609375 3.765625 -6.609375 Z M 3.765625 -6.609375 "/></g></g></g><g fill="#f3841f" fill-opacity="1"><g transform="translate(55.381894, 156.868114)"><g><path d="M 6.859375 0 L 5.484375 0 L 2.28125 -3.609375 L 2.28125 0 L 1.28125 0 L 1.28125 -11.9375 L 2.28125 -11.9375 L 2.28125 -3.640625 L 5.234375 -6.484375 L 6.578125 -6.484375 L 3.5625 -3.59375 Z M 6.859375 0 "/></g></g></g><g fill="#f3841f" fill-opacity="1"><g transform="translate(62.337372, 156.868114)"><g><path d="M 1.8125 -7.703125 C 1.625 -7.703125 1.457031 -7.769531 1.3125 -7.90625 C 1.175781 -8.039062 1.109375 -8.195312 1.109375 -8.375 C 1.109375 -8.582031 1.175781 -8.75 1.3125 -8.875 C 1.457031 -9.007812 1.625 -9.078125 1.8125 -9.078125 C 2 -9.078125 2.160156 -9.007812 2.296875 -8.875 C 2.441406 -8.75 2.515625 -8.582031 2.515625 -8.375 C 2.515625 -8.195312 2.441406 -8.039062 2.296875 -7.90625 C 2.160156 -7.769531 2 -7.703125 1.8125 -7.703125 Z M 1.3125 0 L 1.3125 -6.484375 L 2.3125 -6.484375 L 2.3125 0 Z M 1.3125 0 "/></g></g></g><g fill="#f3841f" fill-opacity="1"><g transform="translate(66.21237, 156.868114)"><g><path d="M 3.765625 -6.609375 C 4.179688 -6.609375 4.570312 -6.5 4.9375 -6.28125 C 5.300781 -6.0625 5.59375 -5.765625 5.8125 -5.390625 C 6.039062 -5.015625 6.15625 -4.597656 6.15625 -4.140625 L 6.15625 0 L 5.15625 0 L 5.15625 -4.140625 C 5.15625 -4.546875 5.007812 -4.890625 4.71875 -5.171875 C 4.4375 -5.460938 4.09375 -5.609375 3.6875 -5.609375 C 3.269531 -5.609375 2.914062 -5.460938 2.625 -5.171875 C 2.332031 -4.890625 2.1875 -4.546875 2.1875 -4.140625 L 2.1875 0 L 1.1875 0 L 1.1875 -6.484375 L 2.1875 -6.484375 L 2.1875 -5.96875 C 2.40625 -6.175781 2.644531 -6.332031 2.90625 -6.4375 C 3.175781 -6.550781 3.460938 -6.609375 3.765625 -6.609375 Z M 3.765625 -6.609375 "/></g></g></g><g fill="#f3841f" fill-opacity="1"><g transform="translate(73.735306, 156.868114)"><g><path d="M 6.453125 -6.484375 L 7.46875 -6.484375 L 7.46875 0.5625 C 7.46875 1.175781 7.316406 1.738281 7.015625 2.25 C 6.710938 2.769531 6.304688 3.179688 5.796875 3.484375 C 5.296875 3.785156 4.726562 3.9375 4.09375 3.9375 C 3.375 3.9375 2.722656 3.726562 2.140625 3.3125 C 1.566406 2.894531 1.160156 2.359375 0.921875 1.703125 L 1.84375 1.296875 C 2 1.765625 2.28125 2.15625 2.6875 2.46875 C 3.101562 2.78125 3.570312 2.9375 4.09375 2.9375 C 4.53125 2.9375 4.925781 2.828125 5.28125 2.609375 C 5.632812 2.390625 5.921875 2.101562 6.140625 1.75 C 6.359375 1.394531 6.46875 1 6.46875 0.5625 L 6.46875 -0.84375 C 6.164062 -0.539062 5.8125 -0.300781 5.40625 -0.125 C 5 0.0390625 4.5625 0.125 4.09375 0.125 C 3.476562 0.125 2.914062 -0.0234375 2.40625 -0.328125 C 1.894531 -0.628906 1.488281 -1.035156 1.1875 -1.546875 C 0.882812 -2.054688 0.734375 -2.625 0.734375 -3.25 C 0.734375 -3.875 0.882812 -4.4375 1.1875 -4.9375 C 1.488281 -5.445312 1.894531 -5.851562 2.40625 -6.15625 C 2.914062 -6.457031 3.476562 -6.609375 4.09375 -6.609375 C 4.550781 -6.609375 4.984375 -6.523438 5.390625 -6.359375 C 5.796875 -6.191406 6.148438 -5.960938 6.453125 -5.671875 Z M 4.09375 -0.875 C 4.53125 -0.875 4.925781 -0.984375 5.28125 -1.203125 C 5.632812 -1.421875 5.921875 -1.707031 6.140625 -2.0625 C 6.359375 -2.414062 6.46875 -2.8125 6.46875 -3.25 C 6.46875 -3.6875 6.359375 -4.082031 6.140625 -4.4375 C 5.921875 -4.800781 5.632812 -5.085938 5.28125 -5.296875 C 4.925781 -5.503906 4.53125 -5.609375 4.09375 -5.609375 C 3.664062 -5.609375 3.269531 -5.503906 2.90625 -5.296875 C 2.539062 -5.085938 2.253906 -4.800781 2.046875 -4.4375 C 1.835938 -4.082031 1.734375 -3.6875 1.734375 -3.25 C 1.734375 -2.8125 1.835938 -2.414062 2.046875 -2.0625 C 2.253906 -1.707031 2.539062 -1.421875 2.90625 -1.203125 C 3.269531 -0.984375 3.664062 -0.875 4.09375 -0.875 Z M 4.09375 -0.875 "/></g></g></g><g fill="#f3841f" fill-opacity="1"><g transform="translate(82.65256, 156.868114)"><g/></g></g><g fill="#f3841f" fill-opacity="1"><g transform="translate(86.819389, 156.868114)"><g><path d="M 4.09375 0.125 C 3.476562 0.125 2.914062 -0.0234375 2.40625 -0.328125 C 1.894531 -0.628906 1.488281 -1.035156 1.1875 -1.546875 C 0.882812 -2.054688 0.734375 -2.625 0.734375 -3.25 C 0.734375 -3.875 0.882812 -4.4375 1.1875 -4.9375 C 1.488281 -5.445312 1.894531 -5.851562 2.40625 -6.15625 C 2.914062 -6.457031 3.476562 -6.609375 4.09375 -6.609375 C 4.726562 -6.609375 5.296875 -6.457031 5.796875 -6.15625 C 6.304688 -5.851562 6.710938 -5.445312 7.015625 -4.9375 C 7.316406 -4.4375 7.46875 -3.875 7.46875 -3.25 C 7.46875 -2.625 7.316406 -2.054688 7.015625 -1.546875 C 6.710938 -1.035156 6.304688 -0.628906 5.796875 -0.328125 C 5.296875 -0.0234375 4.726562 0.125 4.09375 0.125 Z M 4.09375 -0.875 C 4.53125 -0.875 4.925781 -0.976562 5.28125 -1.1875 C 5.632812 -1.394531 5.921875 -1.679688 6.140625 -2.046875 C 6.359375 -2.410156 6.46875 -2.8125 6.46875 -3.25 C 6.46875 -3.6875 6.359375 -4.082031 6.140625 -4.4375 C 5.921875 -4.800781 5.632812 -5.085938 5.28125 -5.296875 C 4.925781 -5.503906 4.53125 -5.609375 4.09375 -5.609375 C 3.664062 -5.609375 3.269531 -5.503906 2.90625 -5.296875 C 2.539062 -5.085938 2.253906 -4.800781 2.046875 -4.4375 C 1.835938 -4.082031 1.734375 -3.6875 1.734375 -3.25 C 1.734375 -2.8125 1.835938 -2.410156 2.046875 -2.046875 C 2.253906 -1.679688 2.539062 -1.394531 2.90625 -1.1875 C 3.269531 -0.976562 3.664062 -0.875 4.09375 -0.875 Z M 4.09375 -0.875 "/></g></g></g><g fill="#f3841f" fill-opacity="1"><g transform="translate(95.282683, 156.868114)"><g><path d="M 3.40625 0.125 C 2.675781 0.125 2.085938 -0.09375 1.640625 -0.53125 C 1.191406 -0.976562 0.96875 -1.578125 0.96875 -2.328125 L 0.96875 -6.484375 L 1.96875 -6.484375 L 1.96875 -2.453125 C 1.96875 -1.960938 2.101562 -1.578125 2.375 -1.296875 C 2.644531 -1.015625 2.988281 -0.875 3.40625 -0.875 C 3.820312 -0.875 4.164062 -1.015625 4.4375 -1.296875 C 4.707031 -1.578125 4.84375 -1.960938 4.84375 -2.453125 L 4.84375 -6.484375 L 5.84375 -6.484375 L 5.84375 -2.328125 C 5.84375 -1.578125 5.613281 -0.976562 5.15625 -0.53125 C 4.707031 -0.09375 4.125 0.125 3.40625 0.125 Z M 3.40625 0.125 "/></g></g></g><g fill="#f3841f" fill-opacity="1"><g transform="translate(102.335439, 156.868114)"><g><path d="M 4.171875 -5.515625 L 2.4375 -5.515625 L 2.4375 -1.828125 C 2.4375 -1.523438 2.53125 -1.285156 2.71875 -1.109375 C 2.914062 -0.929688 3.144531 -0.84375 3.40625 -0.84375 L 4.15625 -0.84375 L 4.15625 -0.078125 C 4.0625 -0.0234375 3.929688 0.0195312 3.765625 0.0625 C 3.609375 0.101562 3.453125 0.125 3.296875 0.125 C 2.953125 0.125 2.640625 0.046875 2.359375 -0.109375 C 2.085938 -0.273438 1.863281 -0.5 1.6875 -0.78125 C 1.507812 -1.0625 1.421875 -1.367188 1.421875 -1.703125 L 1.421875 -5.515625 L 0.34375 -5.515625 L 0.34375 -6.484375 L 1.421875 -6.484375 L 1.421875 -9.3125 L 2.4375 -9.3125 L 2.4375 -6.484375 L 4.171875 -6.484375 Z M 4.171875 -5.515625 "/></g></g></g><g fill="#f3841f" fill-opacity="1"><g transform="translate(107.296717, 156.868114)"><g><path d="M 2.78125 0.125 C 2.269531 0.125 1.796875 -0.0078125 1.359375 -0.28125 C 0.929688 -0.5625 0.65625 -0.894531 0.53125 -1.28125 L 1.5 -1.671875 C 1.5625 -1.429688 1.710938 -1.234375 1.953125 -1.078125 C 2.203125 -0.929688 2.476562 -0.859375 2.78125 -0.859375 C 3.070312 -0.859375 3.320312 -0.9375 3.53125 -1.09375 C 3.75 -1.25 3.859375 -1.46875 3.859375 -1.75 C 3.859375 -2.007812 3.753906 -2.207031 3.546875 -2.34375 C 3.347656 -2.488281 3.050781 -2.632812 2.65625 -2.78125 C 2.082031 -3 1.632812 -3.253906 1.3125 -3.546875 C 0.988281 -3.847656 0.828125 -4.253906 0.828125 -4.765625 C 0.828125 -5.160156 0.914062 -5.492188 1.09375 -5.765625 C 1.269531 -6.035156 1.503906 -6.242188 1.796875 -6.390625 C 2.085938 -6.535156 2.390625 -6.609375 2.703125 -6.609375 C 3.117188 -6.609375 3.507812 -6.503906 3.875 -6.296875 C 4.238281 -6.085938 4.484375 -5.835938 4.609375 -5.546875 L 3.734375 -5.09375 C 3.640625 -5.257812 3.503906 -5.382812 3.328125 -5.46875 C 3.160156 -5.5625 2.96875 -5.609375 2.75 -5.609375 C 2.476562 -5.609375 2.257812 -5.539062 2.09375 -5.40625 C 1.925781 -5.28125 1.84375 -5.078125 1.84375 -4.796875 C 1.84375 -4.515625 1.941406 -4.304688 2.140625 -4.171875 C 2.347656 -4.035156 2.648438 -3.882812 3.046875 -3.71875 C 3.328125 -3.601562 3.609375 -3.46875 3.890625 -3.3125 C 4.171875 -3.15625 4.398438 -2.953125 4.578125 -2.703125 C 4.765625 -2.453125 4.859375 -2.132812 4.859375 -1.75 C 4.859375 -1.1875 4.65625 -0.734375 4.25 -0.390625 C 3.84375 -0.046875 3.351562 0.125 2.78125 0.125 Z M 2.78125 0.125 "/></g></g></g><g fill="#f3841f" fill-opacity="1"><g transform="translate(112.922729, 156.868114)"><g><path d="M 1.8125 -7.703125 C 1.625 -7.703125 1.457031 -7.769531 1.3125 -7.90625 C 1.175781 -8.039062 1.109375 -8.195312 1.109375 -8.375 C 1.109375 -8.582031 1.175781 -8.75 1.3125 -8.875 C 1.457031 -9.007812 1.625 -9.078125 1.8125 -9.078125 C 2 -9.078125 2.160156 -9.007812 2.296875 -8.875 C 2.441406 -8.75 2.515625 -8.582031 2.515625 -8.375 C 2.515625 -8.195312 2.441406 -8.039062 2.296875 -7.90625 C 2.160156 -7.769531 2 -7.703125 1.8125 -7.703125 Z M 1.3125 0 L 1.3125 -6.484375 L 2.3125 -6.484375 L 2.3125 0 Z M 1.3125 0 "/></g></g></g><g fill="#f3841f" fill-opacity="1"><g transform="translate(116.797726, 156.868114)"><g><path d="M 6.46875 -11.9375 L 7.46875 -11.9375 L 7.46875 0 L 6.46875 0 L 6.46875 -0.84375 C 6.164062 -0.539062 5.8125 -0.300781 5.40625 -0.125 C 5 0.0390625 4.5625 0.125 4.09375 0.125 C 3.476562 0.125 2.914062 -0.0234375 2.40625 -0.328125 C 1.894531 -0.628906 1.488281 -1.035156 1.1875 -1.546875 C 0.882812 -2.054688 0.734375 -2.625 0.734375 -3.25 C 0.734375 -3.875 0.882812 -4.4375 1.1875 -4.9375 C 1.488281 -5.445312 1.894531 -5.851562 2.40625 -6.15625 C 2.914062 -6.457031 3.476562 -6.609375 4.09375 -6.609375 C 4.5625 -6.609375 5 -6.519531 5.40625 -6.34375 C 5.8125 -6.175781 6.164062 -5.941406 6.46875 -5.640625 Z M 4.09375 -0.875 C 4.53125 -0.875 4.925781 -0.976562 5.28125 -1.1875 C 5.632812 -1.394531 5.921875 -1.679688 6.140625 -2.046875 C 6.359375 -2.410156 6.46875 -2.8125 6.46875 -3.25 C 6.46875 -3.6875 6.359375 -4.082031 6.140625 -4.4375 C 5.921875 -4.800781 5.632812 -5.085938 5.28125 -5.296875 C 4.925781 -5.503906 4.53125 -5.609375 4.09375 -5.609375 C 3.664062 -5.609375 3.269531 -5.503906 2.90625 -5.296875 C 2.539062 -5.085938 2.253906 -4.800781 2.046875 -4.4375 C 1.835938 -4.082031 1.734375 -3.6875 1.734375 -3.25 C 1.734375 -2.8125 1.835938 -2.410156 2.046875 -2.046875 C 2.253906 -1.679688 2.539062 -1.394531 2.90625 -1.1875 C 3.269531 -0.976562 3.664062 -0.875 4.09375 -0.875 Z M 4.09375 -0.875 "/></g></g></g><g fill="#f3841f" fill-opacity="1"><g transform="translate(125.714986, 156.868114)"><g><path d="M 7.46875 -3.3125 L 7.453125 -3.09375 L 1.734375 -3.09375 C 1.753906 -2.6875 1.875 -2.3125 2.09375 -1.96875 C 2.3125 -1.625 2.59375 -1.351562 2.9375 -1.15625 C 3.289062 -0.96875 3.675781 -0.875 4.09375 -0.875 C 4.582031 -0.875 5.023438 -1.003906 5.421875 -1.265625 C 5.816406 -1.523438 6.101562 -1.863281 6.28125 -2.28125 L 7.34375 -2.28125 C 7.207031 -1.820312 6.976562 -1.410156 6.65625 -1.046875 C 6.34375 -0.679688 5.96875 -0.394531 5.53125 -0.1875 C 5.09375 0.0195312 4.613281 0.125 4.09375 0.125 C 3.476562 0.125 2.914062 -0.0234375 2.40625 -0.328125 C 1.894531 -0.628906 1.488281 -1.035156 1.1875 -1.546875 C 0.882812 -2.054688 0.734375 -2.625 0.734375 -3.25 C 0.734375 -3.875 0.882812 -4.4375 1.1875 -4.9375 C 1.488281 -5.445312 1.894531 -5.851562 2.40625 -6.15625 C 2.914062 -6.457031 3.476562 -6.609375 4.09375 -6.609375 C 4.71875 -6.609375 5.28125 -6.460938 5.78125 -6.171875 C 6.28125 -5.878906 6.679688 -5.484375 6.984375 -4.984375 C 7.296875 -4.492188 7.457031 -3.9375 7.46875 -3.3125 Z M 4.09375 -5.609375 C 3.582031 -5.609375 3.125 -5.457031 2.71875 -5.15625 C 2.3125 -4.863281 2.023438 -4.476562 1.859375 -4 L 6.328125 -4 C 6.171875 -4.476562 5.890625 -4.863281 5.484375 -5.15625 C 5.078125 -5.457031 4.613281 -5.609375 4.09375 -5.609375 Z M 4.09375 -5.609375 "/></g></g></g><g fill="#f3841f" fill-opacity="1"><g transform="translate(134.113429, 156.868114)"><g/></g></g><g fill="#f3841f" fill-opacity="1"><g transform="translate(138.280258, 156.868114)"><g><path d="M 4.171875 -5.515625 L 2.4375 -5.515625 L 2.4375 -1.828125 C 2.4375 -1.523438 2.53125 -1.285156 2.71875 -1.109375 C 2.914062 -0.929688 3.144531 -0.84375 3.40625 -0.84375 L 4.15625 -0.84375 L 4.15625 -0.078125 C 4.0625 -0.0234375 3.929688 0.0195312 3.765625 0.0625 C 3.609375 0.101562 3.453125 0.125 3.296875 0.125 C 2.953125 0.125 2.640625 0.046875 2.359375 -0.109375 C 2.085938 -0.273438 1.863281 -0.5 1.6875 -0.78125 C 1.507812 -1.0625 1.421875 -1.367188 1.421875 -1.703125 L 1.421875 -5.515625 L 0.34375 -5.515625 L 0.34375 -6.484375 L 1.421875 -6.484375 L 1.421875 -9.3125 L 2.4375 -9.3125 L 2.4375 -6.484375 L 4.171875 -6.484375 Z M 4.171875 -5.515625 "/></g></g></g><g fill="#f3841f" fill-opacity="1"><g transform="translate(143.241536, 156.868114)"><g><path d="M 3.625 -6.609375 C 4.082031 -6.609375 4.5 -6.5 4.875 -6.28125 C 5.25 -6.0625 5.539062 -5.765625 5.75 -5.390625 C 5.96875 -5.023438 6.078125 -4.613281 6.078125 -4.15625 L 6.078125 0 L 5.09375 0 L 5.09375 -4.15625 C 5.09375 -4.5625 4.945312 -4.90625 4.65625 -5.1875 C 4.375 -5.46875 4.03125 -5.609375 3.625 -5.609375 C 3.226562 -5.609375 2.890625 -5.46875 2.609375 -5.1875 C 2.328125 -4.90625 2.1875 -4.5625 2.1875 -4.15625 L 2.1875 0 L 1.1875 0 L 1.1875 -11.9375 L 2.1875 -11.9375 L 2.1875 -6.140625 C 2.394531 -6.296875 2.617188 -6.410156 2.859375 -6.484375 C 3.097656 -6.566406 3.351562 -6.609375 3.625 -6.609375 Z M 3.625 -6.609375 "/></g></g></g><g fill="#f3841f" fill-opacity="1"><g transform="translate(150.683401, 156.868114)"><g><path d="M 7.46875 -3.3125 L 7.453125 -3.09375 L 1.734375 -3.09375 C 1.753906 -2.6875 1.875 -2.3125 2.09375 -1.96875 C 2.3125 -1.625 2.59375 -1.351562 2.9375 -1.15625 C 3.289062 -0.96875 3.675781 -0.875 4.09375 -0.875 C 4.582031 -0.875 5.023438 -1.003906 5.421875 -1.265625 C 5.816406 -1.523438 6.101562 -1.863281 6.28125 -2.28125 L 7.34375 -2.28125 C 7.207031 -1.820312 6.976562 -1.410156 6.65625 -1.046875 C 6.34375 -0.679688 5.96875 -0.394531 5.53125 -0.1875 C 5.09375 0.0195312 4.613281 0.125 4.09375 0.125 C 3.476562 0.125 2.914062 -0.0234375 2.40625 -0.328125 C 1.894531 -0.628906 1.488281 -1.035156 1.1875 -1.546875 C 0.882812 -2.054688 0.734375 -2.625 0.734375 -3.25 C 0.734375 -3.875 0.882812 -4.4375 1.1875 -4.9375 C 1.488281 -5.445312 1.894531 -5.851562 2.40625 -6.15625 C 2.914062 -6.457031 3.476562 -6.609375 4.09375 -6.609375 C 4.71875 -6.609375 5.28125 -6.460938 5.78125 -6.171875 C 6.28125 -5.878906 6.679688 -5.484375 6.984375 -4.984375 C 7.296875 -4.492188 7.457031 -3.9375 7.46875 -3.3125 Z M 4.09375 -5.609375 C 3.582031 -5.609375 3.125 -5.457031 2.71875 -5.15625 C 2.3125 -4.863281 2.023438 -4.476562 1.859375 -4 L 6.328125 -4 C 6.171875 -4.476562 5.890625 -4.863281 5.484375 -5.15625 C 5.078125 -5.457031 4.613281 -5.609375 4.09375 -5.609375 Z M 4.09375 -5.609375 "/></g></g></g><g fill="#f3841f" fill-opacity="1"><g transform="translate(159.081843, 156.868114)"><g/></g></g><g fill="#f3841f" fill-opacity="1"><g transform="translate(163.248673, 156.868114)"><g><path d="M 1.1875 0 L 1.1875 -11.9375 L 2.1875 -11.9375 L 2.1875 0 Z M 1.1875 0 "/></g></g></g><g fill="#f3841f" fill-opacity="1"><g transform="translate(166.880472, 156.868114)"><g><path d="M 1.8125 -7.703125 C 1.625 -7.703125 1.457031 -7.769531 1.3125 -7.90625 C 1.175781 -8.039062 1.109375 -8.195312 1.109375 -8.375 C 1.109375 -8.582031 1.175781 -8.75 1.3125 -8.875 C 1.457031 -9.007812 1.625 -9.078125 1.8125 -9.078125 C 2 -9.078125 2.160156 -9.007812 2.296875 -8.875 C 2.441406 -8.75 2.515625 -8.582031 2.515625 -8.375 C 2.515625 -8.195312 2.441406 -8.039062 2.296875 -7.90625 C 2.160156 -7.769531 2 -7.703125 1.8125 -7.703125 Z M 1.3125 0 L 1.3125 -6.484375 L 2.3125 -6.484375 L 2.3125 0 Z M 1.3125 0 "/></g></g></g><g fill="#f3841f" fill-opacity="1"><g transform="translate(170.755469, 156.868114)"><g><path d="M 3.765625 -6.609375 C 4.179688 -6.609375 4.570312 -6.5 4.9375 -6.28125 C 5.300781 -6.0625 5.59375 -5.765625 5.8125 -5.390625 C 6.039062 -5.015625 6.15625 -4.597656 6.15625 -4.140625 L 6.15625 0 L 5.15625 0 L 5.15625 -4.140625 C 5.15625 -4.546875 5.007812 -4.890625 4.71875 -5.171875 C 4.4375 -5.460938 4.09375 -5.609375 3.6875 -5.609375 C 3.269531 -5.609375 2.914062 -5.460938 2.625 -5.171875 C 2.332031 -4.890625 2.1875 -4.546875 2.1875 -4.140625 L 2.1875 0 L 1.1875 0 L 1.1875 -6.484375 L 2.1875 -6.484375 L 2.1875 -5.96875 C 2.40625 -6.175781 2.644531 -6.332031 2.90625 -6.4375 C 3.175781 -6.550781 3.460938 -6.609375 3.765625 -6.609375 Z M 3.765625 -6.609375 "/></g></g></g><g fill="#f3841f" fill-opacity="1"><g transform="translate(178.278405, 156.868114)"><g><path d="M 7.46875 -3.3125 L 7.453125 -3.09375 L 1.734375 -3.09375 C 1.753906 -2.6875 1.875 -2.3125 2.09375 -1.96875 C 2.3125 -1.625 2.59375 -1.351562 2.9375 -1.15625 C 3.289062 -0.96875 3.675781 -0.875 4.09375 -0.875 C 4.582031 -0.875 5.023438 -1.003906 5.421875 -1.265625 C 5.816406 -1.523438 6.101562 -1.863281 6.28125 -2.28125 L 7.34375 -2.28125 C 7.207031 -1.820312 6.976562 -1.410156 6.65625 -1.046875 C 6.34375 -0.679688 5.96875 -0.394531 5.53125 -0.1875 C 5.09375 0.0195312 4.613281 0.125 4.09375 0.125 C 3.476562 0.125 2.914062 -0.0234375 2.40625 -0.328125 C 1.894531 -0.628906 1.488281 -1.035156 1.1875 -1.546875 C 0.882812 -2.054688 0.734375 -2.625 0.734375 -3.25 C 0.734375 -3.875 0.882812 -4.4375 1.1875 -4.9375 C 1.488281 -5.445312 1.894531 -5.851562 2.40625 -6.15625 C 2.914062 -6.457031 3.476562 -6.609375 4.09375 -6.609375 C 4.71875 -6.609375 5.28125 -6.460938 5.78125 -6.171875 C 6.28125 -5.878906 6.679688 -5.484375 6.984375 -4.984375 C 7.296875 -4.492188 7.457031 -3.9375 7.46875 -3.3125 Z M 4.09375 -5.609375 C 3.582031 -5.609375 3.125 -5.457031 2.71875 -5.15625 C 2.3125 -4.863281 2.023438 -4.476562 1.859375 -4 L 6.328125 -4 C 6.171875 -4.476562 5.890625 -4.863281 5.484375 -5.15625 C 5.078125 -5.457031 4.613281 -5.609375 4.09375 -5.609375 Z M 4.09375 -5.609375 "/></g></g></g><g fill="#f3841f" fill-opacity="1"><g transform="translate(186.676847, 156.868114)"><g><path d="M 2.78125 0.125 C 2.269531 0.125 1.796875 -0.0078125 1.359375 -0.28125 C 0.929688 -0.5625 0.65625 -0.894531 0.53125 -1.28125 L 1.5 -1.671875 C 1.5625 -1.429688 1.710938 -1.234375 1.953125 -1.078125 C 2.203125 -0.929688 2.476562 -0.859375 2.78125 -0.859375 C 3.070312 -0.859375 3.320312 -0.9375 3.53125 -1.09375 C 3.75 -1.25 3.859375 -1.46875 3.859375 -1.75 C 3.859375 -2.007812 3.753906 -2.207031 3.546875 -2.34375 C 3.347656 -2.488281 3.050781 -2.632812 2.65625 -2.78125 C 2.082031 -3 1.632812 -3.253906 1.3125 -3.546875 C 0.988281 -3.847656 0.828125 -4.253906 0.828125 -4.765625 C 0.828125 -5.160156 0.914062 -5.492188 1.09375 -5.765625 C 1.269531 -6.035156 1.503906 -6.242188 1.796875 -6.390625 C 2.085938 -6.535156 2.390625 -6.609375 2.703125 -6.609375 C 3.117188 -6.609375 3.507812 -6.503906 3.875 -6.296875 C 4.238281 -6.085938 4.484375 -5.835938 4.609375 -5.546875 L 3.734375 -5.09375 C 3.640625 -5.257812 3.503906 -5.382812 3.328125 -5.46875 C 3.160156 -5.5625 2.96875 -5.609375 2.75 -5.609375 C 2.476562 -5.609375 2.257812 -5.539062 2.09375 -5.40625 C 1.925781 -5.28125 1.84375 -5.078125 1.84375 -4.796875 C 1.84375 -4.515625 1.941406 -4.304688 2.140625 -4.171875 C 2.347656 -4.035156 2.648438 -3.882812 3.046875 -3.71875 C 3.328125 -3.601562 3.609375 -3.46875 3.890625 -3.3125 C 4.171875 -3.15625 4.398438 -2.953125 4.578125 -2.703125 C 4.765625 -2.453125 4.859375 -2.132812 4.859375 -1.75 C 4.859375 -1.1875 4.65625 -0.734375 4.25 -0.390625 C 3.84375 -0.046875 3.351562 0.125 2.78125 0.125 Z M 2.78125 0.125 "/></g></g></g><g fill="#f3841f" fill-opacity="1"><g transform="translate(192.302859, 156.868114)"><g><path d="M 0.921875 2.015625 L 0.078125 2.015625 L 1.78125 -1.640625 L 2.921875 -1.640625 Z M 0.921875 2.015625 "/></g></g></g><g fill="#f3841f" fill-opacity="1"><g transform="translate(29.570403, 174.832645)"><g><path d="M 4.09375 0.125 C 3.476562 0.125 2.914062 -0.0234375 2.40625 -0.328125 C 1.894531 -0.628906 1.488281 -1.035156 1.1875 -1.546875 C 0.882812 -2.054688 0.734375 -2.625 0.734375 -3.25 C 0.734375 -3.875 0.882812 -4.4375 1.1875 -4.9375 C 1.488281 -5.445312 1.894531 -5.851562 2.40625 -6.15625 C 2.914062 -6.457031 3.476562 -6.609375 4.09375 -6.609375 C 4.726562 -6.609375 5.296875 -6.457031 5.796875 -6.15625 C 6.304688 -5.851562 6.710938 -5.445312 7.015625 -4.9375 C 7.316406 -4.4375 7.46875 -3.875 7.46875 -3.25 C 7.46875 -2.625 7.316406 -2.054688 7.015625 -1.546875 C 6.710938 -1.035156 6.304688 -0.628906 5.796875 -0.328125 C 5.296875 -0.0234375 4.726562 0.125 4.09375 0.125 Z M 4.09375 -0.875 C 4.53125 -0.875 4.925781 -0.976562 5.28125 -1.1875 C 5.632812 -1.394531 5.921875 -1.679688 6.140625 -2.046875 C 6.359375 -2.410156 6.46875 -2.8125 6.46875 -3.25 C 6.46875 -3.6875 6.359375 -4.082031 6.140625 -4.4375 C 5.921875 -4.800781 5.632812 -5.085938 5.28125 -5.296875 C 4.925781 -5.503906 4.53125 -5.609375 4.09375 -5.609375 C 3.664062 -5.609375 3.269531 -5.503906 2.90625 -5.296875 C 2.539062 -5.085938 2.253906 -4.800781 2.046875 -4.4375 C 1.835938 -4.082031 1.734375 -3.6875 1.734375 -3.25 C 1.734375 -2.8125 1.835938 -2.410156 2.046875 -2.046875 C 2.253906 -1.679688 2.539062 -1.394531 2.90625 -1.1875 C 3.269531 -0.976562 3.664062 -0.875 4.09375 -0.875 Z M 4.09375 -0.875 "/></g></g></g><g fill="#f3841f" fill-opacity="1"><g transform="translate(38.033699, 174.832645)"><g><path d="M 3.765625 -6.609375 C 4.179688 -6.609375 4.570312 -6.5 4.9375 -6.28125 C 5.300781 -6.0625 5.59375 -5.765625 5.8125 -5.390625 C 6.039062 -5.015625 6.15625 -4.597656 6.15625 -4.140625 L 6.15625 0 L 5.15625 0 L 5.15625 -4.140625 C 5.15625 -4.546875 5.007812 -4.890625 4.71875 -5.171875 C 4.4375 -5.460938 4.09375 -5.609375 3.6875 -5.609375 C 3.269531 -5.609375 2.914062 -5.460938 2.625 -5.171875 C 2.332031 -4.890625 2.1875 -4.546875 2.1875 -4.140625 L 2.1875 0 L 1.1875 0 L 1.1875 -6.484375 L 2.1875 -6.484375 L 2.1875 -5.96875 C 2.40625 -6.175781 2.644531 -6.332031 2.90625 -6.4375 C 3.175781 -6.550781 3.460938 -6.609375 3.765625 -6.609375 Z M 3.765625 -6.609375 "/></g></g></g><g fill="#f3841f" fill-opacity="1"><g transform="translate(45.556635, 174.832645)"><g/></g></g><g fill="#f3841f" fill-opacity="1"><g transform="translate(49.723466, 174.832645)"><g><path d="M 8.171875 -5.421875 L 8.171875 -4.421875 L 7.265625 -4.421875 L 7.265625 -2.75 C 7.265625 -2.226562 7.140625 -1.757812 6.890625 -1.34375 C 6.648438 -0.925781 6.3125 -0.597656 5.875 -0.359375 C 5.4375 -0.117188 4.925781 0 4.34375 0 C 3.78125 0 3.269531 -0.113281 2.8125 -0.34375 C 2.351562 -0.570312 1.988281 -0.882812 1.71875 -1.28125 C 1.445312 -1.6875 1.3125 -2.144531 1.3125 -2.65625 C 1.3125 -3.132812 1.425781 -3.578125 1.65625 -3.984375 C 1.894531 -4.398438 2.195312 -4.722656 2.5625 -4.953125 C 2.207031 -5.210938 1.921875 -5.535156 1.703125 -5.921875 C 1.492188 -6.316406 1.390625 -6.75 1.390625 -7.21875 C 1.390625 -7.707031 1.503906 -8.140625 1.734375 -8.515625 C 1.960938 -8.890625 2.265625 -9.1875 2.640625 -9.40625 C 3.023438 -9.625 3.453125 -9.734375 3.921875 -9.734375 L 6.21875 -9.734375 L 6.21875 -8.6875 L 4.09375 -8.6875 C 3.65625 -8.6875 3.265625 -8.554688 2.921875 -8.296875 C 2.585938 -8.035156 2.421875 -7.660156 2.421875 -7.171875 C 2.421875 -6.660156 2.597656 -6.238281 2.953125 -5.90625 C 3.316406 -5.582031 3.757812 -5.421875 4.28125 -5.421875 L 6.25 -5.421875 L 6.25 -7.046875 L 7.265625 -7.046875 L 7.265625 -5.421875 Z M 4.328125 -0.890625 C 4.921875 -0.890625 5.390625 -1.066406 5.734375 -1.421875 C 6.078125 -1.785156 6.25 -2.226562 6.25 -2.75 L 6.25 -4.421875 L 4.0625 -4.421875 C 3.570312 -4.421875 3.144531 -4.253906 2.78125 -3.921875 C 2.425781 -3.585938 2.25 -3.175781 2.25 -2.6875 C 2.25 -2.15625 2.453125 -1.722656 2.859375 -1.390625 C 3.273438 -1.054688 3.765625 -0.890625 4.328125 -0.890625 Z M 4.328125 -0.890625 "/></g></g></g><g fill="#f3841f" fill-opacity="1"><g transform="translate(58.786644, 174.832645)"><g/></g></g><g fill="#f3841f" fill-opacity="1"><g transform="translate(62.953473, 174.832645)"><g><path d="M 4.09375 0.125 C 3.476562 0.125 2.914062 -0.0234375 2.40625 -0.328125 C 1.894531 -0.628906 1.488281 -1.035156 1.1875 -1.546875 C 0.882812 -2.054688 0.734375 -2.625 0.734375 -3.25 C 0.734375 -3.875 0.882812 -4.4375 1.1875 -4.9375 C 1.488281 -5.445312 1.894531 -5.851562 2.40625 -6.15625 C 2.914062 -6.457031 3.476562 -6.609375 4.09375 -6.609375 C 4.726562 -6.609375 5.296875 -6.457031 5.796875 -6.15625 C 6.304688 -5.851562 6.710938 -5.445312 7.015625 -4.9375 C 7.316406 -4.4375 7.46875 -3.875 7.46875 -3.25 C 7.46875 -2.625 7.316406 -2.054688 7.015625 -1.546875 C 6.710938 -1.035156 6.304688 -0.628906 5.796875 -0.328125 C 5.296875 -0.0234375 4.726562 0.125 4.09375 0.125 Z M 4.09375 -0.875 C 4.53125 -0.875 4.925781 -0.976562 5.28125 -1.1875 C 5.632812 -1.394531 5.921875 -1.679688 6.140625 -2.046875 C 6.359375 -2.410156 6.46875 -2.8125 6.46875 -3.25 C 6.46875 -3.6875 6.359375 -4.082031 6.140625 -4.4375 C 5.921875 -4.800781 5.632812 -5.085938 5.28125 -5.296875 C 4.925781 -5.503906 4.53125 -5.609375 4.09375 -5.609375 C 3.664062 -5.609375 3.269531 -5.503906 2.90625 -5.296875 C 2.539062 -5.085938 2.253906 -4.800781 2.046875 -4.4375 C 1.835938 -4.082031 1.734375 -3.6875 1.734375 -3.25 C 1.734375 -2.8125 1.835938 -2.410156 2.046875 -2.046875 C 2.253906 -1.679688 2.539062 -1.394531 2.90625 -1.1875 C 3.269531 -0.976562 3.664062 -0.875 4.09375 -0.875 Z M 4.09375 -0.875 "/></g></g></g><g fill="#f3841f" fill-opacity="1"><g transform="translate(71.416767, 174.832645)"><g><path d="M 4.296875 -6.484375 L 4.296875 -5.515625 L 2.5625 -5.515625 L 2.5625 0 L 1.5625 0 L 1.5625 -5.515625 L 0.46875 -5.515625 L 0.46875 -6.484375 L 1.5625 -6.484375 L 1.5625 -10.09375 C 1.5625 -10.445312 1.644531 -10.757812 1.8125 -11.03125 C 1.988281 -11.300781 2.21875 -11.519531 2.5 -11.6875 C 2.78125 -11.851562 3.085938 -11.9375 3.421875 -11.9375 C 3.578125 -11.9375 3.738281 -11.910156 3.90625 -11.859375 C 4.070312 -11.816406 4.195312 -11.769531 4.28125 -11.71875 L 4.28125 -10.9375 L 3.53125 -10.953125 C 3.269531 -10.953125 3.039062 -10.863281 2.84375 -10.6875 C 2.65625 -10.507812 2.5625 -10.269531 2.5625 -9.96875 L 2.5625 -6.484375 Z M 4.296875 -6.484375 "/></g></g></g><g fill="#f3841f" fill-opacity="1"><g transform="translate(76.151053, 174.832645)"><g><path d="M 4.296875 -6.484375 L 4.296875 -5.515625 L 2.5625 -5.515625 L 2.5625 0 L 1.5625 0 L 1.5625 -5.515625 L 0.46875 -5.515625 L 0.46875 -6.484375 L 1.5625 -6.484375 L 1.5625 -10.09375 C 1.5625 -10.445312 1.644531 -10.757812 1.8125 -11.03125 C 1.988281 -11.300781 2.21875 -11.519531 2.5 -11.6875 C 2.78125 -11.851562 3.085938 -11.9375 3.421875 -11.9375 C 3.578125 -11.9375 3.738281 -11.910156 3.90625 -11.859375 C 4.070312 -11.816406 4.195312 -11.769531 4.28125 -11.71875 L 4.28125 -10.9375 L 3.53125 -10.953125 C 3.269531 -10.953125 3.039062 -10.863281 2.84375 -10.6875 C 2.65625 -10.507812 2.5625 -10.269531 2.5625 -9.96875 L 2.5625 -6.484375 Z M 4.296875 -6.484375 "/></g></g></g><g fill="#f3841f" fill-opacity="1"><g transform="translate(80.885339, 174.832645)"><g/></g></g><g fill="#f3841f" fill-opacity="1"><g transform="translate(85.052169, 174.832645)"><g><path d="M 4.171875 -5.515625 L 2.4375 -5.515625 L 2.4375 -1.828125 C 2.4375 -1.523438 2.53125 -1.285156 2.71875 -1.109375 C 2.914062 -0.929688 3.144531 -0.84375 3.40625 -0.84375 L 4.15625 -0.84375 L 4.15625 -0.078125 C 4.0625 -0.0234375 3.929688 0.0195312 3.765625 0.0625 C 3.609375 0.101562 3.453125 0.125 3.296875 0.125 C 2.953125 0.125 2.640625 0.046875 2.359375 -0.109375 C 2.085938 -0.273438 1.863281 -0.5 1.6875 -0.78125 C 1.507812 -1.0625 1.421875 -1.367188 1.421875 -1.703125 L 1.421875 -5.515625 L 0.34375 -5.515625 L 0.34375 -6.484375 L 1.421875 -6.484375 L 1.421875 -9.3125 L 2.4375 -9.3125 L 2.4375 -6.484375 L 4.171875 -6.484375 Z M 4.171875 -5.515625 "/></g></g></g><g fill="#f3841f" fill-opacity="1"><g transform="translate(90.013446, 174.832645)"><g><path d="M 3.625 -6.609375 C 4.082031 -6.609375 4.5 -6.5 4.875 -6.28125 C 5.25 -6.0625 5.539062 -5.765625 5.75 -5.390625 C 5.96875 -5.023438 6.078125 -4.613281 6.078125 -4.15625 L 6.078125 0 L 5.09375 0 L 5.09375 -4.15625 C 5.09375 -4.5625 4.945312 -4.90625 4.65625 -5.1875 C 4.375 -5.46875 4.03125 -5.609375 3.625 -5.609375 C 3.226562 -5.609375 2.890625 -5.46875 2.609375 -5.1875 C 2.328125 -4.90625 2.1875 -4.5625 2.1875 -4.15625 L 2.1875 0 L 1.1875 0 L 1.1875 -11.9375 L 2.1875 -11.9375 L 2.1875 -6.140625 C 2.394531 -6.296875 2.617188 -6.410156 2.859375 -6.484375 C 3.097656 -6.566406 3.351562 -6.609375 3.625 -6.609375 Z M 3.625 -6.609375 "/></g></g></g><g fill="#f3841f" fill-opacity="1"><g transform="translate(97.455312, 174.832645)"><g><path d="M 7.46875 -3.3125 L 7.453125 -3.09375 L 1.734375 -3.09375 C 1.753906 -2.6875 1.875 -2.3125 2.09375 -1.96875 C 2.3125 -1.625 2.59375 -1.351562 2.9375 -1.15625 C 3.289062 -0.96875 3.675781 -0.875 4.09375 -0.875 C 4.582031 -0.875 5.023438 -1.003906 5.421875 -1.265625 C 5.816406 -1.523438 6.101562 -1.863281 6.28125 -2.28125 L 7.34375 -2.28125 C 7.207031 -1.820312 6.976562 -1.410156 6.65625 -1.046875 C 6.34375 -0.679688 5.96875 -0.394531 5.53125 -0.1875 C 5.09375 0.0195312 4.613281 0.125 4.09375 0.125 C 3.476562 0.125 2.914062 -0.0234375 2.40625 -0.328125 C 1.894531 -0.628906 1.488281 -1.035156 1.1875 -1.546875 C 0.882812 -2.054688 0.734375 -2.625 0.734375 -3.25 C 0.734375 -3.875 0.882812 -4.4375 1.1875 -4.9375 C 1.488281 -5.445312 1.894531 -5.851562 2.40625 -6.15625 C 2.914062 -6.457031 3.476562 -6.609375 4.09375 -6.609375 C 4.71875 -6.609375 5.28125 -6.460938 5.78125 -6.171875 C 6.28125 -5.878906 6.679688 -5.484375 6.984375 -4.984375 C 7.296875 -4.492188 7.457031 -3.9375 7.46875 -3.3125 Z M 4.09375 -5.609375 C 3.582031 -5.609375 3.125 -5.457031 2.71875 -5.15625 C 2.3125 -4.863281 2.023438 -4.476562 1.859375 -4 L 6.328125 -4 C 6.171875 -4.476562 5.890625 -4.863281 5.484375 -5.15625 C 5.078125 -5.457031 4.613281 -5.609375 4.09375 -5.609375 Z M 4.09375 -5.609375 "/></g></g></g><g fill="#f3841f" fill-opacity="1"><g transform="translate(105.853754, 174.832645)"><g/></g></g><g fill="#f3841f" fill-opacity="1"><g transform="translate(110.020583, 174.832645)"><g><path d="M 4.09375 0.125 C 3.476562 0.125 2.914062 -0.0234375 2.40625 -0.328125 C 1.894531 -0.628906 1.488281 -1.035156 1.1875 -1.546875 C 0.882812 -2.054688 0.734375 -2.625 0.734375 -3.25 C 0.734375 -3.875 0.882812 -4.4375 1.1875 -4.9375 C 1.488281 -5.445312 1.894531 -5.851562 2.40625 -6.15625 C 2.914062 -6.457031 3.476562 -6.609375 4.09375 -6.609375 C 4.851562 -6.609375 5.523438 -6.390625 6.109375 -5.953125 C 6.691406 -5.515625 7.09375 -4.957031 7.3125 -4.28125 L 6.234375 -4.28125 C 6.046875 -4.675781 5.757812 -4.992188 5.375 -5.234375 C 5 -5.484375 4.570312 -5.609375 4.09375 -5.609375 C 3.664062 -5.609375 3.269531 -5.503906 2.90625 -5.296875 C 2.539062 -5.085938 2.253906 -4.800781 2.046875 -4.4375 C 1.835938 -4.082031 1.734375 -3.6875 1.734375 -3.25 C 1.734375 -2.800781 1.835938 -2.394531 2.046875 -2.03125 C 2.253906 -1.675781 2.539062 -1.394531 2.90625 -1.1875 C 3.269531 -0.976562 3.664062 -0.875 4.09375 -0.875 C 4.570312 -0.875 5 -0.992188 5.375 -1.234375 C 5.757812 -1.484375 6.046875 -1.804688 6.234375 -2.203125 L 7.3125 -2.203125 C 7.09375 -1.523438 6.691406 -0.96875 6.109375 -0.53125 C 5.523438 -0.09375 4.851562 0.125 4.09375 0.125 Z M 4.09375 0.125 "/></g></g></g><g fill="#f3841f" fill-opacity="1"><g transform="translate(118.013698, 174.832645)"><g><path d="M 4.09375 0.125 C 3.476562 0.125 2.914062 -0.0234375 2.40625 -0.328125 C 1.894531 -0.628906 1.488281 -1.035156 1.1875 -1.546875 C 0.882812 -2.054688 0.734375 -2.625 0.734375 -3.25 C 0.734375 -3.875 0.882812 -4.4375 1.1875 -4.9375 C 1.488281 -5.445312 1.894531 -5.851562 2.40625 -6.15625 C 2.914062 -6.457031 3.476562 -6.609375 4.09375 -6.609375 C 4.726562 -6.609375 5.296875 -6.457031 5.796875 -6.15625 C 6.304688 -5.851562 6.710938 -5.445312 7.015625 -4.9375 C 7.316406 -4.4375 7.46875 -3.875 7.46875 -3.25 C 7.46875 -2.625 7.316406 -2.054688 7.015625 -1.546875 C 6.710938 -1.035156 6.304688 -0.628906 5.796875 -0.328125 C 5.296875 -0.0234375 4.726562 0.125 4.09375 0.125 Z M 4.09375 -0.875 C 4.53125 -0.875 4.925781 -0.976562 5.28125 -1.1875 C 5.632812 -1.394531 5.921875 -1.679688 6.140625 -2.046875 C 6.359375 -2.410156 6.46875 -2.8125 6.46875 -3.25 C 6.46875 -3.6875 6.359375 -4.082031 6.140625 -4.4375 C 5.921875 -4.800781 5.632812 -5.085938 5.28125 -5.296875 C 4.925781 -5.503906 4.53125 -5.609375 4.09375 -5.609375 C 3.664062 -5.609375 3.269531 -5.503906 2.90625 -5.296875 C 2.539062 -5.085938 2.253906 -4.800781 2.046875 -4.4375 C 1.835938 -4.082031 1.734375 -3.6875 1.734375 -3.25 C 1.734375 -2.8125 1.835938 -2.410156 2.046875 -2.046875 C 2.253906 -1.679688 2.539062 -1.394531 2.90625 -1.1875 C 3.269531 -0.976562 3.664062 -0.875 4.09375 -0.875 Z M 4.09375 -0.875 "/></g></g></g><g fill="#f3841f" fill-opacity="1"><g transform="translate(126.476997, 174.832645)"><g><path d="M 3.40625 0.125 C 2.675781 0.125 2.085938 -0.09375 1.640625 -0.53125 C 1.191406 -0.976562 0.96875 -1.578125 0.96875 -2.328125 L 0.96875 -6.484375 L 1.96875 -6.484375 L 1.96875 -2.453125 C 1.96875 -1.960938 2.101562 -1.578125 2.375 -1.296875 C 2.644531 -1.015625 2.988281 -0.875 3.40625 -0.875 C 3.820312 -0.875 4.164062 -1.015625 4.4375 -1.296875 C 4.707031 -1.578125 4.84375 -1.960938 4.84375 -2.453125 L 4.84375 -6.484375 L 5.84375 -6.484375 L 5.84375 -2.328125 C 5.84375 -1.578125 5.613281 -0.976562 5.15625 -0.53125 C 4.707031 -0.09375 4.125 0.125 3.40625 0.125 Z M 3.40625 0.125 "/></g></g></g><g fill="#f3841f" fill-opacity="1"><g transform="translate(133.529754, 174.832645)"><g><path d="M 4.34375 -6.609375 C 4.539062 -6.609375 4.707031 -6.59375 4.84375 -6.5625 L 4.84375 -5.546875 C 4.71875 -5.585938 4.550781 -5.609375 4.34375 -5.609375 C 3.957031 -5.609375 3.597656 -5.515625 3.265625 -5.328125 C 2.929688 -5.148438 2.664062 -4.90625 2.46875 -4.59375 C 2.28125 -4.28125 2.1875 -3.921875 2.1875 -3.515625 L 2.1875 0 L 1.1875 0 L 1.1875 -6.484375 L 2.1875 -6.484375 L 2.1875 -5.5625 C 2.4375 -5.882812 2.738281 -6.140625 3.09375 -6.328125 C 3.457031 -6.515625 3.875 -6.609375 4.34375 -6.609375 Z M 4.34375 -6.609375 "/></g></g></g><g fill="#f3841f" fill-opacity="1"><g transform="translate(138.718012, 174.832645)"><g><path d="M 4.171875 -5.515625 L 2.4375 -5.515625 L 2.4375 -1.828125 C 2.4375 -1.523438 2.53125 -1.285156 2.71875 -1.109375 C 2.914062 -0.929688 3.144531 -0.84375 3.40625 -0.84375 L 4.15625 -0.84375 L 4.15625 -0.078125 C 4.0625 -0.0234375 3.929688 0.0195312 3.765625 0.0625 C 3.609375 0.101562 3.453125 0.125 3.296875 0.125 C 2.953125 0.125 2.640625 0.046875 2.359375 -0.109375 C 2.085938 -0.273438 1.863281 -0.5 1.6875 -0.78125 C 1.507812 -1.0625 1.421875 -1.367188 1.421875 -1.703125 L 1.421875 -5.515625 L 0.34375 -5.515625 L 0.34375 -6.484375 L 1.421875 -6.484375 L 1.421875 -9.3125 L 2.4375 -9.3125 L 2.4375 -6.484375 L 4.171875 -6.484375 Z M 4.171875 -5.515625 "/></g></g></g><g fill="#f3841f" fill-opacity="1"><g transform="translate(143.679289, 174.832645)"><g><path d="M 1.546875 0.125 C 1.304688 0.125 1.097656 0.0351562 0.921875 -0.140625 C 0.742188 -0.316406 0.65625 -0.523438 0.65625 -0.765625 C 0.65625 -1.015625 0.742188 -1.222656 0.921875 -1.390625 C 1.097656 -1.566406 1.304688 -1.65625 1.546875 -1.65625 C 1.785156 -1.65625 1.992188 -1.566406 2.171875 -1.390625 C 2.347656 -1.222656 2.4375 -1.015625 2.4375 -0.765625 C 2.4375 -0.523438 2.347656 -0.316406 2.171875 -0.140625 C 1.992188 0.0351562 1.785156 0.125 1.546875 0.125 Z M 1.546875 0.125 "/></g></g></g></svg>