<svg xmlns="http://www.w3.org/2000/svg" xmlns:xlink="http://www.w3.org/1999/xlink" width="300" zoomAndPan="magnify" viewBox="0 0 224.87999 225" height="300" preserveAspectRatio="xMidYMid meet" version="1.0"><defs><g/><clipPath id="f2fab0602b"><path d="M 81.578125 47.316406 L 107.429688 47.316406 L 107.429688 107.292969 L 81.578125 107.292969 Z M 81.578125 47.316406 " clip-rule="nonzero"/></clipPath><clipPath id="8bc7e52629"><path d="M 88.585938 105.09375 C 89.921875 93.28125 91.257812 84.332031 90.070312 80.425781 C 89.378906 78.152344 87.648438 77.558594 86.5625 75.535156 C 85.128906 72.8125 83.644531 68.316406 82.851562 65.398438 C 82.308594 63.273438 82.0625 61.691406 81.863281 59.8125 C 81.667969 57.886719 81.417969 55.660156 81.714844 53.980469 C 81.964844 52.742188 82.308594 51.65625 83 50.714844 C 83.792969 49.679688 85.273438 48.691406 86.511719 48.144531 C 87.550781 47.652344 88.539062 47.554688 89.824219 47.453125 C 91.75 47.304688 94.765625 47.355469 96.792969 47.75 C 98.425781 48.046875 99.761719 48.589844 101.09375 49.28125 C 102.378906 49.976562 103.714844 50.863281 104.605469 51.855469 C 105.347656 52.695312 105.839844 53.632812 106.285156 54.621094 C 106.730469 55.609375 106.976562 56.550781 107.175781 57.886719 C 107.472656 60.011719 107.570312 63.570312 107.125 66.089844 C 106.730469 68.363281 106.085938 70.34375 104.902344 72.320312 C 103.417969 74.691406 100.5 77.511719 98.621094 79.191406 C 97.289062 80.378906 95.753906 80.179688 94.867188 81.859375 C 92.9375 85.519531 94.765625 100.695312 94.46875 104.402344 C 94.371094 105.640625 94.519531 106.382812 94.125 106.824219 C 93.730469 107.222656 92.988281 107.320312 92.394531 107.222656 C 91.652344 107.121094 90.316406 106.429688 90.167969 105.984375 C 90.019531 105.6875 90.21875 105.242188 90.464844 105.09375 C 90.714844 104.898438 91.355469 104.800781 91.652344 104.949219 C 91.898438 105.09375 92.097656 105.492188 92.097656 105.738281 C 92.148438 106.035156 91.949219 106.429688 91.703125 106.578125 C 91.503906 106.777344 91.058594 106.875 90.8125 106.726562 C 90.515625 106.628906 90.070312 106.035156 90.121094 105.738281 C 90.167969 105.390625 90.761719 104.898438 91.257812 104.847656 C 91.898438 104.75 93.828125 105.984375 93.828125 105.984375 C 93.828125 106.035156 92.691406 105.984375 92.296875 105.390625 C 90.8125 103.167969 92.691406 84.035156 93.234375 81.417969 C 93.332031 80.871094 93.332031 80.824219 93.582031 80.476562 C 94.171875 79.6875 96.25 78.746094 97.632812 77.460938 C 99.464844 75.78125 102.082031 73.257812 103.417969 70.9375 C 104.554688 68.910156 105.148438 66.488281 105.445312 64.359375 C 105.742188 62.480469 105.542969 60.457031 105.347656 58.875 C 105.199219 57.6875 105.050781 56.746094 104.652344 55.757812 C 104.210938 54.722656 103.8125 53.730469 102.921875 52.890625 C 101.738281 51.707031 99.265625 50.46875 97.632812 49.925781 C 96.398438 49.480469 95.507812 49.480469 94.222656 49.382812 C 92.542969 49.332031 89.871094 49.332031 88.390625 49.628906 C 87.449219 49.828125 86.757812 50.023438 86.066406 50.519531 C 85.324219 51.0625 84.484375 51.855469 84.089844 52.792969 C 83.59375 53.980469 83.59375 55.5625 83.59375 57.144531 C 83.644531 59.21875 83.988281 61.59375 84.582031 64.113281 C 85.375 67.277344 86.808594 71.777344 88.242188 74.59375 C 89.378906 76.769531 91.304688 77.3125 92.046875 79.882812 C 93.480469 84.628906 91.652344 98.074219 91.109375 102.277344 C 90.910156 103.957031 90.910156 105.292969 90.367188 105.835938 C 90.070312 106.132812 89.378906 106.234375 89.082031 106.085938 C 88.835938 105.9375 88.585938 105.09375 88.585938 105.09375 " clip-rule="nonzero"/></clipPath><clipPath id="13e7d38d8f"><path d="M 111.261719 48.308594 L 136.855469 48.308594 L 136.855469 110.332031 L 111.261719 110.332031 Z M 111.261719 48.308594 " clip-rule="nonzero"/></clipPath><clipPath id="54ac79cdce"><path d="M 120.621094 109 C 119.386719 80.230469 117.851562 79.734375 116.714844 77.558594 C 115.132812 74.644531 112.910156 69.699219 112.070312 66.535156 C 111.476562 64.3125 111.328125 62.582031 111.277344 60.605469 C 111.277344 58.527344 111.328125 56.15625 111.921875 54.375 C 112.414062 52.941406 113.207031 51.558594 114.292969 50.667969 C 115.382812 49.726562 116.964844 49.332031 118.496094 48.988281 C 120.375 48.542969 122.648438 48.34375 124.726562 48.441406 C 126.800781 48.492188 129.371094 48.988281 131.050781 49.578125 C 132.289062 50.023438 133.328125 50.617188 134.066406 51.308594 C 134.660156 51.902344 134.957031 52.496094 135.351562 53.335938 C 135.847656 54.425781 136.34375 56.054688 136.589844 57.488281 C 136.835938 58.921875 136.886719 60.40625 136.835938 61.9375 C 136.785156 63.519531 136.539062 65.101562 136.09375 66.832031 C 135.601562 68.859375 134.660156 71.230469 133.769531 73.210938 C 132.980469 75.039062 132.289062 76.570312 131.152344 78.300781 C 129.765625 80.378906 126.949219 82.007812 125.8125 84.628906 C 124.429688 87.695312 124.527344 92.09375 124.328125 95.949219 C 124.082031 99.953125 125.367188 105.835938 124.429688 108.109375 C 123.984375 109.199219 122.945312 110.1875 122.449219 110.1875 C 122.152344 110.1875 121.855469 109.839844 121.757812 109.542969 C 121.710938 109.25 121.90625 108.605469 122.152344 108.40625 C 122.402344 108.257812 122.847656 108.210938 123.09375 108.308594 C 123.339844 108.457031 123.734375 109.050781 123.6875 109.347656 C 123.636719 109.691406 122.894531 110.238281 122.550781 110.238281 C 122.253906 110.1875 121.710938 109.644531 121.710938 109.347656 C 121.710938 109 122.449219 108.902344 122.648438 108.257812 C 123.339844 106.378906 122.203125 99.707031 122.402344 95.652344 C 122.550781 91.945312 122.894531 87.101562 123.539062 84.976562 C 123.835938 83.9375 124.03125 83.640625 124.625 82.851562 C 125.566406 81.414062 127.988281 79.585938 129.320312 77.609375 C 130.707031 75.535156 131.84375 72.863281 132.78125 70.640625 C 133.523438 68.710938 134.167969 67.03125 134.511719 65.054688 C 134.910156 62.976562 135.058594 60.457031 134.761719 58.378906 C 134.464844 56.402344 133.820312 54.027344 132.832031 52.84375 C 132.089844 51.953125 131.003906 51.65625 129.964844 51.308594 C 128.878906 50.863281 127.789062 50.617188 126.355469 50.519531 C 124.179688 50.371094 120.175781 50.617188 118.148438 51.0625 C 116.914062 51.359375 115.976562 51.707031 115.28125 52.296875 C 114.6875 52.84375 114.394531 53.535156 114.046875 54.277344 C 113.652344 55.214844 113.355469 56.203125 113.253906 57.589844 C 113.105469 59.664062 113.207031 62.925781 113.898438 65.792969 C 114.738281 69.253906 116.863281 73.753906 118.496094 76.71875 C 119.683594 78.945312 121.363281 79.539062 122.203125 82.257812 C 123.882812 87.695312 123.882812 106.183594 122.597656 109 C 122.351562 109.691406 121.855469 110.039062 121.511719 109.988281 C 121.214844 109.988281 120.621094 109 120.621094 109 " clip-rule="nonzero"/></clipPath><clipPath id="b4ffbd7e55"><path d="M 113.074219 53.042969 L 114.5 53.042969 L 114.5 68.316406 L 113.074219 68.316406 Z M 113.074219 53.042969 " clip-rule="nonzero"/></clipPath><clipPath id="822c68d665"><path d="M 114.492188 53.089844 C 114.097656 66.734375 114.246094 68.019531 113.949219 68.265625 C 113.800781 68.363281 113.453125 68.214844 113.453125 68.214844 C 113.453125 68.214844 113.949219 68.265625 113.949219 68.214844 C 113.949219 68.214844 113.601562 68.316406 113.453125 68.167969 C 112.710938 67.328125 113.207031 54.027344 113.996094 53.140625 C 114.144531 52.992188 114.492188 53.089844 114.492188 53.089844 " clip-rule="nonzero"/></clipPath><clipPath id="e3846e69a7"><path d="M 115.3125 51.535156 L 117.921875 51.535156 L 117.921875 73.101562 L 115.3125 73.101562 Z M 115.3125 51.535156 " clip-rule="nonzero"/></clipPath><clipPath id="b1e3028bf2"><path d="M 117.902344 51.605469 C 117.359375 64.953125 116.714844 69.550781 116.171875 71.378906 C 115.976562 72.171875 115.332031 72.765625 115.429688 72.960938 C 115.53125 73.109375 115.925781 73.0625 115.925781 73.0625 C 115.925781 73.0625 115.578125 73.160156 115.429688 73.011719 C 114.886719 72.269531 116.816406 65.347656 117.113281 61.691406 C 117.457031 58.230469 116.765625 52.199219 117.410156 51.605469 C 117.554688 51.457031 117.902344 51.605469 117.902344 51.605469 " clip-rule="nonzero"/></clipPath><clipPath id="e76347844b"><path d="M 118.304688 50.980469 L 122.105469 50.980469 L 122.105469 72.773438 L 118.304688 72.773438 Z M 118.304688 50.980469 " clip-rule="nonzero"/></clipPath><clipPath id="0bea2672d8"><path d="M 122.105469 51.113281 C 120.96875 63.371094 119.929688 72.074219 118.988281 72.714844 C 118.792969 72.863281 118.398438 72.667969 118.398438 72.667969 C 118.398438 72.667969 118.890625 72.714844 118.890625 72.667969 C 118.890625 72.667969 118.546875 72.765625 118.398438 72.617188 C 117.753906 71.675781 121.066406 60.257812 121.460938 56.304688 C 121.710938 54.078125 121.164062 51.410156 121.609375 51.011719 C 121.710938 50.914062 122.105469 51.113281 122.105469 51.113281 " clip-rule="nonzero"/></clipPath><clipPath id="4c03ef5884"><path d="M 120.851562 52.289062 L 123.757812 52.289062 L 123.757812 74.355469 L 120.851562 74.355469 Z M 120.851562 52.289062 " clip-rule="nonzero"/></clipPath><clipPath id="741de5214b"><path d="M 123.734375 52.347656 C 123.6875 58.28125 122.796875 61.148438 122.449219 63.914062 C 122.003906 67.128906 122.152344 73.65625 121.460938 74.296875 C 121.363281 74.394531 121.015625 74.296875 121.015625 74.296875 C 121.015625 74.296875 121.511719 74.246094 121.511719 74.246094 C 121.511719 74.246094 121.117188 74.347656 121.015625 74.246094 C 120.671875 73.902344 121.015625 72.074219 121.214844 70.390625 C 121.5625 67.179688 123.144531 59.367188 123.339844 56.15625 C 123.4375 54.472656 122.945312 52.742188 123.242188 52.398438 C 123.390625 52.25 123.734375 52.347656 123.734375 52.347656 " clip-rule="nonzero"/></clipPath><clipPath id="ba76bbc86a"><path d="M 124.515625 51.425781 L 127.5 51.425781 L 127.5 70.984375 L 124.515625 70.984375 Z M 124.515625 51.425781 " clip-rule="nonzero"/></clipPath><clipPath id="670b4c1a0b"><path d="M 127.492188 51.558594 C 125.464844 70.09375 125.367188 70.789062 125.121094 70.9375 C 124.972656 71.035156 124.625 70.835938 124.625 70.789062 C 124.625 70.789062 125.121094 70.835938 125.121094 70.835938 C 125.121094 70.835938 124.773438 70.9375 124.625 70.789062 C 124.03125 70.046875 126.304688 61.046875 126.652344 57.488281 C 126.898438 55.117188 126.554688 51.855469 127 51.457031 C 127.148438 51.359375 127.492188 51.558594 127.492188 51.558594 " clip-rule="nonzero"/></clipPath><clipPath id="9cf8a61475"><path d="M 127.519531 53.390625 L 130.179688 53.390625 L 130.179688 72.644531 L 127.519531 72.644531 Z M 127.519531 53.390625 " clip-rule="nonzero"/></clipPath><clipPath id="b5cf8d6455"><path d="M 130.164062 53.484375 C 128.234375 73.457031 128.332031 72.714844 128.183594 72.617188 C 128.085938 72.519531 127.738281 72.667969 127.738281 72.617188 C 127.691406 72.617188 128.183594 72.46875 128.183594 72.46875 C 128.183594 72.46875 127.839844 72.667969 127.738281 72.566406 C 126.949219 71.925781 128.730469 54.226562 129.667969 53.4375 C 129.816406 53.335938 130.164062 53.484375 130.164062 53.484375 " clip-rule="nonzero"/></clipPath><clipPath id="8d13be2e74"><path d="M 131.320312 57.5625 L 132.453125 57.5625 L 132.453125 71.070312 L 131.320312 71.070312 Z M 131.320312 57.5625 " clip-rule="nonzero"/></clipPath><clipPath id="76d675526d"><path d="M 132.4375 57.636719 C 132.1875 71.183594 131.941406 71.183594 131.84375 71.035156 C 131.101562 70.242188 131.199219 58.328125 131.941406 57.636719 C 132.089844 57.488281 132.4375 57.636719 132.4375 57.636719 " clip-rule="nonzero"/></clipPath><clipPath id="4b5669ec2b"><path d="M 115.039062 48.957031 L 134.628906 48.957031 L 134.628906 52.390625 L 115.039062 52.390625 Z M 115.039062 48.957031 " clip-rule="nonzero"/></clipPath><clipPath id="07efd316b8"><path d="M 115.085938 51.773438 C 131.300781 49.003906 134.613281 48.855469 134.613281 49.003906 C 134.613281 49.25 116.175781 53.007812 115.136719 52.265625 C 114.988281 52.167969 115.085938 51.773438 115.085938 51.773438 " clip-rule="nonzero"/></clipPath><clipPath id="d8e4bf33d2"><path d="M 115.660156 52.59375 L 136.449219 52.59375 L 136.449219 57.03125 L 115.660156 57.03125 Z M 115.660156 52.59375 " clip-rule="nonzero"/></clipPath><clipPath id="261d4bdbcd"><path d="M 115.878906 56.519531 C 136.445312 52.710938 136.394531 53.109375 136.394531 53.109375 C 136.394531 53.109375 136.296875 52.613281 136.296875 52.613281 C 136.296875 52.613281 136.492188 52.910156 136.394531 53.058594 C 135.949219 53.800781 128.78125 54.195312 125.269531 54.886719 C 122.105469 55.480469 117.65625 56.914062 116.371094 57.011719 C 116.027344 57.011719 115.78125 57.011719 115.679688 56.914062 C 115.632812 56.863281 115.878906 56.519531 115.878906 56.519531 " clip-rule="nonzero"/></clipPath><clipPath id="4fedbdd589"><path d="M 115.550781 55.457031 L 139.773438 55.457031 L 139.773438 59.503906 L 115.550781 59.503906 Z M 115.550781 55.457031 " clip-rule="nonzero"/></clipPath><clipPath id="f45cbe95f8"><path d="M 115.730469 58.941406 C 130.957031 57.210938 138.914062 54.984375 139.65625 55.578125 C 139.804688 55.679688 139.707031 56.023438 139.707031 56.023438 C 139.707031 56.023438 139.605469 55.578125 139.65625 55.578125 C 139.65625 55.578125 139.855469 55.875 139.707031 56.023438 C 139.164062 56.863281 130.957031 57.703125 126.902344 58.296875 C 123.292969 58.792969 118.398438 59.433594 116.71875 59.484375 C 116.125 59.484375 115.679688 59.535156 115.582031 59.386719 C 115.484375 59.285156 115.730469 58.941406 115.730469 58.941406 " clip-rule="nonzero"/></clipPath><clipPath id="b21474a8da"><path d="M 116.078125 60.007812 L 132.089844 60.007812 L 132.089844 63.332031 L 116.078125 63.332031 Z M 116.078125 60.007812 " clip-rule="nonzero"/></clipPath><clipPath id="9964385bc1"><path d="M 116.273438 62.796875 C 132.09375 60.128906 132.042969 60.523438 132.042969 60.523438 C 131.996094 60.523438 131.894531 60.027344 131.894531 60.027344 C 131.894531 60.027344 132.144531 60.375 132.042969 60.523438 C 131.5 61.414062 118.695312 63.242188 116.867188 63.292969 C 116.421875 63.339844 116.175781 63.339844 116.125 63.242188 C 116.027344 63.144531 116.273438 62.796875 116.273438 62.796875 " clip-rule="nonzero"/></clipPath><clipPath id="ec6fd3daf5"><path d="M 115.589844 61.929688 L 141.488281 61.929688 L 141.488281 66.496094 L 115.589844 66.496094 Z M 115.589844 61.929688 " clip-rule="nonzero"/></clipPath><clipPath id="6ed5f329b9"><path d="M 115.726562 65.84375 C 127.195312 65.054688 140.394531 61.296875 141.335938 62.039062 C 141.484375 62.136719 141.382812 62.53125 141.382812 62.53125 C 141.382812 62.53125 141.335938 62.039062 141.335938 62.039062 C 141.335938 62.039062 141.53125 62.335938 141.433594 62.480469 C 140.742188 63.519531 126.898438 65.546875 122.550781 66.089844 C 120.226562 66.386719 118.496094 66.4375 117.261719 66.4375 C 116.566406 66.4375 115.828125 66.535156 115.628906 66.339844 C 115.578125 66.238281 115.726562 65.84375 115.726562 65.84375 " clip-rule="nonzero"/></clipPath><clipPath id="90e3be5f0f"><path d="M 122.324219 65.246094 L 143.152344 65.246094 L 143.152344 68.175781 L 122.324219 68.175781 Z M 122.324219 65.246094 " clip-rule="nonzero"/></clipPath><clipPath id="863bec51e5"><path d="M 122.402344 67.375 C 132.4375 67.226562 142.175781 64.757812 143.015625 65.347656 C 143.164062 65.496094 143.066406 65.84375 143.066406 65.84375 C 143.066406 65.84375 143.066406 65.347656 143.066406 65.347656 C 143.066406 65.347656 143.214844 65.695312 143.113281 65.84375 C 142.816406 66.238281 141.234375 66.289062 139.800781 66.535156 C 137.183594 66.980469 131.84375 67.820312 128.628906 67.96875 C 126.257812 68.117188 122.796875 68.363281 122.402344 67.871094 C 122.253906 67.773438 122.402344 67.375 122.402344 67.375 " clip-rule="nonzero"/></clipPath><clipPath id="48851ce936"><path d="M 83.621094 52.445312 L 84.84375 52.445312 L 84.84375 66.238281 L 83.621094 66.238281 Z M 83.621094 52.445312 " clip-rule="nonzero"/></clipPath><clipPath id="c94bd920a7"><path d="M 84.535156 52.496094 C 84.683594 66.238281 84.335938 66.140625 84.335938 66.140625 C 84.335938 66.140625 84.832031 66.089844 84.832031 66.140625 C 84.832031 66.140625 84.484375 66.289062 84.335938 66.191406 C 83.59375 65.546875 83.347656 53.386719 84.039062 52.546875 C 84.1875 52.398438 84.535156 52.496094 84.535156 52.496094 " clip-rule="nonzero"/></clipPath><clipPath id="28348c46c0"><path d="M 85.363281 52.261719 L 86.957031 52.261719 L 86.957031 69.296875 L 85.363281 69.296875 Z M 85.363281 52.261719 " clip-rule="nonzero"/></clipPath><clipPath id="b5e6f1d2fa"><path d="M 86.957031 52.347656 C 85.917969 69.355469 85.570312 69.15625 85.570312 69.15625 C 85.570312 69.207031 86.066406 69.253906 86.066406 69.253906 C 86.066406 69.253906 85.71875 69.355469 85.570312 69.207031 C 85.226562 68.808594 85.421875 66.683594 85.472656 64.855469 C 85.570312 61.789062 85.71875 53.039062 86.460938 52.347656 C 86.609375 52.199219 86.957031 52.347656 86.957031 52.347656 " clip-rule="nonzero"/></clipPath><clipPath id="9114256e1a"><path d="M 88.589844 50.671875 L 90.519531 50.671875 L 90.519531 70.101562 L 88.589844 70.101562 Z M 88.589844 50.671875 " clip-rule="nonzero"/></clipPath><clipPath id="c66583a7cb"><path d="M 90.515625 50.816406 C 89.527344 68.957031 89.574219 69.898438 89.28125 70.046875 C 89.179688 70.144531 88.933594 70.09375 88.835938 69.996094 C 88.636719 69.699219 88.984375 67.921875 89.230469 67.773438 C 89.378906 67.722656 89.675781 67.921875 89.675781 67.921875 C 89.675781 67.921875 89.230469 67.820312 89.230469 67.820312 C 89.230469 67.773438 89.625 67.773438 89.675781 67.871094 C 89.871094 68.117188 89.574219 69.796875 89.328125 69.996094 C 89.179688 70.09375 88.933594 70.144531 88.835938 69.996094 C 88.191406 69.304688 89.03125 62.480469 89.230469 59.121094 C 89.429688 56.15625 89.429688 51.210938 90.019531 50.714844 C 90.167969 50.617188 90.515625 50.816406 90.515625 50.816406 " clip-rule="nonzero"/></clipPath><clipPath id="60047036c5"><path d="M 90.660156 51.203125 L 93.09375 51.203125 L 93.09375 71.644531 L 90.660156 71.644531 Z M 90.660156 51.203125 " clip-rule="nonzero"/></clipPath><clipPath id="6c1424f2bb"><path d="M 93.085938 51.457031 C 91.703125 65.496094 92 69.453125 91.652344 70.789062 C 91.554688 71.230469 91.40625 71.628906 91.257812 71.628906 C 91.15625 71.675781 90.863281 71.332031 90.863281 71.332031 C 90.863281 71.332031 91.257812 71.628906 91.257812 71.628906 C 91.257812 71.628906 90.863281 71.480469 90.863281 71.429688 C 90.863281 71.378906 91.355469 71.429688 91.355469 71.429688 C 91.355469 71.429688 90.960938 71.578125 90.863281 71.429688 C 90.316406 70.886719 91.15625 65.597656 91.40625 62.480469 C 91.703125 59.121094 92.296875 53.4375 92.542969 51.953125 C 92.589844 51.558594 92.589844 51.261719 92.691406 51.210938 C 92.789062 51.160156 93.085938 51.457031 93.085938 51.457031 " clip-rule="nonzero"/></clipPath><clipPath id="5814bf6c7c"><path d="M 92.839844 49.769531 L 94.386719 49.769531 L 94.386719 63.941406 L 92.839844 63.941406 Z M 92.839844 49.769531 " clip-rule="nonzero"/></clipPath><clipPath id="7846381d80"><path d="M 93.535156 49.84375 C 94.226562 63.984375 93.878906 63.882812 93.878906 63.882812 C 93.878906 63.882812 94.375 63.785156 94.375 63.785156 C 94.375 63.785156 93.980469 63.984375 93.878906 63.933594 C 93.582031 63.6875 93.730469 62.351562 93.632812 61.117188 C 93.484375 58.59375 92.445312 50.535156 93.039062 49.84375 C 93.1875 49.695312 93.535156 49.84375 93.535156 49.84375 " clip-rule="nonzero"/></clipPath><clipPath id="2d12bdd924"><path d="M 94.886719 52.820312 L 97.046875 52.820312 L 97.046875 74.398438 L 94.886719 74.398438 Z M 94.886719 52.820312 " clip-rule="nonzero"/></clipPath><clipPath id="9cae3c0248"><path d="M 97.039062 52.890625 C 95.753906 73.902344 95.753906 74.296875 95.605469 74.347656 C 95.507812 74.445312 95.164062 74.148438 95.164062 74.199219 C 95.164062 74.199219 95.605469 74.394531 95.605469 74.394531 C 95.605469 74.394531 95.261719 74.394531 95.164062 74.246094 C 94.371094 72.960938 95.558594 53.832031 96.546875 52.890625 C 96.695312 52.742188 97.039062 52.890625 97.039062 52.890625 " clip-rule="nonzero"/></clipPath><clipPath id="54b2cdc3dd"><path d="M 97.195312 54.65625 L 98.542969 54.65625 L 98.542969 67.46875 L 97.195312 67.46875 Z M 97.195312 54.65625 " clip-rule="nonzero"/></clipPath><clipPath id="868d1975ee"><path d="M 98.523438 54.722656 C 98.226562 65.992188 98.328125 67.226562 98.03125 67.425781 C 97.882812 67.523438 97.535156 67.375 97.535156 67.328125 C 97.535156 67.328125 98.03125 67.375 98.03125 67.375 C 98.03125 67.375 97.683594 67.476562 97.535156 67.328125 C 96.84375 66.585938 97.335938 55.414062 98.03125 54.722656 C 98.179688 54.574219 98.523438 54.722656 98.523438 54.722656 " clip-rule="nonzero"/></clipPath><clipPath id="fcfa68734c"><path d="M 100 54.785156 L 101.242188 54.785156 L 101.242188 66.273438 L 100 66.273438 Z M 100 54.785156 " clip-rule="nonzero"/></clipPath><clipPath id="5220e302ea"><path d="M 101.242188 54.871094 C 100.699219 66.339844 100.351562 66.191406 100.351562 66.191406 C 100.351562 66.191406 100.847656 66.238281 100.847656 66.238281 C 100.847656 66.238281 100.453125 66.339844 100.351562 66.191406 C 99.710938 65.496094 100.054688 55.511719 100.75 54.871094 C 100.898438 54.722656 101.242188 54.871094 101.242188 54.871094 " clip-rule="nonzero"/></clipPath><clipPath id="a31dcec830"><path d="M 103.402344 54.820312 L 104.617188 54.820312 L 104.617188 63.410156 L 103.402344 63.410156 Z M 103.402344 54.820312 " clip-rule="nonzero"/></clipPath><clipPath id="5481f38f83"><path d="M 104.605469 54.886719 C 104.308594 62.351562 104.210938 63.242188 103.914062 63.390625 C 103.816406 63.4375 103.46875 63.292969 103.46875 63.292969 C 103.46875 63.242188 103.964844 63.292969 103.964844 63.292969 C 103.964844 63.292969 103.570312 63.390625 103.46875 63.242188 C 103.171875 62.847656 104.113281 60.078125 104.210938 58.59375 C 104.308594 57.308594 103.765625 55.183594 104.113281 54.886719 C 104.210938 54.738281 104.605469 54.886719 104.605469 54.886719 " clip-rule="nonzero"/></clipPath><clipPath id="4eec9c9b20"><path d="M 83.304688 50.28125 L 97.15625 50.28125 L 97.15625 52.042969 L 83.304688 52.042969 Z M 83.304688 50.28125 " clip-rule="nonzero"/></clipPath><clipPath id="0d02bb06ae"><path d="M 83.351562 51.277344 C 92.101562 51.230469 96.449219 49.945312 97.042969 50.386719 C 97.191406 50.488281 97.140625 50.882812 97.09375 50.882812 C 97.09375 50.882812 96.992188 50.386719 96.992188 50.386719 C 96.992188 50.386719 97.191406 50.734375 97.042969 50.882812 C 96.648438 51.425781 92.148438 51.722656 89.777344 51.820312 C 87.601562 51.96875 83.84375 52.21875 83.351562 51.773438 C 83.25 51.625 83.351562 51.277344 83.351562 51.277344 " clip-rule="nonzero"/></clipPath><clipPath id="372d06b320"><path d="M 83.53125 52.003906 L 99.78125 52.003906 L 99.78125 56.335938 L 83.53125 56.335938 Z M 83.53125 52.003906 " clip-rule="nonzero"/></clipPath><clipPath id="b76068475e"><path d="M 83.648438 55.726562 C 88.789062 55.132812 98.722656 51.527344 99.515625 52.070312 C 99.664062 52.167969 99.566406 52.5625 99.566406 52.5625 C 99.566406 52.5625 99.566406 52.070312 99.566406 52.070312 C 99.613281 52.070312 99.8125 52.316406 99.761719 52.464844 C 99.515625 52.910156 97.242188 53.304688 95.558594 53.800781 C 93.039062 54.492188 88.292969 55.777344 86.117188 56.074219 C 85.03125 56.222656 83.792969 56.46875 83.597656 56.222656 C 83.5 56.121094 83.648438 55.726562 83.648438 55.726562 " clip-rule="nonzero"/></clipPath><clipPath id="d7758a9f33"><path d="M 85.605469 55.671875 L 103.488281 55.671875 L 103.488281 59.109375 L 85.605469 59.109375 Z M 85.605469 55.671875 " clip-rule="nonzero"/></clipPath><clipPath id="1c98d2b715"><path d="M 85.921875 58.398438 C 92 58.148438 102.433594 55.183594 103.273438 55.777344 C 103.421875 55.875 103.320312 56.269531 103.371094 56.269531 C 103.371094 56.269531 103.371094 55.777344 103.371094 55.777344 C 103.421875 55.777344 103.519531 56.074219 103.421875 56.222656 C 103.171875 56.566406 101.988281 56.765625 100.800781 57.011719 C 98.28125 57.605469 91.554688 58.644531 88.984375 58.941406 C 87.800781 59.039062 86.957031 59.136719 86.316406 59.039062 C 86.019531 58.992188 85.671875 58.890625 85.625 58.742188 C 85.574219 58.644531 85.921875 58.398438 85.921875 58.398438 " clip-rule="nonzero"/></clipPath><clipPath id="a65bce7568"><path d="M 84.46875 58.558594 L 104.746094 58.558594 L 104.746094 63.359375 L 84.46875 63.359375 Z M 84.46875 58.558594 " clip-rule="nonzero"/></clipPath><clipPath id="9912873694"><path d="M 84.683594 62.847656 C 95.957031 60.96875 103.816406 58.101562 104.605469 58.644531 C 104.753906 58.742188 104.65625 59.136719 104.65625 59.136719 C 104.65625 59.136719 104.65625 58.644531 104.65625 58.644531 C 104.65625 58.644531 104.804688 58.941406 104.707031 59.136719 C 104.113281 59.980469 96.003906 61.460938 92.398438 62.203125 C 89.675781 62.746094 86.167969 63.339844 85.082031 63.339844 C 84.785156 63.339844 84.535156 63.292969 84.488281 63.191406 C 84.4375 63.144531 84.683594 62.847656 84.683594 62.847656 " clip-rule="nonzero"/></clipPath><clipPath id="06b37e3883"><path d="M 88.125 62.808594 L 108.175781 62.808594 L 108.175781 66.914062 L 88.125 66.914062 Z M 88.125 62.808594 " clip-rule="nonzero"/></clipPath><clipPath id="b9d748bd31"><path d="M 88.4375 66.191406 C 97.535156 65.546875 107.621094 62.382812 108.113281 62.925781 C 108.214844 62.976562 108.066406 63.324219 108.015625 63.324219 C 108.015625 63.324219 108.066406 62.828125 108.066406 62.828125 C 108.015625 62.828125 108.113281 63.175781 107.964844 63.324219 C 107.175781 64.210938 97.484375 65.992188 93.925781 66.488281 C 91.800781 66.78125 89.722656 66.980469 88.835938 66.832031 C 88.488281 66.78125 88.191406 66.683594 88.140625 66.585938 C 88.140625 66.488281 88.4375 66.191406 88.4375 66.191406 " clip-rule="nonzero"/></clipPath><clipPath id="b6d32d685e"><path d="M 86.960938 69.210938 L 108.054688 69.210938 L 108.054688 70.929688 L 86.960938 70.929688 Z M 86.960938 69.210938 " clip-rule="nonzero"/></clipPath><clipPath id="ade10e49c8"><path d="M 87.054688 70.144531 C 97.039062 70.09375 100.351562 69.355469 102.875 69.253906 C 104.800781 69.207031 107.519531 69.15625 107.964844 69.550781 C 108.113281 69.699219 108.015625 70.046875 108.015625 70.046875 C 108.015625 70.046875 107.964844 69.550781 107.964844 69.550781 C 107.917969 69.550781 108.066406 69.945312 107.964844 70.046875 C 107.570312 70.441406 104.800781 69.699219 102.875 69.75 C 100.402344 69.847656 97.039062 70.589844 94.273438 70.738281 C 91.75 70.835938 87.5 71.132812 87.003906 70.640625 C 86.90625 70.492188 87.054688 70.144531 87.054688 70.144531 " clip-rule="nonzero"/></clipPath><clipPath id="9d414c2495"><path d="M 116.816406 71.976562 L 132.789062 71.976562 L 132.789062 73.289062 L 116.816406 73.289062 Z M 116.816406 71.976562 " clip-rule="nonzero"/></clipPath><clipPath id="62212f52d3"><path d="M 116.914062 72.417969 C 125.515625 72.765625 132.042969 71.578125 132.683594 72.121094 C 132.78125 72.269531 132.683594 72.617188 132.683594 72.617188 C 132.683594 72.617188 132.734375 72.121094 132.734375 72.121094 C 132.734375 72.121094 132.832031 72.46875 132.734375 72.617188 C 132.089844 73.257812 125.515625 73.257812 122.648438 73.257812 C 120.472656 73.257812 117.261719 73.359375 116.863281 72.914062 C 116.765625 72.765625 116.914062 72.417969 116.914062 72.417969 " clip-rule="nonzero"/></clipPath><clipPath id="bec55e8046"><path d="M 115 50.652344 L 132.738281 50.652344 L 132.738281 54.90625 L 115 54.90625 Z M 115 50.652344 " clip-rule="nonzero"/></clipPath><clipPath id="04bf340f05"><path d="M 115.039062 54.34375 C 125.074219 51.527344 131.796875 50.289062 132.585938 50.785156 C 132.734375 50.882812 132.734375 51.277344 132.734375 51.277344 C 132.734375 51.277344 132.585938 50.785156 132.539062 50.785156 C 132.539062 50.785156 132.785156 51.128906 132.6875 51.277344 C 132.191406 51.96875 125.222656 52.019531 122.105469 52.710938 C 119.488281 53.253906 115.730469 55.183594 115.136719 54.835938 C 114.988281 54.738281 115.039062 54.34375 115.039062 54.34375 " clip-rule="nonzero"/></clipPath></defs><g clip-path="url(#f2fab0602b)"><g clip-path="url(#8bc7e52629)"><path fill="#def22c" d="M 79.738281 45.476562 L 109.152344 45.476562 L 109.152344 109.246094 L 79.738281 109.246094 Z M 79.738281 45.476562 " fill-opacity="1" fill-rule="nonzero"/></g></g><g clip-path="url(#13e7d38d8f)"><g clip-path="url(#54ac79cdce)"><path fill="#def22c" d="M 109.300781 46.464844 L 138.8125 46.464844 L 138.8125 112.292969 L 109.300781 112.292969 Z M 109.300781 46.464844 " fill-opacity="1" fill-rule="nonzero"/></g></g><g clip-path="url(#b4ffbd7e55)"><g clip-path="url(#822c68d665)"><path fill="#def22c" d="M 111.476562 51.113281 L 116.46875 51.113281 L 116.46875 70.246094 L 111.476562 70.246094 Z M 111.476562 51.113281 " fill-opacity="1" fill-rule="nonzero"/></g></g><g clip-path="url(#e3846e69a7)"><g clip-path="url(#b1e3028bf2)"><path fill="#def22c" d="M 113.453125 49.628906 L 119.878906 49.628906 L 119.878906 75.035156 L 113.453125 75.035156 Z M 113.453125 49.628906 " fill-opacity="1" fill-rule="nonzero"/></g></g><g clip-path="url(#e76347844b)"><g clip-path="url(#0bea2672d8)"><path fill="#def22c" d="M 116.417969 49.035156 L 124.082031 49.035156 L 124.082031 74.6875 L 116.417969 74.6875 Z M 116.417969 49.035156 " fill-opacity="1" fill-rule="nonzero"/></g></g><g clip-path="url(#4c03ef5884)"><g clip-path="url(#741de5214b)"><path fill="#def22c" d="M 119.039062 50.371094 L 125.863281 50.371094 L 125.863281 76.273438 L 119.039062 76.273438 Z M 119.039062 50.371094 " fill-opacity="1" fill-rule="nonzero"/></g></g><g clip-path="url(#ba76bbc86a)"><g clip-path="url(#670b4c1a0b)"><path fill="#def22c" d="M 122.648438 49.480469 L 129.46875 49.480469 L 129.46875 72.90625 L 122.648438 72.90625 Z M 122.648438 49.480469 " fill-opacity="1" fill-rule="nonzero"/></g></g><g clip-path="url(#9cf8a61475)"><g clip-path="url(#b5cf8d6455)"><path fill="#def22c" d="M 125.761719 51.457031 L 132.1875 51.457031 L 132.1875 75.433594 L 125.761719 75.433594 Z M 125.761719 51.457031 " fill-opacity="1" fill-rule="nonzero"/></g></g><g clip-path="url(#8d13be2e74)"><g clip-path="url(#76d675526d)"><path fill="#def22c" d="M 129.867188 55.660156 L 134.464844 55.660156 L 134.464844 73.0625 L 129.867188 73.0625 Z M 129.867188 55.660156 " fill-opacity="1" fill-rule="nonzero"/></g></g><g clip-path="url(#4b5669ec2b)"><g clip-path="url(#07efd316b8)"><path fill="#def22c" d="M 113.109375 47.027344 L 136.644531 47.027344 L 136.644531 54.292969 L 113.109375 54.292969 Z M 113.109375 47.027344 " fill-opacity="1" fill-rule="nonzero"/></g></g><g clip-path="url(#d8e4bf33d2)"><g clip-path="url(#261d4bdbcd)"><path fill="#def22c" d="M 113.703125 50.636719 L 138.40625 50.636719 L 138.40625 58.992188 L 113.703125 58.992188 Z M 113.703125 50.636719 " fill-opacity="1" fill-rule="nonzero"/></g></g><g clip-path="url(#4fedbdd589)"><g clip-path="url(#f45cbe95f8)"><path fill="#def22c" d="M 113.605469 53.601562 L 141.722656 53.601562 L 141.722656 61.511719 L 113.605469 61.511719 Z M 113.605469 53.601562 " fill-opacity="1" fill-rule="nonzero"/></g></g><g clip-path="url(#b21474a8da)"><g clip-path="url(#9964385bc1)"><path fill="#def22c" d="M 114.148438 58.050781 L 134.074219 58.050781 L 134.074219 65.316406 L 114.148438 65.316406 Z M 114.148438 58.050781 " fill-opacity="1" fill-rule="nonzero"/></g></g><g clip-path="url(#ec6fd3daf5)"><g clip-path="url(#6ed5f329b9)"><path fill="#def22c" d="M 113.652344 60.058594 L 143.425781 60.058594 L 143.425781 68.464844 L 113.652344 68.464844 Z M 113.652344 60.058594 " fill-opacity="1" fill-rule="nonzero"/></g></g><g clip-path="url(#90e3be5f0f)"><g clip-path="url(#863bec51e5)"><path fill="#def22c" d="M 120.421875 63.371094 L 145.132812 63.371094 L 145.132812 69.945312 L 120.421875 69.945312 Z M 120.421875 63.371094 " fill-opacity="1" fill-rule="nonzero"/></g></g><g clip-path="url(#48851ce936)"><g clip-path="url(#c94bd920a7)"><path fill="#def22c" d="M 82.0625 50.519531 L 86.808594 50.519531 L 86.808594 68.167969 L 82.0625 68.167969 Z M 82.0625 50.519531 " fill-opacity="1" fill-rule="nonzero"/></g></g><g clip-path="url(#28348c46c0)"><g clip-path="url(#b5e6f1d2fa)"><path fill="#def22c" d="M 83.496094 50.371094 L 88.933594 50.371094 L 88.933594 71.273438 L 83.496094 71.273438 Z M 83.496094 50.371094 " fill-opacity="1" fill-rule="nonzero"/></g></g><g clip-path="url(#9114256e1a)"><g clip-path="url(#c66583a7cb)"><path fill="#def22c" d="M 86.855469 48.738281 L 92.542969 48.738281 L 92.542969 72.011719 L 86.855469 72.011719 Z M 86.855469 48.738281 " fill-opacity="1" fill-rule="nonzero"/></g></g><g clip-path="url(#60047036c5)"><g clip-path="url(#6c1424f2bb)"><path fill="#def22c" d="M 88.882812 49.234375 L 95.113281 49.234375 L 95.113281 73.613281 L 88.882812 73.613281 Z M 88.882812 49.234375 " fill-opacity="1" fill-rule="nonzero"/></g></g><g clip-path="url(#5814bf6c7c)"><g clip-path="url(#7846381d80)"><path fill="#def22c" d="M 91.0625 47.867188 L 96.351562 47.867188 L 96.351562 65.90625 L 91.0625 65.90625 Z M 91.0625 47.867188 " fill-opacity="1" fill-rule="nonzero"/></g></g><g clip-path="url(#2d12bdd924)"><g clip-path="url(#9cae3c0248)"><path fill="#def22c" d="M 93.183594 50.914062 L 99.066406 50.914062 L 99.066406 76.375 L 93.183594 76.375 Z M 93.183594 50.914062 " fill-opacity="1" fill-rule="nonzero"/></g></g><g clip-path="url(#54b2cdc3dd)"><g clip-path="url(#868d1975ee)"><path fill="#def22c" d="M 95.558594 52.742188 L 100.550781 52.742188 L 100.550781 69.457031 L 95.558594 69.457031 Z M 95.558594 52.742188 " fill-opacity="1" fill-rule="nonzero"/></g></g><g clip-path="url(#fcfa68734c)"><g clip-path="url(#5220e302ea)"><path fill="#def22c" d="M 98.375 52.890625 L 103.269531 52.890625 L 103.269531 68.222656 L 98.375 68.222656 Z M 98.375 52.890625 " fill-opacity="1" fill-rule="nonzero"/></g></g><g clip-path="url(#a31dcec830)"><g clip-path="url(#5481f38f83)"><path fill="#def22c" d="M 101.492188 52.910156 L 106.585938 52.910156 L 106.585938 65.421875 L 101.492188 65.421875 Z M 101.492188 52.910156 " fill-opacity="1" fill-rule="nonzero"/></g></g><g clip-path="url(#4eec9c9b20)"><g clip-path="url(#0d02bb06ae)"><path fill="#def22c" d="M 81.371094 48.410156 L 99.109375 48.410156 L 99.109375 53.847656 L 81.371094 53.847656 Z M 81.371094 48.410156 " fill-opacity="1" fill-rule="nonzero"/></g></g><g clip-path="url(#372d06b320)"><g clip-path="url(#b76068475e)"><path fill="#def22c" d="M 81.621094 50.09375 L 101.789062 50.09375 L 101.789062 58.25 L 81.621094 58.25 Z M 81.621094 50.09375 " fill-opacity="1" fill-rule="nonzero"/></g></g><g clip-path="url(#d7758a9f33)"><g clip-path="url(#1c98d2b715)"><path fill="#def22c" d="M 83.648438 53.800781 L 105.449219 53.800781 L 105.449219 61.066406 L 83.648438 61.066406 Z M 83.648438 53.800781 " fill-opacity="1" fill-rule="nonzero"/></g></g><g clip-path="url(#a65bce7568)"><g clip-path="url(#9912873694)"><path fill="#def22c" d="M 82.507812 56.667969 L 106.671875 56.667969 L 106.671875 65.316406 L 82.507812 65.316406 Z M 82.507812 56.667969 " fill-opacity="1" fill-rule="nonzero"/></g></g><g clip-path="url(#06b37e3883)"><g clip-path="url(#b9d748bd31)"><path fill="#def22c" d="M 86.164062 60.851562 L 110.105469 60.851562 L 110.105469 68.808594 L 86.164062 68.808594 Z M 86.164062 60.851562 " fill-opacity="1" fill-rule="nonzero"/></g></g><g clip-path="url(#b6d32d685e)"><g clip-path="url(#ade10e49c8)"><path fill="#def22c" d="M 85.027344 67.277344 L 109.988281 67.277344 L 109.988281 72.714844 L 85.027344 72.714844 Z M 85.027344 67.277344 " fill-opacity="1" fill-rule="nonzero"/></g></g><g clip-path="url(#9d414c2495)"><g clip-path="url(#62212f52d3)"><path fill="#def22c" d="M 114.886719 70.144531 L 134.71875 70.144531 L 134.71875 75.238281 L 114.886719 75.238281 Z M 114.886719 70.144531 " fill-opacity="1" fill-rule="nonzero"/></g></g><g clip-path="url(#bec55e8046)"><g clip-path="url(#04bf340f05)"><path fill="#def22c" d="M 113.0625 48.804688 L 134.707031 48.804688 L 134.707031 56.816406 L 113.0625 56.816406 Z M 113.0625 48.804688 " fill-opacity="1" fill-rule="nonzero"/></g></g><g fill="#def22c" fill-opacity="1"><g transform="translate(29.8935, 138.90364)"><g><path d="M 5.78125 0.125 C 5.09375 0.125 4.445312 -0.00390625 3.84375 -0.265625 C 3.25 -0.523438 2.722656 -0.882812 2.265625 -1.34375 C 1.804688 -1.800781 1.445312 -2.328125 1.1875 -2.921875 C 0.925781 -3.523438 0.796875 -4.171875 0.796875 -4.859375 C 0.796875 -5.554688 0.925781 -6.203125 1.1875 -6.796875 C 1.445312 -7.398438 1.804688 -7.929688 2.265625 -8.390625 C 2.722656 -8.847656 3.25 -9.207031 3.84375 -9.46875 C 4.445312 -9.726562 5.09375 -9.859375 5.78125 -9.859375 C 6.71875 -9.859375 7.566406 -9.625 8.328125 -9.15625 C 9.097656 -8.695312 9.695312 -8.085938 10.125 -7.328125 L 9.234375 -6.828125 C 8.898438 -7.429688 8.425781 -7.910156 7.8125 -8.265625 C 7.207031 -8.628906 6.53125 -8.8125 5.78125 -8.8125 C 5.0625 -8.8125 4.398438 -8.632812 3.796875 -8.28125 C 3.203125 -7.9375 2.722656 -7.460938 2.359375 -6.859375 C 2.003906 -6.265625 1.828125 -5.597656 1.828125 -4.859375 C 1.828125 -4.128906 2.003906 -3.460938 2.359375 -2.859375 C 2.722656 -2.265625 3.203125 -1.789062 3.796875 -1.4375 C 4.398438 -1.082031 5.0625 -0.90625 5.78125 -0.90625 C 6.53125 -0.90625 7.207031 -1.085938 7.8125 -1.453125 C 8.425781 -1.828125 8.898438 -2.3125 9.234375 -2.90625 L 10.125 -2.40625 C 9.695312 -1.644531 9.097656 -1.03125 8.328125 -0.5625 C 7.566406 -0.101562 6.71875 0.125 5.78125 0.125 Z M 5.78125 0.125 "/></g></g></g><g fill="#def22c" fill-opacity="1"><g transform="translate(40.821175, 138.90364)"><g><path d="M 4.09375 0.125 C 3.476562 0.125 2.914062 -0.0234375 2.40625 -0.328125 C 1.894531 -0.628906 1.488281 -1.035156 1.1875 -1.546875 C 0.882812 -2.054688 0.734375 -2.625 0.734375 -3.25 C 0.734375 -3.875 0.882812 -4.4375 1.1875 -4.9375 C 1.488281 -5.445312 1.894531 -5.851562 2.40625 -6.15625 C 2.914062 -6.457031 3.476562 -6.609375 4.09375 -6.609375 C 4.726562 -6.609375 5.296875 -6.457031 5.796875 -6.15625 C 6.304688 -5.851562 6.710938 -5.445312 7.015625 -4.9375 C 7.316406 -4.4375 7.46875 -3.875 7.46875 -3.25 C 7.46875 -2.625 7.316406 -2.054688 7.015625 -1.546875 C 6.710938 -1.035156 6.304688 -0.628906 5.796875 -0.328125 C 5.296875 -0.0234375 4.726562 0.125 4.09375 0.125 Z M 4.09375 -0.875 C 4.53125 -0.875 4.925781 -0.976562 5.28125 -1.1875 C 5.632812 -1.394531 5.921875 -1.679688 6.140625 -2.046875 C 6.359375 -2.410156 6.46875 -2.8125 6.46875 -3.25 C 6.46875 -3.6875 6.359375 -4.082031 6.140625 -4.4375 C 5.921875 -4.800781 5.632812 -5.085938 5.28125 -5.296875 C 4.925781 -5.503906 4.53125 -5.609375 4.09375 -5.609375 C 3.664062 -5.609375 3.269531 -5.503906 2.90625 -5.296875 C 2.539062 -5.085938 2.253906 -4.800781 2.046875 -4.4375 C 1.835938 -4.082031 1.734375 -3.6875 1.734375 -3.25 C 1.734375 -2.8125 1.835938 -2.410156 2.046875 -2.046875 C 2.253906 -1.679688 2.539062 -1.394531 2.90625 -1.1875 C 3.269531 -0.976562 3.664062 -0.875 4.09375 -0.875 Z M 4.09375 -0.875 "/></g></g></g><g fill="#def22c" fill-opacity="1"><g transform="translate(49.28447, 138.90364)"><g><path d="M 1.1875 0 L 1.1875 -11.9375 L 2.1875 -11.9375 L 2.1875 0 Z M 1.1875 0 "/></g></g></g><g fill="#def22c" fill-opacity="1"><g transform="translate(52.916271, 138.90364)"><g><path d="M 1.1875 0 L 1.1875 -11.9375 L 2.1875 -11.9375 L 2.1875 0 Z M 1.1875 0 "/></g></g></g><g fill="#def22c" fill-opacity="1"><g transform="translate(56.548071, 138.90364)"><g><path d="M 8.140625 -0.84375 L 8.546875 -0.84375 L 8.546875 0 C 8.398438 0.0820312 8.238281 0.125 8.0625 0.125 C 7.675781 0.125 7.359375 0.0234375 7.109375 -0.171875 C 6.859375 -0.378906 6.675781 -0.648438 6.5625 -0.984375 C 6.257812 -0.648438 5.894531 -0.378906 5.46875 -0.171875 C 5.039062 0.0234375 4.582031 0.125 4.09375 0.125 C 3.476562 0.125 2.914062 -0.0234375 2.40625 -0.328125 C 1.894531 -0.628906 1.488281 -1.035156 1.1875 -1.546875 C 0.882812 -2.054688 0.734375 -2.625 0.734375 -3.25 C 0.734375 -3.875 0.882812 -4.4375 1.1875 -4.9375 C 1.488281 -5.445312 1.894531 -5.851562 2.40625 -6.15625 C 2.914062 -6.457031 3.476562 -6.609375 4.09375 -6.609375 C 4.5625 -6.609375 5 -6.519531 5.40625 -6.34375 C 5.8125 -6.175781 6.164062 -5.941406 6.46875 -5.640625 L 6.46875 -6.484375 L 7.46875 -6.484375 L 7.46875 -1.6875 C 7.46875 -1.382812 7.535156 -1.164062 7.671875 -1.03125 C 7.804688 -0.90625 7.960938 -0.84375 8.140625 -0.84375 Z M 4.09375 -0.875 C 4.53125 -0.875 4.925781 -0.976562 5.28125 -1.1875 C 5.632812 -1.394531 5.921875 -1.679688 6.140625 -2.046875 C 6.359375 -2.410156 6.46875 -2.8125 6.46875 -3.25 C 6.46875 -3.6875 6.359375 -4.082031 6.140625 -4.4375 C 5.921875 -4.800781 5.632812 -5.085938 5.28125 -5.296875 C 4.925781 -5.503906 4.53125 -5.609375 4.09375 -5.609375 C 3.664062 -5.609375 3.269531 -5.503906 2.90625 -5.296875 C 2.539062 -5.085938 2.253906 -4.800781 2.046875 -4.4375 C 1.835938 -4.082031 1.734375 -3.6875 1.734375 -3.25 C 1.734375 -2.8125 1.835938 -2.410156 2.046875 -2.046875 C 2.253906 -1.679688 2.539062 -1.394531 2.90625 -1.1875 C 3.269531 -0.976562 3.664062 -0.875 4.09375 -0.875 Z M 4.09375 -0.875 "/></g></g></g><g fill="#def22c" fill-opacity="1"><g transform="translate(65.546396, 138.90364)"><g><path d="M 4.5625 -6.609375 C 5.1875 -6.609375 5.75 -6.457031 6.25 -6.15625 C 6.757812 -5.851562 7.164062 -5.445312 7.46875 -4.9375 C 7.769531 -4.4375 7.921875 -3.875 7.921875 -3.25 C 7.921875 -2.625 7.769531 -2.054688 7.46875 -1.546875 C 7.164062 -1.035156 6.757812 -0.628906 6.25 -0.328125 C 5.75 -0.0234375 5.1875 0.125 4.5625 0.125 C 4.09375 0.125 3.65625 0.0390625 3.25 -0.125 C 2.851562 -0.300781 2.5 -0.539062 2.1875 -0.84375 L 2.1875 0 L 1.1875 0 L 1.1875 -11.9375 L 2.1875 -11.9375 L 2.1875 -5.640625 C 2.5 -5.941406 2.851562 -6.175781 3.25 -6.34375 C 3.65625 -6.519531 4.09375 -6.609375 4.5625 -6.609375 Z M 4.5625 -0.875 C 5 -0.875 5.394531 -0.976562 5.75 -1.1875 C 6.113281 -1.394531 6.398438 -1.679688 6.609375 -2.046875 C 6.816406 -2.410156 6.921875 -2.8125 6.921875 -3.25 C 6.921875 -3.6875 6.816406 -4.082031 6.609375 -4.4375 C 6.398438 -4.800781 6.113281 -5.085938 5.75 -5.296875 C 5.394531 -5.503906 5 -5.609375 4.5625 -5.609375 C 4.125 -5.609375 3.722656 -5.503906 3.359375 -5.296875 C 3.003906 -5.085938 2.71875 -4.800781 2.5 -4.4375 C 2.289062 -4.082031 2.1875 -3.6875 2.1875 -3.25 C 2.1875 -2.8125 2.289062 -2.410156 2.5 -2.046875 C 2.71875 -1.679688 3.003906 -1.394531 3.359375 -1.1875 C 3.722656 -0.976562 4.125 -0.875 4.5625 -0.875 Z M 4.5625 -0.875 "/></g></g></g><g fill="#def22c" fill-opacity="1"><g transform="translate(74.46365, 138.90364)"><g><path d="M 4.09375 0.125 C 3.476562 0.125 2.914062 -0.0234375 2.40625 -0.328125 C 1.894531 -0.628906 1.488281 -1.035156 1.1875 -1.546875 C 0.882812 -2.054688 0.734375 -2.625 0.734375 -3.25 C 0.734375 -3.875 0.882812 -4.4375 1.1875 -4.9375 C 1.488281 -5.445312 1.894531 -5.851562 2.40625 -6.15625 C 2.914062 -6.457031 3.476562 -6.609375 4.09375 -6.609375 C 4.726562 -6.609375 5.296875 -6.457031 5.796875 -6.15625 C 6.304688 -5.851562 6.710938 -5.445312 7.015625 -4.9375 C 7.316406 -4.4375 7.46875 -3.875 7.46875 -3.25 C 7.46875 -2.625 7.316406 -2.054688 7.015625 -1.546875 C 6.710938 -1.035156 6.304688 -0.628906 5.796875 -0.328125 C 5.296875 -0.0234375 4.726562 0.125 4.09375 0.125 Z M 4.09375 -0.875 C 4.53125 -0.875 4.925781 -0.976562 5.28125 -1.1875 C 5.632812 -1.394531 5.921875 -1.679688 6.140625 -2.046875 C 6.359375 -2.410156 6.46875 -2.8125 6.46875 -3.25 C 6.46875 -3.6875 6.359375 -4.082031 6.140625 -4.4375 C 5.921875 -4.800781 5.632812 -5.085938 5.28125 -5.296875 C 4.925781 -5.503906 4.53125 -5.609375 4.09375 -5.609375 C 3.664062 -5.609375 3.269531 -5.503906 2.90625 -5.296875 C 2.539062 -5.085938 2.253906 -4.800781 2.046875 -4.4375 C 1.835938 -4.082031 1.734375 -3.6875 1.734375 -3.25 C 1.734375 -2.8125 1.835938 -2.410156 2.046875 -2.046875 C 2.253906 -1.679688 2.539062 -1.394531 2.90625 -1.1875 C 3.269531 -0.976562 3.664062 -0.875 4.09375 -0.875 Z M 4.09375 -0.875 "/></g></g></g><g fill="#def22c" fill-opacity="1"><g transform="translate(82.926944, 138.90364)"><g><path d="M 4.34375 -6.609375 C 4.539062 -6.609375 4.707031 -6.59375 4.84375 -6.5625 L 4.84375 -5.546875 C 4.71875 -5.585938 4.550781 -5.609375 4.34375 -5.609375 C 3.957031 -5.609375 3.597656 -5.515625 3.265625 -5.328125 C 2.929688 -5.148438 2.664062 -4.90625 2.46875 -4.59375 C 2.28125 -4.28125 2.1875 -3.921875 2.1875 -3.515625 L 2.1875 0 L 1.1875 0 L 1.1875 -6.484375 L 2.1875 -6.484375 L 2.1875 -5.5625 C 2.4375 -5.882812 2.738281 -6.140625 3.09375 -6.328125 C 3.457031 -6.515625 3.875 -6.609375 4.34375 -6.609375 Z M 4.34375 -6.609375 "/></g></g></g><g fill="#def22c" fill-opacity="1"><g transform="translate(88.115202, 138.90364)"><g><path d="M 8.140625 -0.84375 L 8.546875 -0.84375 L 8.546875 0 C 8.398438 0.0820312 8.238281 0.125 8.0625 0.125 C 7.675781 0.125 7.359375 0.0234375 7.109375 -0.171875 C 6.859375 -0.378906 6.675781 -0.648438 6.5625 -0.984375 C 6.257812 -0.648438 5.894531 -0.378906 5.46875 -0.171875 C 5.039062 0.0234375 4.582031 0.125 4.09375 0.125 C 3.476562 0.125 2.914062 -0.0234375 2.40625 -0.328125 C 1.894531 -0.628906 1.488281 -1.035156 1.1875 -1.546875 C 0.882812 -2.054688 0.734375 -2.625 0.734375 -3.25 C 0.734375 -3.875 0.882812 -4.4375 1.1875 -4.9375 C 1.488281 -5.445312 1.894531 -5.851562 2.40625 -6.15625 C 2.914062 -6.457031 3.476562 -6.609375 4.09375 -6.609375 C 4.5625 -6.609375 5 -6.519531 5.40625 -6.34375 C 5.8125 -6.175781 6.164062 -5.941406 6.46875 -5.640625 L 6.46875 -6.484375 L 7.46875 -6.484375 L 7.46875 -1.6875 C 7.46875 -1.382812 7.535156 -1.164062 7.671875 -1.03125 C 7.804688 -0.90625 7.960938 -0.84375 8.140625 -0.84375 Z M 4.09375 -0.875 C 4.53125 -0.875 4.925781 -0.976562 5.28125 -1.1875 C 5.632812 -1.394531 5.921875 -1.679688 6.140625 -2.046875 C 6.359375 -2.410156 6.46875 -2.8125 6.46875 -3.25 C 6.46875 -3.6875 6.359375 -4.082031 6.140625 -4.4375 C 5.921875 -4.800781 5.632812 -5.085938 5.28125 -5.296875 C 4.925781 -5.503906 4.53125 -5.609375 4.09375 -5.609375 C 3.664062 -5.609375 3.269531 -5.503906 2.90625 -5.296875 C 2.539062 -5.085938 2.253906 -4.800781 2.046875 -4.4375 C 1.835938 -4.082031 1.734375 -3.6875 1.734375 -3.25 C 1.734375 -2.8125 1.835938 -2.410156 2.046875 -2.046875 C 2.253906 -1.679688 2.539062 -1.394531 2.90625 -1.1875 C 3.269531 -0.976562 3.664062 -0.875 4.09375 -0.875 Z M 4.09375 -0.875 "/></g></g></g><g fill="#def22c" fill-opacity="1"><g transform="translate(97.113526, 138.90364)"><g><path d="M 4.171875 -5.515625 L 2.4375 -5.515625 L 2.4375 -1.828125 C 2.4375 -1.523438 2.53125 -1.285156 2.71875 -1.109375 C 2.914062 -0.929688 3.144531 -0.84375 3.40625 -0.84375 L 4.15625 -0.84375 L 4.15625 -0.078125 C 4.0625 -0.0234375 3.929688 0.0195312 3.765625 0.0625 C 3.609375 0.101562 3.453125 0.125 3.296875 0.125 C 2.953125 0.125 2.640625 0.046875 2.359375 -0.109375 C 2.085938 -0.273438 1.863281 -0.5 1.6875 -0.78125 C 1.507812 -1.0625 1.421875 -1.367188 1.421875 -1.703125 L 1.421875 -5.515625 L 0.34375 -5.515625 L 0.34375 -6.484375 L 1.421875 -6.484375 L 1.421875 -9.3125 L 2.4375 -9.3125 L 2.4375 -6.484375 L 4.171875 -6.484375 Z M 4.171875 -5.515625 "/></g></g></g><g fill="#def22c" fill-opacity="1"><g transform="translate(102.074804, 138.90364)"><g><path d="M 1.8125 -7.703125 C 1.625 -7.703125 1.457031 -7.769531 1.3125 -7.90625 C 1.175781 -8.039062 1.109375 -8.195312 1.109375 -8.375 C 1.109375 -8.582031 1.175781 -8.75 1.3125 -8.875 C 1.457031 -9.007812 1.625 -9.078125 1.8125 -9.078125 C 2 -9.078125 2.160156 -9.007812 2.296875 -8.875 C 2.441406 -8.75 2.515625 -8.582031 2.515625 -8.375 C 2.515625 -8.195312 2.441406 -8.039062 2.296875 -7.90625 C 2.160156 -7.769531 2 -7.703125 1.8125 -7.703125 Z M 1.3125 0 L 1.3125 -6.484375 L 2.3125 -6.484375 L 2.3125 0 Z M 1.3125 0 "/></g></g></g><g fill="#def22c" fill-opacity="1"><g transform="translate(105.949802, 138.90364)"><g><path d="M 4.09375 0.125 C 3.476562 0.125 2.914062 -0.0234375 2.40625 -0.328125 C 1.894531 -0.628906 1.488281 -1.035156 1.1875 -1.546875 C 0.882812 -2.054688 0.734375 -2.625 0.734375 -3.25 C 0.734375 -3.875 0.882812 -4.4375 1.1875 -4.9375 C 1.488281 -5.445312 1.894531 -5.851562 2.40625 -6.15625 C 2.914062 -6.457031 3.476562 -6.609375 4.09375 -6.609375 C 4.726562 -6.609375 5.296875 -6.457031 5.796875 -6.15625 C 6.304688 -5.851562 6.710938 -5.445312 7.015625 -4.9375 C 7.316406 -4.4375 7.46875 -3.875 7.46875 -3.25 C 7.46875 -2.625 7.316406 -2.054688 7.015625 -1.546875 C 6.710938 -1.035156 6.304688 -0.628906 5.796875 -0.328125 C 5.296875 -0.0234375 4.726562 0.125 4.09375 0.125 Z M 4.09375 -0.875 C 4.53125 -0.875 4.925781 -0.976562 5.28125 -1.1875 C 5.632812 -1.394531 5.921875 -1.679688 6.140625 -2.046875 C 6.359375 -2.410156 6.46875 -2.8125 6.46875 -3.25 C 6.46875 -3.6875 6.359375 -4.082031 6.140625 -4.4375 C 5.921875 -4.800781 5.632812 -5.085938 5.28125 -5.296875 C 4.925781 -5.503906 4.53125 -5.609375 4.09375 -5.609375 C 3.664062 -5.609375 3.269531 -5.503906 2.90625 -5.296875 C 2.539062 -5.085938 2.253906 -4.800781 2.046875 -4.4375 C 1.835938 -4.082031 1.734375 -3.6875 1.734375 -3.25 C 1.734375 -2.8125 1.835938 -2.410156 2.046875 -2.046875 C 2.253906 -1.679688 2.539062 -1.394531 2.90625 -1.1875 C 3.269531 -0.976562 3.664062 -0.875 4.09375 -0.875 Z M 4.09375 -0.875 "/></g></g></g><g fill="#def22c" fill-opacity="1"><g transform="translate(114.413095, 138.90364)"><g><path d="M 3.765625 -6.609375 C 4.179688 -6.609375 4.570312 -6.5 4.9375 -6.28125 C 5.300781 -6.0625 5.59375 -5.765625 5.8125 -5.390625 C 6.039062 -5.015625 6.15625 -4.597656 6.15625 -4.140625 L 6.15625 0 L 5.15625 0 L 5.15625 -4.140625 C 5.15625 -4.546875 5.007812 -4.890625 4.71875 -5.171875 C 4.4375 -5.460938 4.09375 -5.609375 3.6875 -5.609375 C 3.269531 -5.609375 2.914062 -5.460938 2.625 -5.171875 C 2.332031 -4.890625 2.1875 -4.546875 2.1875 -4.140625 L 2.1875 0 L 1.1875 0 L 1.1875 -6.484375 L 2.1875 -6.484375 L 2.1875 -5.96875 C 2.40625 -6.175781 2.644531 -6.332031 2.90625 -6.4375 C 3.175781 -6.550781 3.460938 -6.609375 3.765625 -6.609375 Z M 3.765625 -6.609375 "/></g></g></g><g fill="#def22c" fill-opacity="1"><g transform="translate(121.936031, 138.90364)"><g><path d="M 2.015625 -5.21875 C 1.828125 -5.21875 1.660156 -5.285156 1.515625 -5.421875 C 1.378906 -5.554688 1.3125 -5.722656 1.3125 -5.921875 C 1.3125 -6.097656 1.378906 -6.253906 1.515625 -6.390625 C 1.660156 -6.535156 1.828125 -6.609375 2.015625 -6.609375 C 2.203125 -6.609375 2.363281 -6.535156 2.5 -6.390625 C 2.644531 -6.253906 2.71875 -6.097656 2.71875 -5.921875 C 2.71875 -5.722656 2.644531 -5.554688 2.5 -5.421875 C 2.363281 -5.285156 2.203125 -5.21875 2.015625 -5.21875 Z M 2.015625 0.125 C 1.828125 0.125 1.660156 0.0546875 1.515625 -0.078125 C 1.378906 -0.210938 1.3125 -0.375 1.3125 -0.5625 C 1.3125 -0.75 1.378906 -0.910156 1.515625 -1.046875 C 1.660156 -1.191406 1.828125 -1.265625 2.015625 -1.265625 C 2.203125 -1.265625 2.363281 -1.191406 2.5 -1.046875 C 2.644531 -0.910156 2.71875 -0.75 2.71875 -0.5625 C 2.71875 -0.375 2.644531 -0.210938 2.5 -0.078125 C 2.363281 0.0546875 2.203125 0.125 2.015625 0.125 Z M 2.015625 0.125 "/></g></g></g><g fill="#def22c" fill-opacity="1"><g transform="translate(29.8935, 156.868171)"><g><path d="M 5.984375 -4.921875 C 6.492188 -4.753906 6.910156 -4.46875 7.234375 -4.0625 C 7.554688 -3.65625 7.71875 -3.15625 7.71875 -2.5625 C 7.71875 -2.0625 7.597656 -1.617188 7.359375 -1.234375 C 7.117188 -0.847656 6.796875 -0.546875 6.390625 -0.328125 C 5.992188 -0.109375 5.550781 0 5.0625 0 L 1.1875 0 L 1.1875 -9.734375 L 4.71875 -9.734375 C 5.21875 -9.734375 5.664062 -9.617188 6.0625 -9.390625 C 6.46875 -9.171875 6.789062 -8.863281 7.03125 -8.46875 C 7.28125 -8.082031 7.40625 -7.640625 7.40625 -7.140625 C 7.40625 -6.617188 7.273438 -6.164062 7.015625 -5.78125 C 6.753906 -5.40625 6.410156 -5.117188 5.984375 -4.921875 Z M 6.375 -7.046875 C 6.375 -7.523438 6.195312 -7.914062 5.84375 -8.21875 C 5.5 -8.53125 5.085938 -8.6875 4.609375 -8.6875 L 2.203125 -8.6875 L 2.203125 -5.359375 L 4.609375 -5.359375 C 5.085938 -5.359375 5.5 -5.519531 5.84375 -5.84375 C 6.195312 -6.175781 6.375 -6.578125 6.375 -7.046875 Z M 4.921875 -1.03125 C 5.398438 -1.03125 5.8125 -1.1875 6.15625 -1.5 C 6.5 -1.8125 6.671875 -2.203125 6.671875 -2.671875 C 6.671875 -3.148438 6.5 -3.550781 6.15625 -3.875 C 5.8125 -4.195312 5.398438 -4.359375 4.921875 -4.359375 L 2.203125 -4.359375 L 2.203125 -1.03125 Z M 4.921875 -1.03125 "/></g></g></g><g fill="#def22c" fill-opacity="1"><g transform="translate(38.63242, 156.868171)"><g><path d="M 3.40625 0.125 C 2.675781 0.125 2.085938 -0.09375 1.640625 -0.53125 C 1.191406 -0.976562 0.96875 -1.578125 0.96875 -2.328125 L 0.96875 -6.484375 L 1.96875 -6.484375 L 1.96875 -2.453125 C 1.96875 -1.960938 2.101562 -1.578125 2.375 -1.296875 C 2.644531 -1.015625 2.988281 -0.875 3.40625 -0.875 C 3.820312 -0.875 4.164062 -1.015625 4.4375 -1.296875 C 4.707031 -1.578125 4.84375 -1.960938 4.84375 -2.453125 L 4.84375 -6.484375 L 5.84375 -6.484375 L 5.84375 -2.328125 C 5.84375 -1.578125 5.613281 -0.976562 5.15625 -0.53125 C 4.707031 -0.09375 4.125 0.125 3.40625 0.125 Z M 3.40625 0.125 "/></g></g></g><g fill="#def22c" fill-opacity="1"><g transform="translate(45.685177, 156.868171)"><g><path d="M 1.8125 -7.703125 C 1.625 -7.703125 1.457031 -7.769531 1.3125 -7.90625 C 1.175781 -8.039062 1.109375 -8.195312 1.109375 -8.375 C 1.109375 -8.582031 1.175781 -8.75 1.3125 -8.875 C 1.457031 -9.007812 1.625 -9.078125 1.8125 -9.078125 C 2 -9.078125 2.160156 -9.007812 2.296875 -8.875 C 2.441406 -8.75 2.515625 -8.582031 2.515625 -8.375 C 2.515625 -8.195312 2.441406 -8.039062 2.296875 -7.90625 C 2.160156 -7.769531 2 -7.703125 1.8125 -7.703125 Z M 1.3125 0 L 1.3125 -6.484375 L 2.3125 -6.484375 L 2.3125 0 Z M 1.3125 0 "/></g></g></g><g fill="#def22c" fill-opacity="1"><g transform="translate(49.560176, 156.868171)"><g><path d="M 1.1875 0 L 1.1875 -11.9375 L 2.1875 -11.9375 L 2.1875 0 Z M 1.1875 0 "/></g></g></g><g fill="#def22c" fill-opacity="1"><g transform="translate(53.191977, 156.868171)"><g><path d="M 6.46875 -11.9375 L 7.46875 -11.9375 L 7.46875 0 L 6.46875 0 L 6.46875 -0.84375 C 6.164062 -0.539062 5.8125 -0.300781 5.40625 -0.125 C 5 0.0390625 4.5625 0.125 4.09375 0.125 C 3.476562 0.125 2.914062 -0.0234375 2.40625 -0.328125 C 1.894531 -0.628906 1.488281 -1.035156 1.1875 -1.546875 C 0.882812 -2.054688 0.734375 -2.625 0.734375 -3.25 C 0.734375 -3.875 0.882812 -4.4375 1.1875 -4.9375 C 1.488281 -5.445312 1.894531 -5.851562 2.40625 -6.15625 C 2.914062 -6.457031 3.476562 -6.609375 4.09375 -6.609375 C 4.5625 -6.609375 5 -6.519531 5.40625 -6.34375 C 5.8125 -6.175781 6.164062 -5.941406 6.46875 -5.640625 Z M 4.09375 -0.875 C 4.53125 -0.875 4.925781 -0.976562 5.28125 -1.1875 C 5.632812 -1.394531 5.921875 -1.679688 6.140625 -2.046875 C 6.359375 -2.410156 6.46875 -2.8125 6.46875 -3.25 C 6.46875 -3.6875 6.359375 -4.082031 6.140625 -4.4375 C 5.921875 -4.800781 5.632812 -5.085938 5.28125 -5.296875 C 4.925781 -5.503906 4.53125 -5.609375 4.09375 -5.609375 C 3.664062 -5.609375 3.269531 -5.503906 2.90625 -5.296875 C 2.539062 -5.085938 2.253906 -4.800781 2.046875 -4.4375 C 1.835938 -4.082031 1.734375 -3.6875 1.734375 -3.25 C 1.734375 -2.8125 1.835938 -2.410156 2.046875 -2.046875 C 2.253906 -1.679688 2.539062 -1.394531 2.90625 -1.1875 C 3.269531 -0.976562 3.664062 -0.875 4.09375 -0.875 Z M 4.09375 -0.875 "/></g></g></g><g fill="#def22c" fill-opacity="1"><g transform="translate(62.109231, 156.868171)"><g><path d="M 1.8125 -7.703125 C 1.625 -7.703125 1.457031 -7.769531 1.3125 -7.90625 C 1.175781 -8.039062 1.109375 -8.195312 1.109375 -8.375 C 1.109375 -8.582031 1.175781 -8.75 1.3125 -8.875 C 1.457031 -9.007812 1.625 -9.078125 1.8125 -9.078125 C 2 -9.078125 2.160156 -9.007812 2.296875 -8.875 C 2.441406 -8.75 2.515625 -8.582031 2.515625 -8.375 C 2.515625 -8.195312 2.441406 -8.039062 2.296875 -7.90625 C 2.160156 -7.769531 2 -7.703125 1.8125 -7.703125 Z M 1.3125 0 L 1.3125 -6.484375 L 2.3125 -6.484375 L 2.3125 0 Z M 1.3125 0 "/></g></g></g><g fill="#def22c" fill-opacity="1"><g transform="translate(65.984229, 156.868171)"><g><path d="M 3.765625 -6.609375 C 4.179688 -6.609375 4.570312 -6.5 4.9375 -6.28125 C 5.300781 -6.0625 5.59375 -5.765625 5.8125 -5.390625 C 6.039062 -5.015625 6.15625 -4.597656 6.15625 -4.140625 L 6.15625 0 L 5.15625 0 L 5.15625 -4.140625 C 5.15625 -4.546875 5.007812 -4.890625 4.71875 -5.171875 C 4.4375 -5.460938 4.09375 -5.609375 3.6875 -5.609375 C 3.269531 -5.609375 2.914062 -5.460938 2.625 -5.171875 C 2.332031 -4.890625 2.1875 -4.546875 2.1875 -4.140625 L 2.1875 0 L 1.1875 0 L 1.1875 -6.484375 L 2.1875 -6.484375 L 2.1875 -5.96875 C 2.40625 -6.175781 2.644531 -6.332031 2.90625 -6.4375 C 3.175781 -6.550781 3.460938 -6.609375 3.765625 -6.609375 Z M 3.765625 -6.609375 "/></g></g></g><g fill="#def22c" fill-opacity="1"><g transform="translate(73.507164, 156.868171)"><g><path d="M 6.453125 -6.484375 L 7.46875 -6.484375 L 7.46875 0.5625 C 7.46875 1.175781 7.316406 1.738281 7.015625 2.25 C 6.710938 2.769531 6.304688 3.179688 5.796875 3.484375 C 5.296875 3.785156 4.726562 3.9375 4.09375 3.9375 C 3.375 3.9375 2.722656 3.726562 2.140625 3.3125 C 1.566406 2.894531 1.160156 2.359375 0.921875 1.703125 L 1.84375 1.296875 C 2 1.765625 2.28125 2.15625 2.6875 2.46875 C 3.101562 2.78125 3.570312 2.9375 4.09375 2.9375 C 4.53125 2.9375 4.925781 2.828125 5.28125 2.609375 C 5.632812 2.390625 5.921875 2.101562 6.140625 1.75 C 6.359375 1.394531 6.46875 1 6.46875 0.5625 L 6.46875 -0.84375 C 6.164062 -0.539062 5.8125 -0.300781 5.40625 -0.125 C 5 0.0390625 4.5625 0.125 4.09375 0.125 C 3.476562 0.125 2.914062 -0.0234375 2.40625 -0.328125 C 1.894531 -0.628906 1.488281 -1.035156 1.1875 -1.546875 C 0.882812 -2.054688 0.734375 -2.625 0.734375 -3.25 C 0.734375 -3.875 0.882812 -4.4375 1.1875 -4.9375 C 1.488281 -5.445312 1.894531 -5.851562 2.40625 -6.15625 C 2.914062 -6.457031 3.476562 -6.609375 4.09375 -6.609375 C 4.550781 -6.609375 4.984375 -6.523438 5.390625 -6.359375 C 5.796875 -6.191406 6.148438 -5.960938 6.453125 -5.671875 Z M 4.09375 -0.875 C 4.53125 -0.875 4.925781 -0.984375 5.28125 -1.203125 C 5.632812 -1.421875 5.921875 -1.707031 6.140625 -2.0625 C 6.359375 -2.414062 6.46875 -2.8125 6.46875 -3.25 C 6.46875 -3.6875 6.359375 -4.082031 6.140625 -4.4375 C 5.921875 -4.800781 5.632812 -5.085938 5.28125 -5.296875 C 4.925781 -5.503906 4.53125 -5.609375 4.09375 -5.609375 C 3.664062 -5.609375 3.269531 -5.503906 2.90625 -5.296875 C 2.539062 -5.085938 2.253906 -4.800781 2.046875 -4.4375 C 1.835938 -4.082031 1.734375 -3.6875 1.734375 -3.25 C 1.734375 -2.8125 1.835938 -2.414062 2.046875 -2.0625 C 2.253906 -1.707031 2.539062 -1.421875 2.90625 -1.203125 C 3.269531 -0.984375 3.664062 -0.875 4.09375 -0.875 Z M 4.09375 -0.875 "/></g></g></g><g fill="#def22c" fill-opacity="1"><g transform="translate(82.424419, 156.868171)"><g/></g></g><g fill="#def22c" fill-opacity="1"><g transform="translate(86.591248, 156.868171)"><g><path d="M 4.5625 -6.609375 C 5.1875 -6.609375 5.75 -6.457031 6.25 -6.15625 C 6.757812 -5.851562 7.164062 -5.445312 7.46875 -4.9375 C 7.769531 -4.4375 7.921875 -3.875 7.921875 -3.25 C 7.921875 -2.625 7.769531 -2.054688 7.46875 -1.546875 C 7.164062 -1.035156 6.757812 -0.628906 6.25 -0.328125 C 5.75 -0.0234375 5.1875 0.125 4.5625 0.125 C 4.09375 0.125 3.65625 0.0390625 3.25 -0.125 C 2.851562 -0.300781 2.5 -0.539062 2.1875 -0.84375 L 2.1875 3.890625 L 1.1875 3.890625 L 1.1875 -6.484375 L 2.1875 -6.484375 L 2.1875 -5.640625 C 2.5 -5.941406 2.851562 -6.175781 3.25 -6.34375 C 3.65625 -6.519531 4.09375 -6.609375 4.5625 -6.609375 Z M 4.5625 -0.875 C 5 -0.875 5.394531 -0.976562 5.75 -1.1875 C 6.113281 -1.394531 6.398438 -1.679688 6.609375 -2.046875 C 6.816406 -2.410156 6.921875 -2.8125 6.921875 -3.25 C 6.921875 -3.6875 6.816406 -4.082031 6.609375 -4.4375 C 6.398438 -4.800781 6.113281 -5.085938 5.75 -5.296875 C 5.394531 -5.503906 5 -5.609375 4.5625 -5.609375 C 4.125 -5.609375 3.722656 -5.503906 3.359375 -5.296875 C 3.003906 -5.085938 2.71875 -4.800781 2.5 -4.4375 C 2.289062 -4.082031 2.1875 -3.6875 2.1875 -3.25 C 2.1875 -2.8125 2.289062 -2.410156 2.5 -2.046875 C 2.71875 -1.679688 3.003906 -1.394531 3.359375 -1.1875 C 3.722656 -0.976562 4.125 -0.875 4.5625 -0.875 Z M 4.5625 -0.875 "/></g></g></g><g fill="#def22c" fill-opacity="1"><g transform="translate(95.508502, 156.868171)"><g><path d="M 8.140625 -0.84375 L 8.546875 -0.84375 L 8.546875 0 C 8.398438 0.0820312 8.238281 0.125 8.0625 0.125 C 7.675781 0.125 7.359375 0.0234375 7.109375 -0.171875 C 6.859375 -0.378906 6.675781 -0.648438 6.5625 -0.984375 C 6.257812 -0.648438 5.894531 -0.378906 5.46875 -0.171875 C 5.039062 0.0234375 4.582031 0.125 4.09375 0.125 C 3.476562 0.125 2.914062 -0.0234375 2.40625 -0.328125 C 1.894531 -0.628906 1.488281 -1.035156 1.1875 -1.546875 C 0.882812 -2.054688 0.734375 -2.625 0.734375 -3.25 C 0.734375 -3.875 0.882812 -4.4375 1.1875 -4.9375 C 1.488281 -5.445312 1.894531 -5.851562 2.40625 -6.15625 C 2.914062 -6.457031 3.476562 -6.609375 4.09375 -6.609375 C 4.5625 -6.609375 5 -6.519531 5.40625 -6.34375 C 5.8125 -6.175781 6.164062 -5.941406 6.46875 -5.640625 L 6.46875 -6.484375 L 7.46875 -6.484375 L 7.46875 -1.6875 C 7.46875 -1.382812 7.535156 -1.164062 7.671875 -1.03125 C 7.804688 -0.90625 7.960938 -0.84375 8.140625 -0.84375 Z M 4.09375 -0.875 C 4.53125 -0.875 4.925781 -0.976562 5.28125 -1.1875 C 5.632812 -1.394531 5.921875 -1.679688 6.140625 -2.046875 C 6.359375 -2.410156 6.46875 -2.8125 6.46875 -3.25 C 6.46875 -3.6875 6.359375 -4.082031 6.140625 -4.4375 C 5.921875 -4.800781 5.632812 -5.085938 5.28125 -5.296875 C 4.925781 -5.503906 4.53125 -5.609375 4.09375 -5.609375 C 3.664062 -5.609375 3.269531 -5.503906 2.90625 -5.296875 C 2.539062 -5.085938 2.253906 -4.800781 2.046875 -4.4375 C 1.835938 -4.082031 1.734375 -3.6875 1.734375 -3.25 C 1.734375 -2.8125 1.835938 -2.410156 2.046875 -2.046875 C 2.253906 -1.679688 2.539062 -1.394531 2.90625 -1.1875 C 3.269531 -0.976562 3.664062 -0.875 4.09375 -0.875 Z M 4.09375 -0.875 "/></g></g></g><g fill="#def22c" fill-opacity="1"><g transform="translate(104.506827, 156.868171)"><g><path d="M 4.34375 -6.609375 C 4.539062 -6.609375 4.707031 -6.59375 4.84375 -6.5625 L 4.84375 -5.546875 C 4.71875 -5.585938 4.550781 -5.609375 4.34375 -5.609375 C 3.957031 -5.609375 3.597656 -5.515625 3.265625 -5.328125 C 2.929688 -5.148438 2.664062 -4.90625 2.46875 -4.59375 C 2.28125 -4.28125 2.1875 -3.921875 2.1875 -3.515625 L 2.1875 0 L 1.1875 0 L 1.1875 -6.484375 L 2.1875 -6.484375 L 2.1875 -5.5625 C 2.4375 -5.882812 2.738281 -6.140625 3.09375 -6.328125 C 3.457031 -6.515625 3.875 -6.609375 4.34375 -6.609375 Z M 4.34375 -6.609375 "/></g></g></g><g fill="#def22c" fill-opacity="1"><g transform="translate(109.695085, 156.868171)"><g><path d="M 4.171875 -5.515625 L 2.4375 -5.515625 L 2.4375 -1.828125 C 2.4375 -1.523438 2.53125 -1.285156 2.71875 -1.109375 C 2.914062 -0.929688 3.144531 -0.84375 3.40625 -0.84375 L 4.15625 -0.84375 L 4.15625 -0.078125 C 4.0625 -0.0234375 3.929688 0.0195312 3.765625 0.0625 C 3.609375 0.101562 3.453125 0.125 3.296875 0.125 C 2.953125 0.125 2.640625 0.046875 2.359375 -0.109375 C 2.085938 -0.273438 1.863281 -0.5 1.6875 -0.78125 C 1.507812 -1.0625 1.421875 -1.367188 1.421875 -1.703125 L 1.421875 -5.515625 L 0.34375 -5.515625 L 0.34375 -6.484375 L 1.421875 -6.484375 L 1.421875 -9.3125 L 2.4375 -9.3125 L 2.4375 -6.484375 L 4.171875 -6.484375 Z M 4.171875 -5.515625 "/></g></g></g><g fill="#def22c" fill-opacity="1"><g transform="translate(114.656363, 156.868171)"><g><path d="M 3.765625 -6.609375 C 4.179688 -6.609375 4.570312 -6.5 4.9375 -6.28125 C 5.300781 -6.0625 5.59375 -5.765625 5.8125 -5.390625 C 6.039062 -5.015625 6.15625 -4.597656 6.15625 -4.140625 L 6.15625 0 L 5.15625 0 L 5.15625 -4.140625 C 5.15625 -4.546875 5.007812 -4.890625 4.71875 -5.171875 C 4.4375 -5.460938 4.09375 -5.609375 3.6875 -5.609375 C 3.269531 -5.609375 2.914062 -5.460938 2.625 -5.171875 C 2.332031 -4.890625 2.1875 -4.546875 2.1875 -4.140625 L 2.1875 0 L 1.1875 0 L 1.1875 -6.484375 L 2.1875 -6.484375 L 2.1875 -5.96875 C 2.40625 -6.175781 2.644531 -6.332031 2.90625 -6.4375 C 3.175781 -6.550781 3.460938 -6.609375 3.765625 -6.609375 Z M 3.765625 -6.609375 "/></g></g></g><g fill="#def22c" fill-opacity="1"><g transform="translate(122.179298, 156.868171)"><g><path d="M 7.46875 -3.3125 L 7.453125 -3.09375 L 1.734375 -3.09375 C 1.753906 -2.6875 1.875 -2.3125 2.09375 -1.96875 C 2.3125 -1.625 2.59375 -1.351562 2.9375 -1.15625 C 3.289062 -0.96875 3.675781 -0.875 4.09375 -0.875 C 4.582031 -0.875 5.023438 -1.003906 5.421875 -1.265625 C 5.816406 -1.523438 6.101562 -1.863281 6.28125 -2.28125 L 7.34375 -2.28125 C 7.207031 -1.820312 6.976562 -1.410156 6.65625 -1.046875 C 6.34375 -0.679688 5.96875 -0.394531 5.53125 -0.1875 C 5.09375 0.0195312 4.613281 0.125 4.09375 0.125 C 3.476562 0.125 2.914062 -0.0234375 2.40625 -0.328125 C 1.894531 -0.628906 1.488281 -1.035156 1.1875 -1.546875 C 0.882812 -2.054688 0.734375 -2.625 0.734375 -3.25 C 0.734375 -3.875 0.882812 -4.4375 1.1875 -4.9375 C 1.488281 -5.445312 1.894531 -5.851562 2.40625 -6.15625 C 2.914062 -6.457031 3.476562 -6.609375 4.09375 -6.609375 C 4.71875 -6.609375 5.28125 -6.460938 5.78125 -6.171875 C 6.28125 -5.878906 6.679688 -5.484375 6.984375 -4.984375 C 7.296875 -4.492188 7.457031 -3.9375 7.46875 -3.3125 Z M 4.09375 -5.609375 C 3.582031 -5.609375 3.125 -5.457031 2.71875 -5.15625 C 2.3125 -4.863281 2.023438 -4.476562 1.859375 -4 L 6.328125 -4 C 6.171875 -4.476562 5.890625 -4.863281 5.484375 -5.15625 C 5.078125 -5.457031 4.613281 -5.609375 4.09375 -5.609375 Z M 4.09375 -5.609375 "/></g></g></g><g fill="#def22c" fill-opacity="1"><g transform="translate(130.577746, 156.868171)"><g><path d="M 4.34375 -6.609375 C 4.539062 -6.609375 4.707031 -6.59375 4.84375 -6.5625 L 4.84375 -5.546875 C 4.71875 -5.585938 4.550781 -5.609375 4.34375 -5.609375 C 3.957031 -5.609375 3.597656 -5.515625 3.265625 -5.328125 C 2.929688 -5.148438 2.664062 -4.90625 2.46875 -4.59375 C 2.28125 -4.28125 2.1875 -3.921875 2.1875 -3.515625 L 2.1875 0 L 1.1875 0 L 1.1875 -6.484375 L 2.1875 -6.484375 L 2.1875 -5.5625 C 2.4375 -5.882812 2.738281 -6.140625 3.09375 -6.328125 C 3.457031 -6.515625 3.875 -6.609375 4.34375 -6.609375 Z M 4.34375 -6.609375 "/></g></g></g><g fill="#def22c" fill-opacity="1"><g transform="translate(135.766004, 156.868171)"><g><path d="M 2.78125 0.125 C 2.269531 0.125 1.796875 -0.0078125 1.359375 -0.28125 C 0.929688 -0.5625 0.65625 -0.894531 0.53125 -1.28125 L 1.5 -1.671875 C 1.5625 -1.429688 1.710938 -1.234375 1.953125 -1.078125 C 2.203125 -0.929688 2.476562 -0.859375 2.78125 -0.859375 C 3.070312 -0.859375 3.320312 -0.9375 3.53125 -1.09375 C 3.75 -1.25 3.859375 -1.46875 3.859375 -1.75 C 3.859375 -2.007812 3.753906 -2.207031 3.546875 -2.34375 C 3.347656 -2.488281 3.050781 -2.632812 2.65625 -2.78125 C 2.082031 -3 1.632812 -3.253906 1.3125 -3.546875 C 0.988281 -3.847656 0.828125 -4.253906 0.828125 -4.765625 C 0.828125 -5.160156 0.914062 -5.492188 1.09375 -5.765625 C 1.269531 -6.035156 1.503906 -6.242188 1.796875 -6.390625 C 2.085938 -6.535156 2.390625 -6.609375 2.703125 -6.609375 C 3.117188 -6.609375 3.507812 -6.503906 3.875 -6.296875 C 4.238281 -6.085938 4.484375 -5.835938 4.609375 -5.546875 L 3.734375 -5.09375 C 3.640625 -5.257812 3.503906 -5.382812 3.328125 -5.46875 C 3.160156 -5.5625 2.96875 -5.609375 2.75 -5.609375 C 2.476562 -5.609375 2.257812 -5.539062 2.09375 -5.40625 C 1.925781 -5.28125 1.84375 -5.078125 1.84375 -4.796875 C 1.84375 -4.515625 1.941406 -4.304688 2.140625 -4.171875 C 2.347656 -4.035156 2.648438 -3.882812 3.046875 -3.71875 C 3.328125 -3.601562 3.609375 -3.46875 3.890625 -3.3125 C 4.171875 -3.15625 4.398438 -2.953125 4.578125 -2.703125 C 4.765625 -2.453125 4.859375 -2.132812 4.859375 -1.75 C 4.859375 -1.1875 4.65625 -0.734375 4.25 -0.390625 C 3.84375 -0.046875 3.351562 0.125 2.78125 0.125 Z M 2.78125 0.125 "/></g></g></g><g fill="#def22c" fill-opacity="1"><g transform="translate(141.392015, 156.868171)"><g><path d="M 3.625 -6.609375 C 4.082031 -6.609375 4.5 -6.5 4.875 -6.28125 C 5.25 -6.0625 5.539062 -5.765625 5.75 -5.390625 C 5.96875 -5.023438 6.078125 -4.613281 6.078125 -4.15625 L 6.078125 0 L 5.09375 0 L 5.09375 -4.15625 C 5.09375 -4.5625 4.945312 -4.90625 4.65625 -5.1875 C 4.375 -5.46875 4.03125 -5.609375 3.625 -5.609375 C 3.226562 -5.609375 2.890625 -5.46875 2.609375 -5.1875 C 2.328125 -4.90625 2.1875 -4.5625 2.1875 -4.15625 L 2.1875 0 L 1.1875 0 L 1.1875 -11.9375 L 2.1875 -11.9375 L 2.1875 -6.140625 C 2.394531 -6.296875 2.617188 -6.410156 2.859375 -6.484375 C 3.097656 -6.566406 3.351562 -6.609375 3.625 -6.609375 Z M 3.625 -6.609375 "/></g></g></g><g fill="#def22c" fill-opacity="1"><g transform="translate(148.833881, 156.868171)"><g><path d="M 1.8125 -7.703125 C 1.625 -7.703125 1.457031 -7.769531 1.3125 -7.90625 C 1.175781 -8.039062 1.109375 -8.195312 1.109375 -8.375 C 1.109375 -8.582031 1.175781 -8.75 1.3125 -8.875 C 1.457031 -9.007812 1.625 -9.078125 1.8125 -9.078125 C 2 -9.078125 2.160156 -9.007812 2.296875 -8.875 C 2.441406 -8.75 2.515625 -8.582031 2.515625 -8.375 C 2.515625 -8.195312 2.441406 -8.039062 2.296875 -7.90625 C 2.160156 -7.769531 2 -7.703125 1.8125 -7.703125 Z M 1.3125 0 L 1.3125 -6.484375 L 2.3125 -6.484375 L 2.3125 0 Z M 1.3125 0 "/></g></g></g><g fill="#def22c" fill-opacity="1"><g transform="translate(152.708878, 156.868171)"><g><path d="M 4.5625 -6.609375 C 5.1875 -6.609375 5.75 -6.457031 6.25 -6.15625 C 6.757812 -5.851562 7.164062 -5.445312 7.46875 -4.9375 C 7.769531 -4.4375 7.921875 -3.875 7.921875 -3.25 C 7.921875 -2.625 7.769531 -2.054688 7.46875 -1.546875 C 7.164062 -1.035156 6.757812 -0.628906 6.25 -0.328125 C 5.75 -0.0234375 5.1875 0.125 4.5625 0.125 C 4.09375 0.125 3.65625 0.0390625 3.25 -0.125 C 2.851562 -0.300781 2.5 -0.539062 2.1875 -0.84375 L 2.1875 3.890625 L 1.1875 3.890625 L 1.1875 -6.484375 L 2.1875 -6.484375 L 2.1875 -5.640625 C 2.5 -5.941406 2.851562 -6.175781 3.25 -6.34375 C 3.65625 -6.519531 4.09375 -6.609375 4.5625 -6.609375 Z M 4.5625 -0.875 C 5 -0.875 5.394531 -0.976562 5.75 -1.1875 C 6.113281 -1.394531 6.398438 -1.679688 6.609375 -2.046875 C 6.816406 -2.410156 6.921875 -2.8125 6.921875 -3.25 C 6.921875 -3.6875 6.816406 -4.082031 6.609375 -4.4375 C 6.398438 -4.800781 6.113281 -5.085938 5.75 -5.296875 C 5.394531 -5.503906 5 -5.609375 4.5625 -5.609375 C 4.125 -5.609375 3.722656 -5.503906 3.359375 -5.296875 C 3.003906 -5.085938 2.71875 -4.800781 2.5 -4.4375 C 2.289062 -4.082031 2.1875 -3.6875 2.1875 -3.25 C 2.1875 -2.8125 2.289062 -2.410156 2.5 -2.046875 C 2.71875 -1.679688 3.003906 -1.394531 3.359375 -1.1875 C 3.722656 -0.976562 4.125 -0.875 4.5625 -0.875 Z M 4.5625 -0.875 "/></g></g></g><g fill="#def22c" fill-opacity="1"><g transform="translate(161.626133, 156.868171)"><g><path d="M 2.78125 0.125 C 2.269531 0.125 1.796875 -0.0078125 1.359375 -0.28125 C 0.929688 -0.5625 0.65625 -0.894531 0.53125 -1.28125 L 1.5 -1.671875 C 1.5625 -1.429688 1.710938 -1.234375 1.953125 -1.078125 C 2.203125 -0.929688 2.476562 -0.859375 2.78125 -0.859375 C 3.070312 -0.859375 3.320312 -0.9375 3.53125 -1.09375 C 3.75 -1.25 3.859375 -1.46875 3.859375 -1.75 C 3.859375 -2.007812 3.753906 -2.207031 3.546875 -2.34375 C 3.347656 -2.488281 3.050781 -2.632812 2.65625 -2.78125 C 2.082031 -3 1.632812 -3.253906 1.3125 -3.546875 C 0.988281 -3.847656 0.828125 -4.253906 0.828125 -4.765625 C 0.828125 -5.160156 0.914062 -5.492188 1.09375 -5.765625 C 1.269531 -6.035156 1.503906 -6.242188 1.796875 -6.390625 C 2.085938 -6.535156 2.390625 -6.609375 2.703125 -6.609375 C 3.117188 -6.609375 3.507812 -6.503906 3.875 -6.296875 C 4.238281 -6.085938 4.484375 -5.835938 4.609375 -5.546875 L 3.734375 -5.09375 C 3.640625 -5.257812 3.503906 -5.382812 3.328125 -5.46875 C 3.160156 -5.5625 2.96875 -5.609375 2.75 -5.609375 C 2.476562 -5.609375 2.257812 -5.539062 2.09375 -5.40625 C 1.925781 -5.28125 1.84375 -5.078125 1.84375 -4.796875 C 1.84375 -4.515625 1.941406 -4.304688 2.140625 -4.171875 C 2.347656 -4.035156 2.648438 -3.882812 3.046875 -3.71875 C 3.328125 -3.601562 3.609375 -3.46875 3.890625 -3.3125 C 4.171875 -3.15625 4.398438 -2.953125 4.578125 -2.703125 C 4.765625 -2.453125 4.859375 -2.132812 4.859375 -1.75 C 4.859375 -1.1875 4.65625 -0.734375 4.25 -0.390625 C 3.84375 -0.046875 3.351562 0.125 2.78125 0.125 Z M 2.78125 0.125 "/></g></g></g><g fill="#def22c" fill-opacity="1"><g transform="translate(167.252144, 156.868171)"><g/></g></g><g fill="#def22c" fill-opacity="1"><g transform="translate(171.418974, 156.868171)"><g><path d="M 1.1875 0 L 1.1875 -11.9375 L 2.1875 -11.9375 L 2.1875 0 Z M 1.1875 0 "/></g></g></g><g fill="#def22c" fill-opacity="1"><g transform="translate(175.050773, 156.868171)"><g><path d="M 1.8125 -7.703125 C 1.625 -7.703125 1.457031 -7.769531 1.3125 -7.90625 C 1.175781 -8.039062 1.109375 -8.195312 1.109375 -8.375 C 1.109375 -8.582031 1.175781 -8.75 1.3125 -8.875 C 1.457031 -9.007812 1.625 -9.078125 1.8125 -9.078125 C 2 -9.078125 2.160156 -9.007812 2.296875 -8.875 C 2.441406 -8.75 2.515625 -8.582031 2.515625 -8.375 C 2.515625 -8.195312 2.441406 -8.039062 2.296875 -7.90625 C 2.160156 -7.769531 2 -7.703125 1.8125 -7.703125 Z M 1.3125 0 L 1.3125 -6.484375 L 2.3125 -6.484375 L 2.3125 0 Z M 1.3125 0 "/></g></g></g><g fill="#def22c" fill-opacity="1"><g transform="translate(178.925771, 156.868171)"><g><path d="M 6.859375 0 L 5.484375 0 L 2.28125 -3.609375 L 2.28125 0 L 1.28125 0 L 1.28125 -11.9375 L 2.28125 -11.9375 L 2.28125 -3.640625 L 5.234375 -6.484375 L 6.578125 -6.484375 L 3.5625 -3.59375 Z M 6.859375 0 "/></g></g></g><g fill="#def22c" fill-opacity="1"><g transform="translate(185.881249, 156.868171)"><g><path d="M 7.46875 -3.3125 L 7.453125 -3.09375 L 1.734375 -3.09375 C 1.753906 -2.6875 1.875 -2.3125 2.09375 -1.96875 C 2.3125 -1.625 2.59375 -1.351562 2.9375 -1.15625 C 3.289062 -0.96875 3.675781 -0.875 4.09375 -0.875 C 4.582031 -0.875 5.023438 -1.003906 5.421875 -1.265625 C 5.816406 -1.523438 6.101562 -1.863281 6.28125 -2.28125 L 7.34375 -2.28125 C 7.207031 -1.820312 6.976562 -1.410156 6.65625 -1.046875 C 6.34375 -0.679688 5.96875 -0.394531 5.53125 -0.1875 C 5.09375 0.0195312 4.613281 0.125 4.09375 0.125 C 3.476562 0.125 2.914062 -0.0234375 2.40625 -0.328125 C 1.894531 -0.628906 1.488281 -1.035156 1.1875 -1.546875 C 0.882812 -2.054688 0.734375 -2.625 0.734375 -3.25 C 0.734375 -3.875 0.882812 -4.4375 1.1875 -4.9375 C 1.488281 -5.445312 1.894531 -5.851562 2.40625 -6.15625 C 2.914062 -6.457031 3.476562 -6.609375 4.09375 -6.609375 C 4.71875 -6.609375 5.28125 -6.460938 5.78125 -6.171875 C 6.28125 -5.878906 6.679688 -5.484375 6.984375 -4.984375 C 7.296875 -4.492188 7.457031 -3.9375 7.46875 -3.3125 Z M 4.09375 -5.609375 C 3.582031 -5.609375 3.125 -5.457031 2.71875 -5.15625 C 2.3125 -4.863281 2.023438 -4.476562 1.859375 -4 L 6.328125 -4 C 6.171875 -4.476562 5.890625 -4.863281 5.484375 -5.15625 C 5.078125 -5.457031 4.613281 -5.609375 4.09375 -5.609375 Z M 4.09375 -5.609375 "/></g></g></g><g fill="#def22c" fill-opacity="1"><g transform="translate(29.8935, 174.832703)"><g><path d="M 8.140625 -0.84375 L 8.546875 -0.84375 L 8.546875 0 C 8.398438 0.0820312 8.238281 0.125 8.0625 0.125 C 7.675781 0.125 7.359375 0.0234375 7.109375 -0.171875 C 6.859375 -0.378906 6.675781 -0.648438 6.5625 -0.984375 C 6.257812 -0.648438 5.894531 -0.378906 5.46875 -0.171875 C 5.039062 0.0234375 4.582031 0.125 4.09375 0.125 C 3.476562 0.125 2.914062 -0.0234375 2.40625 -0.328125 C 1.894531 -0.628906 1.488281 -1.035156 1.1875 -1.546875 C 0.882812 -2.054688 0.734375 -2.625 0.734375 -3.25 C 0.734375 -3.875 0.882812 -4.4375 1.1875 -4.9375 C 1.488281 -5.445312 1.894531 -5.851562 2.40625 -6.15625 C 2.914062 -6.457031 3.476562 -6.609375 4.09375 -6.609375 C 4.5625 -6.609375 5 -6.519531 5.40625 -6.34375 C 5.8125 -6.175781 6.164062 -5.941406 6.46875 -5.640625 L 6.46875 -6.484375 L 7.46875 -6.484375 L 7.46875 -1.6875 C 7.46875 -1.382812 7.535156 -1.164062 7.671875 -1.03125 C 7.804688 -0.90625 7.960938 -0.84375 8.140625 -0.84375 Z M 4.09375 -0.875 C 4.53125 -0.875 4.925781 -0.976562 5.28125 -1.1875 C 5.632812 -1.394531 5.921875 -1.679688 6.140625 -2.046875 C 6.359375 -2.410156 6.46875 -2.8125 6.46875 -3.25 C 6.46875 -3.6875 6.359375 -4.082031 6.140625 -4.4375 C 5.921875 -4.800781 5.632812 -5.085938 5.28125 -5.296875 C 4.925781 -5.503906 4.53125 -5.609375 4.09375 -5.609375 C 3.664062 -5.609375 3.269531 -5.503906 2.90625 -5.296875 C 2.539062 -5.085938 2.253906 -4.800781 2.046875 -4.4375 C 1.835938 -4.082031 1.734375 -3.6875 1.734375 -3.25 C 1.734375 -2.8125 1.835938 -2.410156 2.046875 -2.046875 C 2.253906 -1.679688 2.539062 -1.394531 2.90625 -1.1875 C 3.269531 -0.976562 3.664062 -0.875 4.09375 -0.875 Z M 4.09375 -0.875 "/></g></g></g><g fill="#def22c" fill-opacity="1"><g transform="translate(38.891826, 174.832703)"><g/></g></g><g fill="#def22c" fill-opacity="1"><g transform="translate(43.058657, 174.832703)"><g><path d="M 9.171875 -6.484375 L 10.265625 -6.484375 L 8.046875 0 L 6.9375 0 L 5.21875 -5.09375 L 3.484375 0 L 2.390625 0 L 0.140625 -6.484375 L 1.28125 -6.484375 L 2.96875 -1.203125 L 4.734375 -6.484375 L 5.6875 -6.484375 L 7.453125 -1.171875 Z M 9.171875 -6.484375 "/></g></g></g><g fill="#def22c" fill-opacity="1"><g transform="translate(53.726926, 174.832703)"><g><path d="M 1.8125 -7.703125 C 1.625 -7.703125 1.457031 -7.769531 1.3125 -7.90625 C 1.175781 -8.039062 1.109375 -8.195312 1.109375 -8.375 C 1.109375 -8.582031 1.175781 -8.75 1.3125 -8.875 C 1.457031 -9.007812 1.625 -9.078125 1.8125 -9.078125 C 2 -9.078125 2.160156 -9.007812 2.296875 -8.875 C 2.441406 -8.75 2.515625 -8.582031 2.515625 -8.375 C 2.515625 -8.195312 2.441406 -8.039062 2.296875 -7.90625 C 2.160156 -7.769531 2 -7.703125 1.8125 -7.703125 Z M 1.3125 0 L 1.3125 -6.484375 L 2.3125 -6.484375 L 2.3125 0 Z M 1.3125 0 "/></g></g></g><g fill="#def22c" fill-opacity="1"><g transform="translate(57.601925, 174.832703)"><g><path d="M 3.765625 -6.609375 C 4.179688 -6.609375 4.570312 -6.5 4.9375 -6.28125 C 5.300781 -6.0625 5.59375 -5.765625 5.8125 -5.390625 C 6.039062 -5.015625 6.15625 -4.597656 6.15625 -4.140625 L 6.15625 0 L 5.15625 0 L 5.15625 -4.140625 C 5.15625 -4.546875 5.007812 -4.890625 4.71875 -5.171875 C 4.4375 -5.460938 4.09375 -5.609375 3.6875 -5.609375 C 3.269531 -5.609375 2.914062 -5.460938 2.625 -5.171875 C 2.332031 -4.890625 2.1875 -4.546875 2.1875 -4.140625 L 2.1875 0 L 1.1875 0 L 1.1875 -6.484375 L 2.1875 -6.484375 L 2.1875 -5.96875 C 2.40625 -6.175781 2.644531 -6.332031 2.90625 -6.4375 C 3.175781 -6.550781 3.460938 -6.609375 3.765625 -6.609375 Z M 3.765625 -6.609375 "/></g></g></g><g fill="#def22c" fill-opacity="1"><g transform="translate(65.124861, 174.832703)"><g><path d="M 3.765625 -6.609375 C 4.179688 -6.609375 4.570312 -6.5 4.9375 -6.28125 C 5.300781 -6.0625 5.59375 -5.765625 5.8125 -5.390625 C 6.039062 -5.015625 6.15625 -4.597656 6.15625 -4.140625 L 6.15625 0 L 5.15625 0 L 5.15625 -4.140625 C 5.15625 -4.546875 5.007812 -4.890625 4.71875 -5.171875 C 4.4375 -5.460938 4.09375 -5.609375 3.6875 -5.609375 C 3.269531 -5.609375 2.914062 -5.460938 2.625 -5.171875 C 2.332031 -4.890625 2.1875 -4.546875 2.1875 -4.140625 L 2.1875 0 L 1.1875 0 L 1.1875 -6.484375 L 2.1875 -6.484375 L 2.1875 -5.96875 C 2.40625 -6.175781 2.644531 -6.332031 2.90625 -6.4375 C 3.175781 -6.550781 3.460938 -6.609375 3.765625 -6.609375 Z M 3.765625 -6.609375 "/></g></g></g><g fill="#def22c" fill-opacity="1"><g transform="translate(72.647796, 174.832703)"><g><path d="M 1.8125 -7.703125 C 1.625 -7.703125 1.457031 -7.769531 1.3125 -7.90625 C 1.175781 -8.039062 1.109375 -8.195312 1.109375 -8.375 C 1.109375 -8.582031 1.175781 -8.75 1.3125 -8.875 C 1.457031 -9.007812 1.625 -9.078125 1.8125 -9.078125 C 2 -9.078125 2.160156 -9.007812 2.296875 -8.875 C 2.441406 -8.75 2.515625 -8.582031 2.515625 -8.375 C 2.515625 -8.195312 2.441406 -8.039062 2.296875 -7.90625 C 2.160156 -7.769531 2 -7.703125 1.8125 -7.703125 Z M 1.3125 0 L 1.3125 -6.484375 L 2.3125 -6.484375 L 2.3125 0 Z M 1.3125 0 "/></g></g></g><g fill="#def22c" fill-opacity="1"><g transform="translate(76.522794, 174.832703)"><g><path d="M 3.765625 -6.609375 C 4.179688 -6.609375 4.570312 -6.5 4.9375 -6.28125 C 5.300781 -6.0625 5.59375 -5.765625 5.8125 -5.390625 C 6.039062 -5.015625 6.15625 -4.597656 6.15625 -4.140625 L 6.15625 0 L 5.15625 0 L 5.15625 -4.140625 C 5.15625 -4.546875 5.007812 -4.890625 4.71875 -5.171875 C 4.4375 -5.460938 4.09375 -5.609375 3.6875 -5.609375 C 3.269531 -5.609375 2.914062 -5.460938 2.625 -5.171875 C 2.332031 -4.890625 2.1875 -4.546875 2.1875 -4.140625 L 2.1875 0 L 1.1875 0 L 1.1875 -6.484375 L 2.1875 -6.484375 L 2.1875 -5.96875 C 2.40625 -6.175781 2.644531 -6.332031 2.90625 -6.4375 C 3.175781 -6.550781 3.460938 -6.609375 3.765625 -6.609375 Z M 3.765625 -6.609375 "/></g></g></g><g fill="#def22c" fill-opacity="1"><g transform="translate(84.045729, 174.832703)"><g><path d="M 6.453125 -6.484375 L 7.46875 -6.484375 L 7.46875 0.5625 C 7.46875 1.175781 7.316406 1.738281 7.015625 2.25 C 6.710938 2.769531 6.304688 3.179688 5.796875 3.484375 C 5.296875 3.785156 4.726562 3.9375 4.09375 3.9375 C 3.375 3.9375 2.722656 3.726562 2.140625 3.3125 C 1.566406 2.894531 1.160156 2.359375 0.921875 1.703125 L 1.84375 1.296875 C 2 1.765625 2.28125 2.15625 2.6875 2.46875 C 3.101562 2.78125 3.570312 2.9375 4.09375 2.9375 C 4.53125 2.9375 4.925781 2.828125 5.28125 2.609375 C 5.632812 2.390625 5.921875 2.101562 6.140625 1.75 C 6.359375 1.394531 6.46875 1 6.46875 0.5625 L 6.46875 -0.84375 C 6.164062 -0.539062 5.8125 -0.300781 5.40625 -0.125 C 5 0.0390625 4.5625 0.125 4.09375 0.125 C 3.476562 0.125 2.914062 -0.0234375 2.40625 -0.328125 C 1.894531 -0.628906 1.488281 -1.035156 1.1875 -1.546875 C 0.882812 -2.054688 0.734375 -2.625 0.734375 -3.25 C 0.734375 -3.875 0.882812 -4.4375 1.1875 -4.9375 C 1.488281 -5.445312 1.894531 -5.851562 2.40625 -6.15625 C 2.914062 -6.457031 3.476562 -6.609375 4.09375 -6.609375 C 4.550781 -6.609375 4.984375 -6.523438 5.390625 -6.359375 C 5.796875 -6.191406 6.148438 -5.960938 6.453125 -5.671875 Z M 4.09375 -0.875 C 4.53125 -0.875 4.925781 -0.984375 5.28125 -1.203125 C 5.632812 -1.421875 5.921875 -1.707031 6.140625 -2.0625 C 6.359375 -2.414062 6.46875 -2.8125 6.46875 -3.25 C 6.46875 -3.6875 6.359375 -4.082031 6.140625 -4.4375 C 5.921875 -4.800781 5.632812 -5.085938 5.28125 -5.296875 C 4.925781 -5.503906 4.53125 -5.609375 4.09375 -5.609375 C 3.664062 -5.609375 3.269531 -5.503906 2.90625 -5.296875 C 2.539062 -5.085938 2.253906 -4.800781 2.046875 -4.4375 C 1.835938 -4.082031 1.734375 -3.6875 1.734375 -3.25 C 1.734375 -2.8125 1.835938 -2.414062 2.046875 -2.0625 C 2.253906 -1.707031 2.539062 -1.421875 2.90625 -1.203125 C 3.269531 -0.984375 3.664062 -0.875 4.09375 -0.875 Z M 4.09375 -0.875 "/></g></g></g><g fill="#def22c" fill-opacity="1"><g transform="translate(92.962984, 174.832703)"><g/></g></g><g fill="#def22c" fill-opacity="1"><g transform="translate(97.129813, 174.832703)"><g><path d="M 6.46875 -11.9375 L 7.46875 -11.9375 L 7.46875 0 L 6.46875 0 L 6.46875 -0.84375 C 6.164062 -0.539062 5.8125 -0.300781 5.40625 -0.125 C 5 0.0390625 4.5625 0.125 4.09375 0.125 C 3.476562 0.125 2.914062 -0.0234375 2.40625 -0.328125 C 1.894531 -0.628906 1.488281 -1.035156 1.1875 -1.546875 C 0.882812 -2.054688 0.734375 -2.625 0.734375 -3.25 C 0.734375 -3.875 0.882812 -4.4375 1.1875 -4.9375 C 1.488281 -5.445312 1.894531 -5.851562 2.40625 -6.15625 C 2.914062 -6.457031 3.476562 -6.609375 4.09375 -6.609375 C 4.5625 -6.609375 5 -6.519531 5.40625 -6.34375 C 5.8125 -6.175781 6.164062 -5.941406 6.46875 -5.640625 Z M 4.09375 -0.875 C 4.53125 -0.875 4.925781 -0.976562 5.28125 -1.1875 C 5.632812 -1.394531 5.921875 -1.679688 6.140625 -2.046875 C 6.359375 -2.410156 6.46875 -2.8125 6.46875 -3.25 C 6.46875 -3.6875 6.359375 -4.082031 6.140625 -4.4375 C 5.921875 -4.800781 5.632812 -5.085938 5.28125 -5.296875 C 4.925781 -5.503906 4.53125 -5.609375 4.09375 -5.609375 C 3.664062 -5.609375 3.269531 -5.503906 2.90625 -5.296875 C 2.539062 -5.085938 2.253906 -4.800781 2.046875 -4.4375 C 1.835938 -4.082031 1.734375 -3.6875 1.734375 -3.25 C 1.734375 -2.8125 1.835938 -2.410156 2.046875 -2.046875 C 2.253906 -1.679688 2.539062 -1.394531 2.90625 -1.1875 C 3.269531 -0.976562 3.664062 -0.875 4.09375 -0.875 Z M 4.09375 -0.875 "/></g></g></g><g fill="#def22c" fill-opacity="1"><g transform="translate(106.047067, 174.832703)"><g><path d="M 4.09375 0.125 C 3.476562 0.125 2.914062 -0.0234375 2.40625 -0.328125 C 1.894531 -0.628906 1.488281 -1.035156 1.1875 -1.546875 C 0.882812 -2.054688 0.734375 -2.625 0.734375 -3.25 C 0.734375 -3.875 0.882812 -4.4375 1.1875 -4.9375 C 1.488281 -5.445312 1.894531 -5.851562 2.40625 -6.15625 C 2.914062 -6.457031 3.476562 -6.609375 4.09375 -6.609375 C 4.726562 -6.609375 5.296875 -6.457031 5.796875 -6.15625 C 6.304688 -5.851562 6.710938 -5.445312 7.015625 -4.9375 C 7.316406 -4.4375 7.46875 -3.875 7.46875 -3.25 C 7.46875 -2.625 7.316406 -2.054688 7.015625 -1.546875 C 6.710938 -1.035156 6.304688 -0.628906 5.796875 -0.328125 C 5.296875 -0.0234375 4.726562 0.125 4.09375 0.125 Z M 4.09375 -0.875 C 4.53125 -0.875 4.925781 -0.976562 5.28125 -1.1875 C 5.632812 -1.394531 5.921875 -1.679688 6.140625 -2.046875 C 6.359375 -2.410156 6.46875 -2.8125 6.46875 -3.25 C 6.46875 -3.6875 6.359375 -4.082031 6.140625 -4.4375 C 5.921875 -4.800781 5.632812 -5.085938 5.28125 -5.296875 C 4.925781 -5.503906 4.53125 -5.609375 4.09375 -5.609375 C 3.664062 -5.609375 3.269531 -5.503906 2.90625 -5.296875 C 2.539062 -5.085938 2.253906 -4.800781 2.046875 -4.4375 C 1.835938 -4.082031 1.734375 -3.6875 1.734375 -3.25 C 1.734375 -2.8125 1.835938 -2.410156 2.046875 -2.046875 C 2.253906 -1.679688 2.539062 -1.394531 2.90625 -1.1875 C 3.269531 -0.976562 3.664062 -0.875 4.09375 -0.875 Z M 4.09375 -0.875 "/></g></g></g><g fill="#def22c" fill-opacity="1"><g transform="translate(114.510361, 174.832703)"><g><path d="M 3.40625 0.125 C 2.675781 0.125 2.085938 -0.09375 1.640625 -0.53125 C 1.191406 -0.976562 0.96875 -1.578125 0.96875 -2.328125 L 0.96875 -6.484375 L 1.96875 -6.484375 L 1.96875 -2.453125 C 1.96875 -1.960938 2.101562 -1.578125 2.375 -1.296875 C 2.644531 -1.015625 2.988281 -0.875 3.40625 -0.875 C 3.820312 -0.875 4.164062 -1.015625 4.4375 -1.296875 C 4.707031 -1.578125 4.84375 -1.960938 4.84375 -2.453125 L 4.84375 -6.484375 L 5.84375 -6.484375 L 5.84375 -2.328125 C 5.84375 -1.578125 5.613281 -0.976562 5.15625 -0.53125 C 4.707031 -0.09375 4.125 0.125 3.40625 0.125 Z M 3.40625 0.125 "/></g></g></g><g fill="#def22c" fill-opacity="1"><g transform="translate(121.563117, 174.832703)"><g><path d="M 4.5625 -6.609375 C 5.1875 -6.609375 5.75 -6.457031 6.25 -6.15625 C 6.757812 -5.851562 7.164062 -5.445312 7.46875 -4.9375 C 7.769531 -4.4375 7.921875 -3.875 7.921875 -3.25 C 7.921875 -2.625 7.769531 -2.054688 7.46875 -1.546875 C 7.164062 -1.035156 6.757812 -0.628906 6.25 -0.328125 C 5.75 -0.0234375 5.1875 0.125 4.5625 0.125 C 4.09375 0.125 3.65625 0.0390625 3.25 -0.125 C 2.851562 -0.300781 2.5 -0.539062 2.1875 -0.84375 L 2.1875 0 L 1.1875 0 L 1.1875 -11.9375 L 2.1875 -11.9375 L 2.1875 -5.640625 C 2.5 -5.941406 2.851562 -6.175781 3.25 -6.34375 C 3.65625 -6.519531 4.09375 -6.609375 4.5625 -6.609375 Z M 4.5625 -0.875 C 5 -0.875 5.394531 -0.976562 5.75 -1.1875 C 6.113281 -1.394531 6.398438 -1.679688 6.609375 -2.046875 C 6.816406 -2.410156 6.921875 -2.8125 6.921875 -3.25 C 6.921875 -3.6875 6.816406 -4.082031 6.609375 -4.4375 C 6.398438 -4.800781 6.113281 -5.085938 5.75 -5.296875 C 5.394531 -5.503906 5 -5.609375 4.5625 -5.609375 C 4.125 -5.609375 3.722656 -5.503906 3.359375 -5.296875 C 3.003906 -5.085938 2.71875 -4.800781 2.5 -4.4375 C 2.289062 -4.082031 2.1875 -3.6875 2.1875 -3.25 C 2.1875 -2.8125 2.289062 -2.410156 2.5 -2.046875 C 2.71875 -1.679688 3.003906 -1.394531 3.359375 -1.1875 C 3.722656 -0.976562 4.125 -0.875 4.5625 -0.875 Z M 4.5625 -0.875 "/></g></g></g><g fill="#def22c" fill-opacity="1"><g transform="translate(130.480377, 174.832703)"><g><path d="M 1.1875 0 L 1.1875 -11.9375 L 2.1875 -11.9375 L 2.1875 0 Z M 1.1875 0 "/></g></g></g><g fill="#def22c" fill-opacity="1"><g transform="translate(134.112176, 174.832703)"><g><path d="M 7.46875 -3.3125 L 7.453125 -3.09375 L 1.734375 -3.09375 C 1.753906 -2.6875 1.875 -2.3125 2.09375 -1.96875 C 2.3125 -1.625 2.59375 -1.351562 2.9375 -1.15625 C 3.289062 -0.96875 3.675781 -0.875 4.09375 -0.875 C 4.582031 -0.875 5.023438 -1.003906 5.421875 -1.265625 C 5.816406 -1.523438 6.101562 -1.863281 6.28125 -2.28125 L 7.34375 -2.28125 C 7.207031 -1.820312 6.976562 -1.410156 6.65625 -1.046875 C 6.34375 -0.679688 5.96875 -0.394531 5.53125 -0.1875 C 5.09375 0.0195312 4.613281 0.125 4.09375 0.125 C 3.476562 0.125 2.914062 -0.0234375 2.40625 -0.328125 C 1.894531 -0.628906 1.488281 -1.035156 1.1875 -1.546875 C 0.882812 -2.054688 0.734375 -2.625 0.734375 -3.25 C 0.734375 -3.875 0.882812 -4.4375 1.1875 -4.9375 C 1.488281 -5.445312 1.894531 -5.851562 2.40625 -6.15625 C 2.914062 -6.457031 3.476562 -6.609375 4.09375 -6.609375 C 4.71875 -6.609375 5.28125 -6.460938 5.78125 -6.171875 C 6.28125 -5.878906 6.679688 -5.484375 6.984375 -4.984375 C 7.296875 -4.492188 7.457031 -3.9375 7.46875 -3.3125 Z M 4.09375 -5.609375 C 3.582031 -5.609375 3.125 -5.457031 2.71875 -5.15625 C 2.3125 -4.863281 2.023438 -4.476562 1.859375 -4 L 6.328125 -4 C 6.171875 -4.476562 5.890625 -4.863281 5.484375 -5.15625 C 5.078125 -5.457031 4.613281 -5.609375 4.09375 -5.609375 Z M 4.09375 -5.609375 "/></g></g></g><g fill="#def22c" fill-opacity="1"><g transform="translate(142.510618, 174.832703)"><g><path d="M 2.78125 0.125 C 2.269531 0.125 1.796875 -0.0078125 1.359375 -0.28125 C 0.929688 -0.5625 0.65625 -0.894531 0.53125 -1.28125 L 1.5 -1.671875 C 1.5625 -1.429688 1.710938 -1.234375 1.953125 -1.078125 C 2.203125 -0.929688 2.476562 -0.859375 2.78125 -0.859375 C 3.070312 -0.859375 3.320312 -0.9375 3.53125 -1.09375 C 3.75 -1.25 3.859375 -1.46875 3.859375 -1.75 C 3.859375 -2.007812 3.753906 -2.207031 3.546875 -2.34375 C 3.347656 -2.488281 3.050781 -2.632812 2.65625 -2.78125 C 2.082031 -3 1.632812 -3.253906 1.3125 -3.546875 C 0.988281 -3.847656 0.828125 -4.253906 0.828125 -4.765625 C 0.828125 -5.160156 0.914062 -5.492188 1.09375 -5.765625 C 1.269531 -6.035156 1.503906 -6.242188 1.796875 -6.390625 C 2.085938 -6.535156 2.390625 -6.609375 2.703125 -6.609375 C 3.117188 -6.609375 3.507812 -6.503906 3.875 -6.296875 C 4.238281 -6.085938 4.484375 -5.835938 4.609375 -5.546875 L 3.734375 -5.09375 C 3.640625 -5.257812 3.503906 -5.382812 3.328125 -5.46875 C 3.160156 -5.5625 2.96875 -5.609375 2.75 -5.609375 C 2.476562 -5.609375 2.257812 -5.539062 2.09375 -5.40625 C 1.925781 -5.28125 1.84375 -5.078125 1.84375 -4.796875 C 1.84375 -4.515625 1.941406 -4.304688 2.140625 -4.171875 C 2.347656 -4.035156 2.648438 -3.882812 3.046875 -3.71875 C 3.328125 -3.601562 3.609375 -3.46875 3.890625 -3.3125 C 4.171875 -3.15625 4.398438 -2.953125 4.578125 -2.703125 C 4.765625 -2.453125 4.859375 -2.132812 4.859375 -1.75 C 4.859375 -1.1875 4.65625 -0.734375 4.25 -0.390625 C 3.84375 -0.046875 3.351562 0.125 2.78125 0.125 Z M 2.78125 0.125 "/></g></g></g><g fill="#def22c" fill-opacity="1"><g transform="translate(148.13663, 174.832703)"><g/></g></g><g fill="#def22c" fill-opacity="1"><g transform="translate(152.30346, 174.832703)"><g><path d="M 4.171875 -5.515625 L 2.4375 -5.515625 L 2.4375 -1.828125 C 2.4375 -1.523438 2.53125 -1.285156 2.71875 -1.109375 C 2.914062 -0.929688 3.144531 -0.84375 3.40625 -0.84375 L 4.15625 -0.84375 L 4.15625 -0.078125 C 4.0625 -0.0234375 3.929688 0.0195312 3.765625 0.0625 C 3.609375 0.101562 3.453125 0.125 3.296875 0.125 C 2.953125 0.125 2.640625 0.046875 2.359375 -0.109375 C 2.085938 -0.273438 1.863281 -0.5 1.6875 -0.78125 C 1.507812 -1.0625 1.421875 -1.367188 1.421875 -1.703125 L 1.421875 -5.515625 L 0.34375 -5.515625 L 0.34375 -6.484375 L 1.421875 -6.484375 L 1.421875 -9.3125 L 2.4375 -9.3125 L 2.4375 -6.484375 L 4.171875 -6.484375 Z M 4.171875 -5.515625 "/></g></g></g><g fill="#def22c" fill-opacity="1"><g transform="translate(157.264737, 174.832703)"><g><path d="M 7.46875 -3.3125 L 7.453125 -3.09375 L 1.734375 -3.09375 C 1.753906 -2.6875 1.875 -2.3125 2.09375 -1.96875 C 2.3125 -1.625 2.59375 -1.351562 2.9375 -1.15625 C 3.289062 -0.96875 3.675781 -0.875 4.09375 -0.875 C 4.582031 -0.875 5.023438 -1.003906 5.421875 -1.265625 C 5.816406 -1.523438 6.101562 -1.863281 6.28125 -2.28125 L 7.34375 -2.28125 C 7.207031 -1.820312 6.976562 -1.410156 6.65625 -1.046875 C 6.34375 -0.679688 5.96875 -0.394531 5.53125 -0.1875 C 5.09375 0.0195312 4.613281 0.125 4.09375 0.125 C 3.476562 0.125 2.914062 -0.0234375 2.40625 -0.328125 C 1.894531 -0.628906 1.488281 -1.035156 1.1875 -1.546875 C 0.882812 -2.054688 0.734375 -2.625 0.734375 -3.25 C 0.734375 -3.875 0.882812 -4.4375 1.1875 -4.9375 C 1.488281 -5.445312 1.894531 -5.851562 2.40625 -6.15625 C 2.914062 -6.457031 3.476562 -6.609375 4.09375 -6.609375 C 4.71875 -6.609375 5.28125 -6.460938 5.78125 -6.171875 C 6.28125 -5.878906 6.679688 -5.484375 6.984375 -4.984375 C 7.296875 -4.492188 7.457031 -3.9375 7.46875 -3.3125 Z M 4.09375 -5.609375 C 3.582031 -5.609375 3.125 -5.457031 2.71875 -5.15625 C 2.3125 -4.863281 2.023438 -4.476562 1.859375 -4 L 6.328125 -4 C 6.171875 -4.476562 5.890625 -4.863281 5.484375 -5.15625 C 5.078125 -5.457031 4.613281 -5.609375 4.09375 -5.609375 Z M 4.09375 -5.609375 "/></g></g></g><g fill="#def22c" fill-opacity="1"><g transform="translate(165.663179, 174.832703)"><g><path d="M 8.140625 -0.84375 L 8.546875 -0.84375 L 8.546875 0 C 8.398438 0.0820312 8.238281 0.125 8.0625 0.125 C 7.675781 0.125 7.359375 0.0234375 7.109375 -0.171875 C 6.859375 -0.378906 6.675781 -0.648438 6.5625 -0.984375 C 6.257812 -0.648438 5.894531 -0.378906 5.46875 -0.171875 C 5.039062 0.0234375 4.582031 0.125 4.09375 0.125 C 3.476562 0.125 2.914062 -0.0234375 2.40625 -0.328125 C 1.894531 -0.628906 1.488281 -1.035156 1.1875 -1.546875 C 0.882812 -2.054688 0.734375 -2.625 0.734375 -3.25 C 0.734375 -3.875 0.882812 -4.4375 1.1875 -4.9375 C 1.488281 -5.445312 1.894531 -5.851562 2.40625 -6.15625 C 2.914062 -6.457031 3.476562 -6.609375 4.09375 -6.609375 C 4.5625 -6.609375 5 -6.519531 5.40625 -6.34375 C 5.8125 -6.175781 6.164062 -5.941406 6.46875 -5.640625 L 6.46875 -6.484375 L 7.46875 -6.484375 L 7.46875 -1.6875 C 7.46875 -1.382812 7.535156 -1.164062 7.671875 -1.03125 C 7.804688 -0.90625 7.960938 -0.84375 8.140625 -0.84375 Z M 4.09375 -0.875 C 4.53125 -0.875 4.925781 -0.976562 5.28125 -1.1875 C 5.632812 -1.394531 5.921875 -1.679688 6.140625 -2.046875 C 6.359375 -2.410156 6.46875 -2.8125 6.46875 -3.25 C 6.46875 -3.6875 6.359375 -4.082031 6.140625 -4.4375 C 5.921875 -4.800781 5.632812 -5.085938 5.28125 -5.296875 C 4.925781 -5.503906 4.53125 -5.609375 4.09375 -5.609375 C 3.664062 -5.609375 3.269531 -5.503906 2.90625 -5.296875 C 2.539062 -5.085938 2.253906 -4.800781 2.046875 -4.4375 C 1.835938 -4.082031 1.734375 -3.6875 1.734375 -3.25 C 1.734375 -2.8125 1.835938 -2.410156 2.046875 -2.046875 C 2.253906 -1.679688 2.539062 -1.394531 2.90625 -1.1875 C 3.269531 -0.976562 3.664062 -0.875 4.09375 -0.875 Z M 4.09375 -0.875 "/></g></g></g><g fill="#def22c" fill-opacity="1"><g transform="translate(174.661504, 174.832703)"><g><path d="M 7.390625 -6.609375 C 7.847656 -6.609375 8.253906 -6.5 8.609375 -6.28125 C 8.972656 -6.0625 9.265625 -5.765625 9.484375 -5.390625 C 9.703125 -5.015625 9.8125 -4.601562 9.8125 -4.15625 L 9.8125 0 L 8.796875 0 L 8.796875 -4.15625 C 8.796875 -4.5625 8.65625 -4.90625 8.375 -5.1875 C 8.101562 -5.46875 7.773438 -5.609375 7.390625 -5.609375 C 7.015625 -5.609375 6.6875 -5.46875 6.40625 -5.1875 C 6.132812 -4.90625 6 -4.5625 6 -4.15625 L 6 0 L 5 0 L 5 -4.15625 C 5 -4.5625 4.859375 -4.90625 4.578125 -5.1875 C 4.304688 -5.46875 3.976562 -5.609375 3.59375 -5.609375 C 3.195312 -5.609375 2.863281 -5.46875 2.59375 -5.1875 C 2.320312 -4.90625 2.1875 -4.5625 2.1875 -4.15625 L 2.1875 0 L 1.1875 0 L 1.1875 -6.484375 L 2.1875 -6.484375 L 2.1875 -5.890625 C 2.382812 -6.097656 2.613281 -6.269531 2.875 -6.40625 C 3.132812 -6.539062 3.410156 -6.609375 3.703125 -6.609375 C 4.046875 -6.609375 4.375 -6.519531 4.6875 -6.34375 C 5.007812 -6.175781 5.28125 -5.941406 5.5 -5.640625 C 5.707031 -5.941406 5.976562 -6.175781 6.3125 -6.34375 C 6.644531 -6.519531 7.003906 -6.609375 7.390625 -6.609375 Z M 7.390625 -6.609375 "/></g></g></g><g fill="#def22c" fill-opacity="1"><g transform="translate(185.81617, 174.832703)"><g><path d="M 1.546875 0.125 C 1.304688 0.125 1.097656 0.0351562 0.921875 -0.140625 C 0.742188 -0.316406 0.65625 -0.523438 0.65625 -0.765625 C 0.65625 -1.015625 0.742188 -1.222656 0.921875 -1.390625 C 1.097656 -1.566406 1.304688 -1.65625 1.546875 -1.65625 C 1.785156 -1.65625 1.992188 -1.566406 2.171875 -1.390625 C 2.347656 -1.222656 2.4375 -1.015625 2.4375 -0.765625 C 2.4375 -0.523438 2.347656 -0.316406 2.171875 -0.140625 C 1.992188 0.0351562 1.785156 0.125 1.546875 0.125 Z M 1.546875 0.125 "/></g></g></g></svg>