<svg xmlns="http://www.w3.org/2000/svg" xmlns:xlink="http://www.w3.org/1999/xlink" width="300" zoomAndPan="magnify" viewBox="0 0 224.87999 225" height="300" preserveAspectRatio="xMidYMid meet" version="1.0"><defs><g/><clipPath id="e4c84a07fd"><path d="M 94.226562 47.046875 L 134.472656 47.046875 L 134.472656 63.992188 L 94.226562 63.992188 Z M 94.226562 47.046875 " clip-rule="nonzero"/></clipPath><clipPath id="12b4904e47"><path d="M 94.71875 62.429688 C 134.011719 47.101562 134.371094 47.296875 134.449219 47.574219 C 134.527344 47.8125 134.171875 48.527344 133.933594 48.605469 C 133.65625 48.644531 132.984375 48.25 132.945312 48.011719 C 132.863281 47.734375 133.300781 47.101562 133.578125 47.0625 C 133.816406 46.980469 134.332031 47.257812 134.410156 47.496094 C 134.527344 47.734375 134.410156 48.128906 134.011719 48.566406 C 131.914062 50.707031 113.492188 57.003906 106.285156 59.777344 C 101.769531 61.558594 96.738281 64.132812 95.113281 63.9375 C 94.636719 63.898438 94.320312 63.621094 94.242188 63.382812 C 94.164062 63.105469 94.71875 62.429688 94.71875 62.429688 " clip-rule="nonzero"/></clipPath><clipPath id="3f55fe2752"><path d="M 100.273438 55.273438 L 142.335938 55.273438 L 142.335938 67.171875 L 100.273438 67.171875 Z M 100.273438 55.273438 " clip-rule="nonzero"/></clipPath><clipPath id="bdd84bc994"><path d="M 101.09375 65.480469 C 110.246094 64.292969 112.425781 63.855469 115.949219 62.945312 C 122.128906 61.359375 139.042969 54.863281 141.5 55.339844 C 141.976562 55.417969 142.171875 55.695312 142.253906 55.933594 C 142.332031 56.132812 142.214844 56.488281 142.09375 56.648438 C 141.9375 56.804688 141.578125 56.964844 141.382812 56.925781 C 141.144531 56.84375 140.746094 56.488281 140.707031 56.210938 C 140.667969 56.011719 140.789062 55.65625 140.945312 55.539062 C 141.144531 55.378906 141.699219 55.339844 141.894531 55.457031 C 142.09375 55.578125 142.292969 55.894531 142.292969 56.09375 C 142.253906 56.371094 142.132812 56.566406 141.738281 56.886719 C 139.558594 58.429688 123.476562 62.746094 116.265625 64.492188 C 111.078125 65.757812 105.332031 66.945312 102.757812 67.066406 C 101.730469 67.144531 100.9375 67.183594 100.582031 66.867188 C 100.34375 66.667969 100.261719 66.234375 100.34375 65.996094 C 100.421875 65.757812 101.09375 65.480469 101.09375 65.480469 " clip-rule="nonzero"/></clipPath><clipPath id="f380972a3b"><path d="M 109.804688 71.210938 L 139.535156 71.210938 L 139.535156 74.742188 L 109.804688 74.742188 Z M 109.804688 71.210938 " clip-rule="nonzero"/></clipPath><clipPath id="5ad0d9a7b7"><path d="M 110.601562 72.886719 C 127.714844 72.335938 136.867188 70.949219 138.648438 71.265625 C 139.042969 71.304688 139.203125 71.382812 139.359375 71.542969 C 139.480469 71.699219 139.558594 72.058594 139.480469 72.253906 C 139.441406 72.492188 139.164062 72.730469 138.964844 72.808594 C 138.765625 72.847656 138.410156 72.808594 138.25 72.652344 C 138.054688 72.53125 137.933594 72.214844 137.933594 71.976562 C 137.933594 71.78125 138.132812 71.460938 138.332031 71.34375 C 138.527344 71.226562 138.886719 71.226562 139.082031 71.34375 C 139.28125 71.421875 139.519531 71.699219 139.519531 71.9375 C 139.519531 72.214844 139.28125 72.570312 138.804688 72.808594 C 136.984375 73.800781 127.792969 73.917969 122.84375 74.195312 C 118.484375 74.433594 112.1875 75.105469 110.5625 74.472656 C 110.125 74.316406 109.808594 74.039062 109.808594 73.761719 C 109.808594 73.523438 110.601562 72.886719 110.601562 72.886719 " clip-rule="nonzero"/></clipPath><clipPath id="9795b94cd3"><path d="M 105.792969 83.09375 L 138.125 83.09375 L 138.125 95.683594 L 105.792969 95.683594 Z M 105.792969 83.09375 " clip-rule="nonzero"/></clipPath><clipPath id="663229a04a"><path d="M 106.839844 83.148438 C 122.683594 89.25 135.714844 92.457031 137.578125 94.121094 C 138.015625 94.476562 138.171875 94.914062 138.054688 95.152344 C 137.976562 95.386719 137.222656 95.707031 136.984375 95.585938 C 136.746094 95.46875 136.507812 94.714844 136.628906 94.476562 C 136.746094 94.238281 137.5 94.042969 137.738281 94.160156 C 137.933594 94.28125 138.171875 94.835938 138.09375 95.070312 C 137.976562 95.308594 137.65625 95.546875 137.0625 95.625 C 134.609375 95.824219 122.128906 90.714844 116.464844 88.65625 C 112.386719 87.148438 107.117188 85.722656 106.125 84.535156 C 105.808594 84.179688 105.730469 83.78125 105.847656 83.542969 C 105.96875 83.308594 106.839844 83.148438 106.839844 83.148438 " clip-rule="nonzero"/></clipPath><clipPath id="471fa9e954"><path d="M 103.949219 98.976562 L 135.921875 98.976562 L 135.921875 110.695312 L 103.949219 110.695312 Z M 103.949219 98.976562 " clip-rule="nonzero"/></clipPath><clipPath id="24b76f26fb"><path d="M 105.054688 98.992188 C 122.207031 105.964844 133.5 107.667969 135.320312 109.09375 C 135.757812 109.453125 135.953125 109.886719 135.875 110.125 C 135.757812 110.363281 135.042969 110.71875 134.804688 110.601562 C 134.566406 110.519531 134.289062 109.769531 134.371094 109.53125 C 134.488281 109.292969 135.203125 109.054688 135.480469 109.175781 C 135.714844 109.253906 135.953125 109.808594 135.875 110.046875 C 135.796875 110.28125 135.4375 110.558594 134.886719 110.640625 C 132.585938 110.957031 121.695312 107.429688 116.226562 105.53125 C 111.75 103.945312 105.53125 101.765625 104.34375 100.417969 C 103.988281 99.984375 103.90625 99.507812 104.027344 99.269531 C 104.144531 99.03125 105.054688 98.992188 105.054688 98.992188 " clip-rule="nonzero"/></clipPath><clipPath id="d76ab3ebe9"><path d="M 82.835938 70.898438 L 102.71875 70.898438 L 102.71875 92 L 82.835938 92 Z M 82.835938 70.898438 " clip-rule="nonzero"/></clipPath><clipPath id="55ea6d8757"><path d="M 89.117188 72.949219 C 86.660156 75.457031 86.3125 76.148438 85.96875 76.984375 C 85.578125 77.964844 85.132812 79.144531 84.984375 80.277344 C 84.789062 81.410156 84.691406 82.636719 85.035156 83.816406 C 85.429688 85.097656 86.414062 86.570312 87.496094 87.605469 C 88.574219 88.589844 90.148438 89.472656 91.527344 89.816406 C 92.707031 90.160156 94.082031 90.113281 95.117188 89.914062 C 95.953125 89.71875 96.691406 89.425781 97.328125 88.980469 C 97.96875 88.589844 98.507812 88.097656 98.953125 87.457031 C 99.542969 86.570312 100.082031 85.390625 100.328125 84.164062 C 100.671875 82.589844 100.773438 80.179688 100.425781 78.703125 C 100.179688 77.621094 99.691406 76.738281 99 76 C 98.3125 75.164062 97.378906 74.425781 96.296875 73.933594 C 95.019531 73.394531 93.101562 73.046875 91.675781 73 C 90.445312 72.902344 88.921875 73.640625 88.230469 73.34375 C 87.839844 73.195312 87.496094 72.703125 87.542969 72.410156 C 87.59375 72.066406 88.28125 71.425781 88.574219 71.425781 C 88.921875 71.476562 89.511719 72.210938 89.511719 72.558594 C 89.460938 72.902344 88.675781 73.394531 88.332031 73.394531 C 88.035156 73.394531 87.691406 73.046875 87.59375 72.804688 C 87.496094 72.558594 87.496094 72.113281 87.691406 71.867188 C 88.085938 71.425781 89.65625 71.128906 90.789062 71.03125 C 92.164062 70.886719 93.984375 71.128906 95.3125 71.476562 C 96.492188 71.820312 97.527344 72.261719 98.460938 72.902344 C 99.445312 73.589844 100.425781 74.574219 101.066406 75.558594 C 101.753906 76.539062 102.199219 77.574219 102.445312 78.800781 C 102.738281 80.277344 102.691406 82.34375 102.394531 83.964844 C 102.097656 85.488281 101.460938 87.160156 100.722656 88.292969 C 100.132812 89.277344 99.445312 90.015625 98.460938 90.605469 C 97.378906 91.292969 95.804688 91.785156 94.378906 91.933594 C 92.902344 92.078125 91.085938 91.832031 89.707031 91.34375 C 88.378906 90.851562 87.148438 90.015625 86.167969 89.078125 C 85.230469 88.195312 84.496094 87.015625 83.953125 86.03125 C 83.511719 85.246094 83.167969 84.605469 83.019531 83.816406 C 82.871094 83.03125 82.871094 82.34375 82.96875 81.410156 C 83.070312 80.082031 83.558594 77.917969 84.003906 76.636719 C 84.347656 75.65625 84.691406 74.964844 85.230469 74.179688 C 85.871094 73.246094 86.804688 71.917969 87.640625 71.476562 C 88.183594 71.179688 89.019531 71.128906 89.363281 71.328125 C 89.609375 71.476562 89.707031 71.917969 89.65625 72.210938 C 89.609375 72.457031 89.117188 72.949219 89.117188 72.949219 " clip-rule="nonzero"/></clipPath><clipPath id="75eb30bc51"><path d="M 84.664062 74.78125 L 90.957031 74.78125 L 90.957031 89.492188 L 84.664062 89.492188 Z M 84.664062 74.78125 " clip-rule="nonzero"/></clipPath><clipPath id="64ac3e731d"><path d="M 86.066406 74.820312 C 89.804688 77.328125 90.347656 79.292969 90.691406 80.964844 C 91.035156 82.734375 90.984375 85.144531 90.691406 86.621094 C 90.542969 87.652344 90.296875 88.734375 89.804688 89.128906 C 89.511719 89.425781 88.96875 89.472656 88.675781 89.375 C 88.378906 89.277344 88.132812 88.882812 88.132812 88.636719 C 88.085938 88.390625 88.183594 87.949219 88.429688 87.753906 C 88.675781 87.554688 89.3125 87.507812 89.609375 87.652344 C 89.855469 87.800781 90.101562 88.195312 90.050781 88.441406 C 90.050781 88.785156 89.410156 89.472656 89.066406 89.472656 C 88.773438 89.472656 88.28125 89.128906 88.132812 88.734375 C 87.839844 88 88.871094 86.128906 88.96875 84.753906 C 89.019531 83.375 88.921875 81.753906 88.675781 80.574219 C 88.476562 79.636719 88.332031 78.851562 87.789062 78.164062 C 87.148438 77.328125 85.035156 76.785156 84.742188 76.097656 C 84.59375 75.753906 84.742188 75.210938 84.9375 75.015625 C 85.183594 74.769531 86.066406 74.820312 86.066406 74.820312 " clip-rule="nonzero"/></clipPath><clipPath id="f47447e8ab"><path d="M 93.605469 74.757812 L 98.867188 74.757812 L 98.867188 90.109375 L 93.605469 90.109375 Z M 93.605469 74.757812 " clip-rule="nonzero"/></clipPath><clipPath id="f249de1b4f"><path d="M 97.722656 76.636719 C 95.65625 79.882812 95.609375 81.359375 95.65625 82.441406 C 95.753906 83.375 95.953125 84.113281 96.347656 85.046875 C 96.886719 86.226562 98.804688 88.046875 98.855469 88.933594 C 98.855469 89.375 98.558594 89.816406 98.3125 89.964844 C 98.066406 90.113281 97.574219 90.113281 97.378906 89.964844 C 97.132812 89.769531 96.835938 89.128906 96.9375 88.835938 C 96.984375 88.589844 97.28125 88.242188 97.527344 88.144531 C 97.820312 88.097656 98.261719 88.144531 98.460938 88.292969 C 98.707031 88.539062 98.902344 89.179688 98.804688 89.472656 C 98.65625 89.769531 98.164062 90.113281 97.773438 90.0625 C 97.132812 90.015625 96.199219 88.785156 95.609375 87.800781 C 94.773438 86.472656 93.9375 84.261719 93.691406 82.6875 C 93.542969 81.457031 93.738281 80.277344 93.9375 79.246094 C 94.132812 78.410156 94.28125 77.574219 94.773438 76.882812 C 95.3125 76.097656 96.492188 74.867188 97.183594 74.769531 C 97.574219 74.769531 98.164062 75.164062 98.261719 75.457031 C 98.363281 75.800781 97.722656 76.636719 97.722656 76.636719 " clip-rule="nonzero"/></clipPath></defs><g clip-path="url(#e4c84a07fd)"><g clip-path="url(#12b4904e47)"><path fill="#0571d3" d="M 92.65625 45.476562 L 136.042969 45.476562 L 136.042969 65.558594 L 92.65625 65.558594 Z M 92.65625 45.476562 " fill-opacity="1" fill-rule="nonzero"/></g></g><g clip-path="url(#3f55fe2752)"><g clip-path="url(#bdd84bc994)"><path fill="#0571d3" d="M 98.757812 53.753906 L 143.851562 53.753906 L 143.851562 68.691406 L 98.757812 68.691406 Z M 98.757812 53.753906 " fill-opacity="1" fill-rule="nonzero"/></g></g><g clip-path="url(#f380972a3b)"><g clip-path="url(#5ad0d9a7b7)"><path fill="#0571d3" d="M 108.226562 69.679688 L 141.113281 69.679688 L 141.113281 76.097656 L 108.226562 76.097656 Z M 108.226562 69.679688 " fill-opacity="1" fill-rule="nonzero"/></g></g><g clip-path="url(#9795b94cd3)"><g clip-path="url(#663229a04a)"><path fill="#0571d3" d="M 104.265625 81.5625 L 139.652344 81.5625 L 139.652344 97.210938 L 104.265625 97.210938 Z M 104.265625 81.5625 " fill-opacity="1" fill-rule="nonzero"/></g></g><g clip-path="url(#471fa9e954)"><g clip-path="url(#24b76f26fb)"><path fill="#0571d3" d="M 102.441406 97.410156 L 137.488281 97.410156 L 137.488281 112.265625 L 102.441406 112.265625 Z M 102.441406 97.410156 " fill-opacity="1" fill-rule="nonzero"/></g></g><g clip-path="url(#d76ab3ebe9)"><g clip-path="url(#55ea6d8757)"><path fill="#0571d3" d="M 81.003906 69.066406 L 104.460938 69.066406 L 104.460938 93.988281 L 81.003906 93.988281 Z M 81.003906 69.066406 " fill-opacity="1" fill-rule="nonzero"/></g></g><g clip-path="url(#75eb30bc51)"><g clip-path="url(#64ac3e731d)"><path fill="#0571d3" d="M 82.773438 72.851562 L 92.65625 72.851562 L 92.65625 91.5 L 82.773438 91.5 Z M 82.773438 72.851562 " fill-opacity="1" fill-rule="nonzero"/></g></g><g clip-path="url(#f47447e8ab)"><g clip-path="url(#f249de1b4f)"><path fill="#0571d3" d="M 91.722656 72.804688 L 100.820312 72.804688 L 100.820312 92.027344 L 91.722656 92.027344 Z M 91.722656 72.804688 " fill-opacity="1" fill-rule="nonzero"/></g></g><g fill="#1361ac" fill-opacity="1"><g transform="translate(18.213921, 138.90364)"><g><path d="M 6.578125 -8.71875 L 2.296875 -8.71875 L 2.296875 -5.359375 L 6.03125 -5.359375 L 6.03125 -4.359375 L 2.296875 -4.359375 L 2.296875 -1 L 6.578125 -1 L 6.578125 0 L 1.265625 0 L 1.265625 -9.734375 L 6.578125 -9.734375 Z M 6.578125 -8.71875 "/></g></g></g><g fill="#1361ac" fill-opacity="1"><g transform="translate(26.028689, 138.90364)"><g><path d="M 3.765625 -6.609375 C 4.179688 -6.609375 4.570312 -6.5 4.9375 -6.28125 C 5.300781 -6.0625 5.59375 -5.765625 5.8125 -5.390625 C 6.039062 -5.015625 6.15625 -4.597656 6.15625 -4.140625 L 6.15625 0 L 5.15625 0 L 5.15625 -4.140625 C 5.15625 -4.546875 5.007812 -4.890625 4.71875 -5.171875 C 4.4375 -5.460938 4.09375 -5.609375 3.6875 -5.609375 C 3.269531 -5.609375 2.914062 -5.460938 2.625 -5.171875 C 2.332031 -4.890625 2.1875 -4.546875 2.1875 -4.140625 L 2.1875 0 L 1.1875 0 L 1.1875 -6.484375 L 2.1875 -6.484375 L 2.1875 -5.96875 C 2.40625 -6.175781 2.644531 -6.332031 2.90625 -6.4375 C 3.175781 -6.550781 3.460938 -6.609375 3.765625 -6.609375 Z M 3.765625 -6.609375 "/></g></g></g><g fill="#1361ac" fill-opacity="1"><g transform="translate(33.551626, 138.90364)"><g><path d="M 7.46875 -3.3125 L 7.453125 -3.09375 L 1.734375 -3.09375 C 1.753906 -2.6875 1.875 -2.3125 2.09375 -1.96875 C 2.3125 -1.625 2.59375 -1.351562 2.9375 -1.15625 C 3.289062 -0.96875 3.675781 -0.875 4.09375 -0.875 C 4.582031 -0.875 5.023438 -1.003906 5.421875 -1.265625 C 5.816406 -1.523438 6.101562 -1.863281 6.28125 -2.28125 L 7.34375 -2.28125 C 7.207031 -1.820312 6.976562 -1.410156 6.65625 -1.046875 C 6.34375 -0.679688 5.96875 -0.394531 5.53125 -0.1875 C 5.09375 0.0195312 4.613281 0.125 4.09375 0.125 C 3.476562 0.125 2.914062 -0.0234375 2.40625 -0.328125 C 1.894531 -0.628906 1.488281 -1.035156 1.1875 -1.546875 C 0.882812 -2.054688 0.734375 -2.625 0.734375 -3.25 C 0.734375 -3.875 0.882812 -4.4375 1.1875 -4.9375 C 1.488281 -5.445312 1.894531 -5.851562 2.40625 -6.15625 C 2.914062 -6.457031 3.476562 -6.609375 4.09375 -6.609375 C 4.71875 -6.609375 5.28125 -6.460938 5.78125 -6.171875 C 6.28125 -5.878906 6.679688 -5.484375 6.984375 -4.984375 C 7.296875 -4.492188 7.457031 -3.9375 7.46875 -3.3125 Z M 4.09375 -5.609375 C 3.582031 -5.609375 3.125 -5.457031 2.71875 -5.15625 C 2.3125 -4.863281 2.023438 -4.476562 1.859375 -4 L 6.328125 -4 C 6.171875 -4.476562 5.890625 -4.863281 5.484375 -5.15625 C 5.078125 -5.457031 4.613281 -5.609375 4.09375 -5.609375 Z M 4.09375 -5.609375 "/></g></g></g><g fill="#1361ac" fill-opacity="1"><g transform="translate(41.950069, 138.90364)"><g><path d="M 4.34375 -6.609375 C 4.539062 -6.609375 4.707031 -6.59375 4.84375 -6.5625 L 4.84375 -5.546875 C 4.71875 -5.585938 4.550781 -5.609375 4.34375 -5.609375 C 3.957031 -5.609375 3.597656 -5.515625 3.265625 -5.328125 C 2.929688 -5.148438 2.664062 -4.90625 2.46875 -4.59375 C 2.28125 -4.28125 2.1875 -3.921875 2.1875 -3.515625 L 2.1875 0 L 1.1875 0 L 1.1875 -6.484375 L 2.1875 -6.484375 L 2.1875 -5.5625 C 2.4375 -5.882812 2.738281 -6.140625 3.09375 -6.328125 C 3.457031 -6.515625 3.875 -6.609375 4.34375 -6.609375 Z M 4.34375 -6.609375 "/></g></g></g><g fill="#1361ac" fill-opacity="1"><g transform="translate(47.138329, 138.90364)"><g><path d="M 6.453125 -6.484375 L 7.46875 -6.484375 L 7.46875 0.5625 C 7.46875 1.175781 7.316406 1.738281 7.015625 2.25 C 6.710938 2.769531 6.304688 3.179688 5.796875 3.484375 C 5.296875 3.785156 4.726562 3.9375 4.09375 3.9375 C 3.375 3.9375 2.722656 3.726562 2.140625 3.3125 C 1.566406 2.894531 1.160156 2.359375 0.921875 1.703125 L 1.84375 1.296875 C 2 1.765625 2.28125 2.15625 2.6875 2.46875 C 3.101562 2.78125 3.570312 2.9375 4.09375 2.9375 C 4.53125 2.9375 4.925781 2.828125 5.28125 2.609375 C 5.632812 2.390625 5.921875 2.101562 6.140625 1.75 C 6.359375 1.394531 6.46875 1 6.46875 0.5625 L 6.46875 -0.84375 C 6.164062 -0.539062 5.8125 -0.300781 5.40625 -0.125 C 5 0.0390625 4.5625 0.125 4.09375 0.125 C 3.476562 0.125 2.914062 -0.0234375 2.40625 -0.328125 C 1.894531 -0.628906 1.488281 -1.035156 1.1875 -1.546875 C 0.882812 -2.054688 0.734375 -2.625 0.734375 -3.25 C 0.734375 -3.875 0.882812 -4.4375 1.1875 -4.9375 C 1.488281 -5.445312 1.894531 -5.851562 2.40625 -6.15625 C 2.914062 -6.457031 3.476562 -6.609375 4.09375 -6.609375 C 4.550781 -6.609375 4.984375 -6.523438 5.390625 -6.359375 C 5.796875 -6.191406 6.148438 -5.960938 6.453125 -5.671875 Z M 4.09375 -0.875 C 4.53125 -0.875 4.925781 -0.984375 5.28125 -1.203125 C 5.632812 -1.421875 5.921875 -1.707031 6.140625 -2.0625 C 6.359375 -2.414062 6.46875 -2.8125 6.46875 -3.25 C 6.46875 -3.6875 6.359375 -4.082031 6.140625 -4.4375 C 5.921875 -4.800781 5.632812 -5.085938 5.28125 -5.296875 C 4.925781 -5.503906 4.53125 -5.609375 4.09375 -5.609375 C 3.664062 -5.609375 3.269531 -5.503906 2.90625 -5.296875 C 2.539062 -5.085938 2.253906 -4.800781 2.046875 -4.4375 C 1.835938 -4.082031 1.734375 -3.6875 1.734375 -3.25 C 1.734375 -2.8125 1.835938 -2.414062 2.046875 -2.0625 C 2.253906 -1.707031 2.539062 -1.421875 2.90625 -1.203125 C 3.269531 -0.984375 3.664062 -0.875 4.09375 -0.875 Z M 4.09375 -0.875 "/></g></g></g><g fill="#1361ac" fill-opacity="1"><g transform="translate(56.055583, 138.90364)"><g><path d="M 5.34375 -6.484375 L 6.484375 -6.484375 L 3.703125 0.484375 L 2.3125 3.890625 L 1.25 3.890625 L 2.796875 0.046875 L 0.140625 -6.484375 L 1.265625 -6.484375 L 3.34375 -1.171875 Z M 5.34375 -6.484375 "/></g></g></g><g fill="#1361ac" fill-opacity="1"><g transform="translate(62.946211, 138.90364)"><g><path d="M 2.015625 -5.21875 C 1.828125 -5.21875 1.660156 -5.285156 1.515625 -5.421875 C 1.378906 -5.554688 1.3125 -5.722656 1.3125 -5.921875 C 1.3125 -6.097656 1.378906 -6.253906 1.515625 -6.390625 C 1.660156 -6.535156 1.828125 -6.609375 2.015625 -6.609375 C 2.203125 -6.609375 2.363281 -6.535156 2.5 -6.390625 C 2.644531 -6.253906 2.71875 -6.097656 2.71875 -5.921875 C 2.71875 -5.722656 2.644531 -5.554688 2.5 -5.421875 C 2.363281 -5.285156 2.203125 -5.21875 2.015625 -5.21875 Z M 2.015625 0.125 C 1.828125 0.125 1.660156 0.0546875 1.515625 -0.078125 C 1.378906 -0.210938 1.3125 -0.375 1.3125 -0.5625 C 1.3125 -0.75 1.378906 -0.910156 1.515625 -1.046875 C 1.660156 -1.191406 1.828125 -1.265625 2.015625 -1.265625 C 2.203125 -1.265625 2.363281 -1.191406 2.5 -1.046875 C 2.644531 -0.910156 2.71875 -0.75 2.71875 -0.5625 C 2.71875 -0.375 2.644531 -0.210938 2.5 -0.078125 C 2.363281 0.0546875 2.203125 0.125 2.015625 0.125 Z M 2.015625 0.125 "/></g></g></g><g fill="#1361ac" fill-opacity="1"><g transform="translate(18.213921, 156.868171)"><g><path d="M 5.78125 0.125 C 5.09375 0.125 4.445312 -0.00390625 3.84375 -0.265625 C 3.25 -0.523438 2.722656 -0.882812 2.265625 -1.34375 C 1.804688 -1.800781 1.445312 -2.328125 1.1875 -2.921875 C 0.925781 -3.523438 0.796875 -4.171875 0.796875 -4.859375 C 0.796875 -5.554688 0.925781 -6.203125 1.1875 -6.796875 C 1.445312 -7.398438 1.804688 -7.929688 2.265625 -8.390625 C 2.722656 -8.847656 3.25 -9.207031 3.84375 -9.46875 C 4.445312 -9.726562 5.09375 -9.859375 5.78125 -9.859375 C 6.71875 -9.859375 7.566406 -9.625 8.328125 -9.15625 C 9.097656 -8.695312 9.695312 -8.085938 10.125 -7.328125 L 9.234375 -6.828125 C 8.898438 -7.429688 8.425781 -7.910156 7.8125 -8.265625 C 7.207031 -8.628906 6.53125 -8.8125 5.78125 -8.8125 C 5.0625 -8.8125 4.398438 -8.632812 3.796875 -8.28125 C 3.203125 -7.9375 2.722656 -7.460938 2.359375 -6.859375 C 2.003906 -6.265625 1.828125 -5.597656 1.828125 -4.859375 C 1.828125 -4.128906 2.003906 -3.460938 2.359375 -2.859375 C 2.722656 -2.265625 3.203125 -1.789062 3.796875 -1.4375 C 4.398438 -1.082031 5.0625 -0.90625 5.78125 -0.90625 C 6.53125 -0.90625 7.207031 -1.085938 7.8125 -1.453125 C 8.425781 -1.828125 8.898438 -2.3125 9.234375 -2.90625 L 10.125 -2.40625 C 9.695312 -1.644531 9.097656 -1.03125 8.328125 -0.5625 C 7.566406 -0.101562 6.71875 0.125 5.78125 0.125 Z M 5.78125 0.125 "/></g></g></g><g fill="#1361ac" fill-opacity="1"><g transform="translate(29.141596, 156.868171)"><g><path d="M 8.140625 -0.84375 L 8.546875 -0.84375 L 8.546875 0 C 8.398438 0.0820312 8.238281 0.125 8.0625 0.125 C 7.675781 0.125 7.359375 0.0234375 7.109375 -0.171875 C 6.859375 -0.378906 6.675781 -0.648438 6.5625 -0.984375 C 6.257812 -0.648438 5.894531 -0.378906 5.46875 -0.171875 C 5.039062 0.0234375 4.582031 0.125 4.09375 0.125 C 3.476562 0.125 2.914062 -0.0234375 2.40625 -0.328125 C 1.894531 -0.628906 1.488281 -1.035156 1.1875 -1.546875 C 0.882812 -2.054688 0.734375 -2.625 0.734375 -3.25 C 0.734375 -3.875 0.882812 -4.4375 1.1875 -4.9375 C 1.488281 -5.445312 1.894531 -5.851562 2.40625 -6.15625 C 2.914062 -6.457031 3.476562 -6.609375 4.09375 -6.609375 C 4.5625 -6.609375 5 -6.519531 5.40625 -6.34375 C 5.8125 -6.175781 6.164062 -5.941406 6.46875 -5.640625 L 6.46875 -6.484375 L 7.46875 -6.484375 L 7.46875 -1.6875 C 7.46875 -1.382812 7.535156 -1.164062 7.671875 -1.03125 C 7.804688 -0.90625 7.960938 -0.84375 8.140625 -0.84375 Z M 4.09375 -0.875 C 4.53125 -0.875 4.925781 -0.976562 5.28125 -1.1875 C 5.632812 -1.394531 5.921875 -1.679688 6.140625 -2.046875 C 6.359375 -2.410156 6.46875 -2.8125 6.46875 -3.25 C 6.46875 -3.6875 6.359375 -4.082031 6.140625 -4.4375 C 5.921875 -4.800781 5.632812 -5.085938 5.28125 -5.296875 C 4.925781 -5.503906 4.53125 -5.609375 4.09375 -5.609375 C 3.664062 -5.609375 3.269531 -5.503906 2.90625 -5.296875 C 2.539062 -5.085938 2.253906 -4.800781 2.046875 -4.4375 C 1.835938 -4.082031 1.734375 -3.6875 1.734375 -3.25 C 1.734375 -2.8125 1.835938 -2.410156 2.046875 -2.046875 C 2.253906 -1.679688 2.539062 -1.394531 2.90625 -1.1875 C 3.269531 -0.976562 3.664062 -0.875 4.09375 -0.875 Z M 4.09375 -0.875 "/></g></g></g><g fill="#1361ac" fill-opacity="1"><g transform="translate(38.139922, 156.868171)"><g><path d="M 4.5625 -6.609375 C 5.1875 -6.609375 5.75 -6.457031 6.25 -6.15625 C 6.757812 -5.851562 7.164062 -5.445312 7.46875 -4.9375 C 7.769531 -4.4375 7.921875 -3.875 7.921875 -3.25 C 7.921875 -2.625 7.769531 -2.054688 7.46875 -1.546875 C 7.164062 -1.035156 6.757812 -0.628906 6.25 -0.328125 C 5.75 -0.0234375 5.1875 0.125 4.5625 0.125 C 4.09375 0.125 3.65625 0.0390625 3.25 -0.125 C 2.851562 -0.300781 2.5 -0.539062 2.1875 -0.84375 L 2.1875 3.890625 L 1.1875 3.890625 L 1.1875 -6.484375 L 2.1875 -6.484375 L 2.1875 -5.640625 C 2.5 -5.941406 2.851562 -6.175781 3.25 -6.34375 C 3.65625 -6.519531 4.09375 -6.609375 4.5625 -6.609375 Z M 4.5625 -0.875 C 5 -0.875 5.394531 -0.976562 5.75 -1.1875 C 6.113281 -1.394531 6.398438 -1.679688 6.609375 -2.046875 C 6.816406 -2.410156 6.921875 -2.8125 6.921875 -3.25 C 6.921875 -3.6875 6.816406 -4.082031 6.609375 -4.4375 C 6.398438 -4.800781 6.113281 -5.085938 5.75 -5.296875 C 5.394531 -5.503906 5 -5.609375 4.5625 -5.609375 C 4.125 -5.609375 3.722656 -5.503906 3.359375 -5.296875 C 3.003906 -5.085938 2.71875 -4.800781 2.5 -4.4375 C 2.289062 -4.082031 2.1875 -3.6875 2.1875 -3.25 C 2.1875 -2.8125 2.289062 -2.410156 2.5 -2.046875 C 2.71875 -1.679688 3.003906 -1.394531 3.359375 -1.1875 C 3.722656 -0.976562 4.125 -0.875 4.5625 -0.875 Z M 4.5625 -0.875 "/></g></g></g><g fill="#1361ac" fill-opacity="1"><g transform="translate(47.057179, 156.868171)"><g><path d="M 4.171875 -5.515625 L 2.4375 -5.515625 L 2.4375 -1.828125 C 2.4375 -1.523438 2.53125 -1.285156 2.71875 -1.109375 C 2.914062 -0.929688 3.144531 -0.84375 3.40625 -0.84375 L 4.15625 -0.84375 L 4.15625 -0.078125 C 4.0625 -0.0234375 3.929688 0.0195312 3.765625 0.0625 C 3.609375 0.101562 3.453125 0.125 3.296875 0.125 C 2.953125 0.125 2.640625 0.046875 2.359375 -0.109375 C 2.085938 -0.273438 1.863281 -0.5 1.6875 -0.78125 C 1.507812 -1.0625 1.421875 -1.367188 1.421875 -1.703125 L 1.421875 -5.515625 L 0.34375 -5.515625 L 0.34375 -6.484375 L 1.421875 -6.484375 L 1.421875 -9.3125 L 2.4375 -9.3125 L 2.4375 -6.484375 L 4.171875 -6.484375 Z M 4.171875 -5.515625 "/></g></g></g><g fill="#1361ac" fill-opacity="1"><g transform="translate(52.018457, 156.868171)"><g><path d="M 3.40625 0.125 C 2.675781 0.125 2.085938 -0.09375 1.640625 -0.53125 C 1.191406 -0.976562 0.96875 -1.578125 0.96875 -2.328125 L 0.96875 -6.484375 L 1.96875 -6.484375 L 1.96875 -2.453125 C 1.96875 -1.960938 2.101562 -1.578125 2.375 -1.296875 C 2.644531 -1.015625 2.988281 -0.875 3.40625 -0.875 C 3.820312 -0.875 4.164062 -1.015625 4.4375 -1.296875 C 4.707031 -1.578125 4.84375 -1.960938 4.84375 -2.453125 L 4.84375 -6.484375 L 5.84375 -6.484375 L 5.84375 -2.328125 C 5.84375 -1.578125 5.613281 -0.976562 5.15625 -0.53125 C 4.707031 -0.09375 4.125 0.125 3.40625 0.125 Z M 3.40625 0.125 "/></g></g></g><g fill="#1361ac" fill-opacity="1"><g transform="translate(59.071213, 156.868171)"><g><path d="M 4.34375 -6.609375 C 4.539062 -6.609375 4.707031 -6.59375 4.84375 -6.5625 L 4.84375 -5.546875 C 4.71875 -5.585938 4.550781 -5.609375 4.34375 -5.609375 C 3.957031 -5.609375 3.597656 -5.515625 3.265625 -5.328125 C 2.929688 -5.148438 2.664062 -4.90625 2.46875 -4.59375 C 2.28125 -4.28125 2.1875 -3.921875 2.1875 -3.515625 L 2.1875 0 L 1.1875 0 L 1.1875 -6.484375 L 2.1875 -6.484375 L 2.1875 -5.5625 C 2.4375 -5.882812 2.738281 -6.140625 3.09375 -6.328125 C 3.457031 -6.515625 3.875 -6.609375 4.34375 -6.609375 Z M 4.34375 -6.609375 "/></g></g></g><g fill="#1361ac" fill-opacity="1"><g transform="translate(64.259471, 156.868171)"><g><path d="M 1.8125 -7.703125 C 1.625 -7.703125 1.457031 -7.769531 1.3125 -7.90625 C 1.175781 -8.039062 1.109375 -8.195312 1.109375 -8.375 C 1.109375 -8.582031 1.175781 -8.75 1.3125 -8.875 C 1.457031 -9.007812 1.625 -9.078125 1.8125 -9.078125 C 2 -9.078125 2.160156 -9.007812 2.296875 -8.875 C 2.441406 -8.75 2.515625 -8.582031 2.515625 -8.375 C 2.515625 -8.195312 2.441406 -8.039062 2.296875 -7.90625 C 2.160156 -7.769531 2 -7.703125 1.8125 -7.703125 Z M 1.3125 0 L 1.3125 -6.484375 L 2.3125 -6.484375 L 2.3125 0 Z M 1.3125 0 "/></g></g></g><g fill="#1361ac" fill-opacity="1"><g transform="translate(68.134469, 156.868171)"><g><path d="M 3.765625 -6.609375 C 4.179688 -6.609375 4.570312 -6.5 4.9375 -6.28125 C 5.300781 -6.0625 5.59375 -5.765625 5.8125 -5.390625 C 6.039062 -5.015625 6.15625 -4.597656 6.15625 -4.140625 L 6.15625 0 L 5.15625 0 L 5.15625 -4.140625 C 5.15625 -4.546875 5.007812 -4.890625 4.71875 -5.171875 C 4.4375 -5.460938 4.09375 -5.609375 3.6875 -5.609375 C 3.269531 -5.609375 2.914062 -5.460938 2.625 -5.171875 C 2.332031 -4.890625 2.1875 -4.546875 2.1875 -4.140625 L 2.1875 0 L 1.1875 0 L 1.1875 -6.484375 L 2.1875 -6.484375 L 2.1875 -5.96875 C 2.40625 -6.175781 2.644531 -6.332031 2.90625 -6.4375 C 3.175781 -6.550781 3.460938 -6.609375 3.765625 -6.609375 Z M 3.765625 -6.609375 "/></g></g></g><g fill="#1361ac" fill-opacity="1"><g transform="translate(75.657404, 156.868171)"><g><path d="M 6.453125 -6.484375 L 7.46875 -6.484375 L 7.46875 0.5625 C 7.46875 1.175781 7.316406 1.738281 7.015625 2.25 C 6.710938 2.769531 6.304688 3.179688 5.796875 3.484375 C 5.296875 3.785156 4.726562 3.9375 4.09375 3.9375 C 3.375 3.9375 2.722656 3.726562 2.140625 3.3125 C 1.566406 2.894531 1.160156 2.359375 0.921875 1.703125 L 1.84375 1.296875 C 2 1.765625 2.28125 2.15625 2.6875 2.46875 C 3.101562 2.78125 3.570312 2.9375 4.09375 2.9375 C 4.53125 2.9375 4.925781 2.828125 5.28125 2.609375 C 5.632812 2.390625 5.921875 2.101562 6.140625 1.75 C 6.359375 1.394531 6.46875 1 6.46875 0.5625 L 6.46875 -0.84375 C 6.164062 -0.539062 5.8125 -0.300781 5.40625 -0.125 C 5 0.0390625 4.5625 0.125 4.09375 0.125 C 3.476562 0.125 2.914062 -0.0234375 2.40625 -0.328125 C 1.894531 -0.628906 1.488281 -1.035156 1.1875 -1.546875 C 0.882812 -2.054688 0.734375 -2.625 0.734375 -3.25 C 0.734375 -3.875 0.882812 -4.4375 1.1875 -4.9375 C 1.488281 -5.445312 1.894531 -5.851562 2.40625 -6.15625 C 2.914062 -6.457031 3.476562 -6.609375 4.09375 -6.609375 C 4.550781 -6.609375 4.984375 -6.523438 5.390625 -6.359375 C 5.796875 -6.191406 6.148438 -5.960938 6.453125 -5.671875 Z M 4.09375 -0.875 C 4.53125 -0.875 4.925781 -0.984375 5.28125 -1.203125 C 5.632812 -1.421875 5.921875 -1.707031 6.140625 -2.0625 C 6.359375 -2.414062 6.46875 -2.8125 6.46875 -3.25 C 6.46875 -3.6875 6.359375 -4.082031 6.140625 -4.4375 C 5.921875 -4.800781 5.632812 -5.085938 5.28125 -5.296875 C 4.925781 -5.503906 4.53125 -5.609375 4.09375 -5.609375 C 3.664062 -5.609375 3.269531 -5.503906 2.90625 -5.296875 C 2.539062 -5.085938 2.253906 -4.800781 2.046875 -4.4375 C 1.835938 -4.082031 1.734375 -3.6875 1.734375 -3.25 C 1.734375 -2.8125 1.835938 -2.414062 2.046875 -2.0625 C 2.253906 -1.707031 2.539062 -1.421875 2.90625 -1.203125 C 3.269531 -0.984375 3.664062 -0.875 4.09375 -0.875 Z M 4.09375 -0.875 "/></g></g></g><g fill="#1361ac" fill-opacity="1"><g transform="translate(84.574658, 156.868171)"><g/></g></g><g fill="#1361ac" fill-opacity="1"><g transform="translate(88.741488, 156.868171)"><g><path d="M 4.171875 -5.515625 L 2.4375 -5.515625 L 2.4375 -1.828125 C 2.4375 -1.523438 2.53125 -1.285156 2.71875 -1.109375 C 2.914062 -0.929688 3.144531 -0.84375 3.40625 -0.84375 L 4.15625 -0.84375 L 4.15625 -0.078125 C 4.0625 -0.0234375 3.929688 0.0195312 3.765625 0.0625 C 3.609375 0.101562 3.453125 0.125 3.296875 0.125 C 2.953125 0.125 2.640625 0.046875 2.359375 -0.109375 C 2.085938 -0.273438 1.863281 -0.5 1.6875 -0.78125 C 1.507812 -1.0625 1.421875 -1.367188 1.421875 -1.703125 L 1.421875 -5.515625 L 0.34375 -5.515625 L 0.34375 -6.484375 L 1.421875 -6.484375 L 1.421875 -9.3125 L 2.4375 -9.3125 L 2.4375 -6.484375 L 4.171875 -6.484375 Z M 4.171875 -5.515625 "/></g></g></g><g fill="#1361ac" fill-opacity="1"><g transform="translate(93.702766, 156.868171)"><g><path d="M 3.625 -6.609375 C 4.082031 -6.609375 4.5 -6.5 4.875 -6.28125 C 5.25 -6.0625 5.539062 -5.765625 5.75 -5.390625 C 5.96875 -5.023438 6.078125 -4.613281 6.078125 -4.15625 L 6.078125 0 L 5.09375 0 L 5.09375 -4.15625 C 5.09375 -4.5625 4.945312 -4.90625 4.65625 -5.1875 C 4.375 -5.46875 4.03125 -5.609375 3.625 -5.609375 C 3.226562 -5.609375 2.890625 -5.46875 2.609375 -5.1875 C 2.328125 -4.90625 2.1875 -4.5625 2.1875 -4.15625 L 2.1875 0 L 1.1875 0 L 1.1875 -11.9375 L 2.1875 -11.9375 L 2.1875 -6.140625 C 2.394531 -6.296875 2.617188 -6.410156 2.859375 -6.484375 C 3.097656 -6.566406 3.351562 -6.609375 3.625 -6.609375 Z M 3.625 -6.609375 "/></g></g></g><g fill="#1361ac" fill-opacity="1"><g transform="translate(101.144631, 156.868171)"><g><path d="M 7.46875 -3.3125 L 7.453125 -3.09375 L 1.734375 -3.09375 C 1.753906 -2.6875 1.875 -2.3125 2.09375 -1.96875 C 2.3125 -1.625 2.59375 -1.351562 2.9375 -1.15625 C 3.289062 -0.96875 3.675781 -0.875 4.09375 -0.875 C 4.582031 -0.875 5.023438 -1.003906 5.421875 -1.265625 C 5.816406 -1.523438 6.101562 -1.863281 6.28125 -2.28125 L 7.34375 -2.28125 C 7.207031 -1.820312 6.976562 -1.410156 6.65625 -1.046875 C 6.34375 -0.679688 5.96875 -0.394531 5.53125 -0.1875 C 5.09375 0.0195312 4.613281 0.125 4.09375 0.125 C 3.476562 0.125 2.914062 -0.0234375 2.40625 -0.328125 C 1.894531 -0.628906 1.488281 -1.035156 1.1875 -1.546875 C 0.882812 -2.054688 0.734375 -2.625 0.734375 -3.25 C 0.734375 -3.875 0.882812 -4.4375 1.1875 -4.9375 C 1.488281 -5.445312 1.894531 -5.851562 2.40625 -6.15625 C 2.914062 -6.457031 3.476562 -6.609375 4.09375 -6.609375 C 4.71875 -6.609375 5.28125 -6.460938 5.78125 -6.171875 C 6.28125 -5.878906 6.679688 -5.484375 6.984375 -4.984375 C 7.296875 -4.492188 7.457031 -3.9375 7.46875 -3.3125 Z M 4.09375 -5.609375 C 3.582031 -5.609375 3.125 -5.457031 2.71875 -5.15625 C 2.3125 -4.863281 2.023438 -4.476562 1.859375 -4 L 6.328125 -4 C 6.171875 -4.476562 5.890625 -4.863281 5.484375 -5.15625 C 5.078125 -5.457031 4.613281 -5.609375 4.09375 -5.609375 Z M 4.09375 -5.609375 "/></g></g></g><g fill="#1361ac" fill-opacity="1"><g transform="translate(109.543073, 156.868171)"><g/></g></g><g fill="#1361ac" fill-opacity="1"><g transform="translate(113.709903, 156.868171)"><g><path d="M 5.234375 -6.484375 L 6.328125 -6.484375 L 3.71875 0 L 2.734375 0 L 0.140625 -6.484375 L 1.234375 -6.484375 L 3.25 -1.171875 Z M 5.234375 -6.484375 "/></g></g></g><g fill="#1361ac" fill-opacity="1"><g transform="translate(120.438407, 156.868171)"><g><path d="M 1.8125 -7.703125 C 1.625 -7.703125 1.457031 -7.769531 1.3125 -7.90625 C 1.175781 -8.039062 1.109375 -8.195312 1.109375 -8.375 C 1.109375 -8.582031 1.175781 -8.75 1.3125 -8.875 C 1.457031 -9.007812 1.625 -9.078125 1.8125 -9.078125 C 2 -9.078125 2.160156 -9.007812 2.296875 -8.875 C 2.441406 -8.75 2.515625 -8.582031 2.515625 -8.375 C 2.515625 -8.195312 2.441406 -8.039062 2.296875 -7.90625 C 2.160156 -7.769531 2 -7.703125 1.8125 -7.703125 Z M 1.3125 0 L 1.3125 -6.484375 L 2.3125 -6.484375 L 2.3125 0 Z M 1.3125 0 "/></g></g></g><g fill="#1361ac" fill-opacity="1"><g transform="translate(124.313405, 156.868171)"><g><path d="M 4.5625 -6.609375 C 5.1875 -6.609375 5.75 -6.457031 6.25 -6.15625 C 6.757812 -5.851562 7.164062 -5.445312 7.46875 -4.9375 C 7.769531 -4.4375 7.921875 -3.875 7.921875 -3.25 C 7.921875 -2.625 7.769531 -2.054688 7.46875 -1.546875 C 7.164062 -1.035156 6.757812 -0.628906 6.25 -0.328125 C 5.75 -0.0234375 5.1875 0.125 4.5625 0.125 C 4.09375 0.125 3.65625 0.0390625 3.25 -0.125 C 2.851562 -0.300781 2.5 -0.539062 2.1875 -0.84375 L 2.1875 0 L 1.1875 0 L 1.1875 -11.9375 L 2.1875 -11.9375 L 2.1875 -5.640625 C 2.5 -5.941406 2.851562 -6.175781 3.25 -6.34375 C 3.65625 -6.519531 4.09375 -6.609375 4.5625 -6.609375 Z M 4.5625 -0.875 C 5 -0.875 5.394531 -0.976562 5.75 -1.1875 C 6.113281 -1.394531 6.398438 -1.679688 6.609375 -2.046875 C 6.816406 -2.410156 6.921875 -2.8125 6.921875 -3.25 C 6.921875 -3.6875 6.816406 -4.082031 6.609375 -4.4375 C 6.398438 -4.800781 6.113281 -5.085938 5.75 -5.296875 C 5.394531 -5.503906 5 -5.609375 4.5625 -5.609375 C 4.125 -5.609375 3.722656 -5.503906 3.359375 -5.296875 C 3.003906 -5.085938 2.71875 -4.800781 2.5 -4.4375 C 2.289062 -4.082031 2.1875 -3.6875 2.1875 -3.25 C 2.1875 -2.8125 2.289062 -2.410156 2.5 -2.046875 C 2.71875 -1.679688 3.003906 -1.394531 3.359375 -1.1875 C 3.722656 -0.976562 4.125 -0.875 4.5625 -0.875 Z M 4.5625 -0.875 "/></g></g></g><g fill="#1361ac" fill-opacity="1"><g transform="translate(133.230659, 156.868171)"><g><path d="M 4.34375 -6.609375 C 4.539062 -6.609375 4.707031 -6.59375 4.84375 -6.5625 L 4.84375 -5.546875 C 4.71875 -5.585938 4.550781 -5.609375 4.34375 -5.609375 C 3.957031 -5.609375 3.597656 -5.515625 3.265625 -5.328125 C 2.929688 -5.148438 2.664062 -4.90625 2.46875 -4.59375 C 2.28125 -4.28125 2.1875 -3.921875 2.1875 -3.515625 L 2.1875 0 L 1.1875 0 L 1.1875 -6.484375 L 2.1875 -6.484375 L 2.1875 -5.5625 C 2.4375 -5.882812 2.738281 -6.140625 3.09375 -6.328125 C 3.457031 -6.515625 3.875 -6.609375 4.34375 -6.609375 Z M 4.34375 -6.609375 "/></g></g></g><g fill="#1361ac" fill-opacity="1"><g transform="translate(138.418917, 156.868171)"><g><path d="M 8.140625 -0.84375 L 8.546875 -0.84375 L 8.546875 0 C 8.398438 0.0820312 8.238281 0.125 8.0625 0.125 C 7.675781 0.125 7.359375 0.0234375 7.109375 -0.171875 C 6.859375 -0.378906 6.675781 -0.648438 6.5625 -0.984375 C 6.257812 -0.648438 5.894531 -0.378906 5.46875 -0.171875 C 5.039062 0.0234375 4.582031 0.125 4.09375 0.125 C 3.476562 0.125 2.914062 -0.0234375 2.40625 -0.328125 C 1.894531 -0.628906 1.488281 -1.035156 1.1875 -1.546875 C 0.882812 -2.054688 0.734375 -2.625 0.734375 -3.25 C 0.734375 -3.875 0.882812 -4.4375 1.1875 -4.9375 C 1.488281 -5.445312 1.894531 -5.851562 2.40625 -6.15625 C 2.914062 -6.457031 3.476562 -6.609375 4.09375 -6.609375 C 4.5625 -6.609375 5 -6.519531 5.40625 -6.34375 C 5.8125 -6.175781 6.164062 -5.941406 6.46875 -5.640625 L 6.46875 -6.484375 L 7.46875 -6.484375 L 7.46875 -1.6875 C 7.46875 -1.382812 7.535156 -1.164062 7.671875 -1.03125 C 7.804688 -0.90625 7.960938 -0.84375 8.140625 -0.84375 Z M 4.09375 -0.875 C 4.53125 -0.875 4.925781 -0.976562 5.28125 -1.1875 C 5.632812 -1.394531 5.921875 -1.679688 6.140625 -2.046875 C 6.359375 -2.410156 6.46875 -2.8125 6.46875 -3.25 C 6.46875 -3.6875 6.359375 -4.082031 6.140625 -4.4375 C 5.921875 -4.800781 5.632812 -5.085938 5.28125 -5.296875 C 4.925781 -5.503906 4.53125 -5.609375 4.09375 -5.609375 C 3.664062 -5.609375 3.269531 -5.503906 2.90625 -5.296875 C 2.539062 -5.085938 2.253906 -4.800781 2.046875 -4.4375 C 1.835938 -4.082031 1.734375 -3.6875 1.734375 -3.25 C 1.734375 -2.8125 1.835938 -2.410156 2.046875 -2.046875 C 2.253906 -1.679688 2.539062 -1.394531 2.90625 -1.1875 C 3.269531 -0.976562 3.664062 -0.875 4.09375 -0.875 Z M 4.09375 -0.875 "/></g></g></g><g fill="#1361ac" fill-opacity="1"><g transform="translate(147.417242, 156.868171)"><g><path d="M 3.765625 -6.609375 C 4.179688 -6.609375 4.570312 -6.5 4.9375 -6.28125 C 5.300781 -6.0625 5.59375 -5.765625 5.8125 -5.390625 C 6.039062 -5.015625 6.15625 -4.597656 6.15625 -4.140625 L 6.15625 0 L 5.15625 0 L 5.15625 -4.140625 C 5.15625 -4.546875 5.007812 -4.890625 4.71875 -5.171875 C 4.4375 -5.460938 4.09375 -5.609375 3.6875 -5.609375 C 3.269531 -5.609375 2.914062 -5.460938 2.625 -5.171875 C 2.332031 -4.890625 2.1875 -4.546875 2.1875 -4.140625 L 2.1875 0 L 1.1875 0 L 1.1875 -6.484375 L 2.1875 -6.484375 L 2.1875 -5.96875 C 2.40625 -6.175781 2.644531 -6.332031 2.90625 -6.4375 C 3.175781 -6.550781 3.460938 -6.609375 3.765625 -6.609375 Z M 3.765625 -6.609375 "/></g></g></g><g fill="#1361ac" fill-opacity="1"><g transform="translate(154.940177, 156.868171)"><g><path d="M 4.09375 0.125 C 3.476562 0.125 2.914062 -0.0234375 2.40625 -0.328125 C 1.894531 -0.628906 1.488281 -1.035156 1.1875 -1.546875 C 0.882812 -2.054688 0.734375 -2.625 0.734375 -3.25 C 0.734375 -3.875 0.882812 -4.4375 1.1875 -4.9375 C 1.488281 -5.445312 1.894531 -5.851562 2.40625 -6.15625 C 2.914062 -6.457031 3.476562 -6.609375 4.09375 -6.609375 C 4.851562 -6.609375 5.523438 -6.390625 6.109375 -5.953125 C 6.691406 -5.515625 7.09375 -4.957031 7.3125 -4.28125 L 6.234375 -4.28125 C 6.046875 -4.675781 5.757812 -4.992188 5.375 -5.234375 C 5 -5.484375 4.570312 -5.609375 4.09375 -5.609375 C 3.664062 -5.609375 3.269531 -5.503906 2.90625 -5.296875 C 2.539062 -5.085938 2.253906 -4.800781 2.046875 -4.4375 C 1.835938 -4.082031 1.734375 -3.6875 1.734375 -3.25 C 1.734375 -2.800781 1.835938 -2.394531 2.046875 -2.03125 C 2.253906 -1.675781 2.539062 -1.394531 2.90625 -1.1875 C 3.269531 -0.976562 3.664062 -0.875 4.09375 -0.875 C 4.570312 -0.875 5 -0.992188 5.375 -1.234375 C 5.757812 -1.484375 6.046875 -1.804688 6.234375 -2.203125 L 7.3125 -2.203125 C 7.09375 -1.523438 6.691406 -0.96875 6.109375 -0.53125 C 5.523438 -0.09375 4.851562 0.125 4.09375 0.125 Z M 4.09375 0.125 "/></g></g></g><g fill="#1361ac" fill-opacity="1"><g transform="translate(162.933291, 156.868171)"><g><path d="M 5.34375 -6.484375 L 6.484375 -6.484375 L 3.703125 0.484375 L 2.3125 3.890625 L 1.25 3.890625 L 2.796875 0.046875 L 0.140625 -6.484375 L 1.265625 -6.484375 L 3.34375 -1.171875 Z M 5.34375 -6.484375 "/></g></g></g><g fill="#1361ac" fill-opacity="1"><g transform="translate(169.823919, 156.868171)"><g/></g></g><g fill="#1361ac" fill-opacity="1"><g transform="translate(173.990748, 156.868171)"><g><path d="M 8.171875 -5.421875 L 8.171875 -4.421875 L 7.265625 -4.421875 L 7.265625 -2.75 C 7.265625 -2.226562 7.140625 -1.757812 6.890625 -1.34375 C 6.648438 -0.925781 6.3125 -0.597656 5.875 -0.359375 C 5.4375 -0.117188 4.925781 0 4.34375 0 C 3.78125 0 3.269531 -0.113281 2.8125 -0.34375 C 2.351562 -0.570312 1.988281 -0.882812 1.71875 -1.28125 C 1.445312 -1.6875 1.3125 -2.144531 1.3125 -2.65625 C 1.3125 -3.132812 1.425781 -3.578125 1.65625 -3.984375 C 1.894531 -4.398438 2.195312 -4.722656 2.5625 -4.953125 C 2.207031 -5.210938 1.921875 -5.535156 1.703125 -5.921875 C 1.492188 -6.316406 1.390625 -6.75 1.390625 -7.21875 C 1.390625 -7.707031 1.503906 -8.140625 1.734375 -8.515625 C 1.960938 -8.890625 2.265625 -9.1875 2.640625 -9.40625 C 3.023438 -9.625 3.453125 -9.734375 3.921875 -9.734375 L 6.21875 -9.734375 L 6.21875 -8.6875 L 4.09375 -8.6875 C 3.65625 -8.6875 3.265625 -8.554688 2.921875 -8.296875 C 2.585938 -8.035156 2.421875 -7.660156 2.421875 -7.171875 C 2.421875 -6.660156 2.597656 -6.238281 2.953125 -5.90625 C 3.316406 -5.582031 3.757812 -5.421875 4.28125 -5.421875 L 6.25 -5.421875 L 6.25 -7.046875 L 7.265625 -7.046875 L 7.265625 -5.421875 Z M 4.328125 -0.890625 C 4.921875 -0.890625 5.390625 -1.066406 5.734375 -1.421875 C 6.078125 -1.785156 6.25 -2.226562 6.25 -2.75 L 6.25 -4.421875 L 4.0625 -4.421875 C 3.570312 -4.421875 3.144531 -4.253906 2.78125 -3.921875 C 2.425781 -3.585938 2.25 -3.175781 2.25 -2.6875 C 2.25 -2.15625 2.453125 -1.722656 2.859375 -1.390625 C 3.273438 -1.054688 3.765625 -0.890625 4.328125 -0.890625 Z M 4.328125 -0.890625 "/></g></g></g><g fill="#1361ac" fill-opacity="1"><g transform="translate(18.213921, 174.832703)"><g><path d="M 4.5625 -6.609375 C 5.1875 -6.609375 5.75 -6.457031 6.25 -6.15625 C 6.757812 -5.851562 7.164062 -5.445312 7.46875 -4.9375 C 7.769531 -4.4375 7.921875 -3.875 7.921875 -3.25 C 7.921875 -2.625 7.769531 -2.054688 7.46875 -1.546875 C 7.164062 -1.035156 6.757812 -0.628906 6.25 -0.328125 C 5.75 -0.0234375 5.1875 0.125 4.5625 0.125 C 4.09375 0.125 3.65625 0.0390625 3.25 -0.125 C 2.851562 -0.300781 2.5 -0.539062 2.1875 -0.84375 L 2.1875 3.890625 L 1.1875 3.890625 L 1.1875 -6.484375 L 2.1875 -6.484375 L 2.1875 -5.640625 C 2.5 -5.941406 2.851562 -6.175781 3.25 -6.34375 C 3.65625 -6.519531 4.09375 -6.609375 4.5625 -6.609375 Z M 4.5625 -0.875 C 5 -0.875 5.394531 -0.976562 5.75 -1.1875 C 6.113281 -1.394531 6.398438 -1.679688 6.609375 -2.046875 C 6.816406 -2.410156 6.921875 -2.8125 6.921875 -3.25 C 6.921875 -3.6875 6.816406 -4.082031 6.609375 -4.4375 C 6.398438 -4.800781 6.113281 -5.085938 5.75 -5.296875 C 5.394531 -5.503906 5 -5.609375 4.5625 -5.609375 C 4.125 -5.609375 3.722656 -5.503906 3.359375 -5.296875 C 3.003906 -5.085938 2.71875 -4.800781 2.5 -4.4375 C 2.289062 -4.082031 2.1875 -3.6875 2.1875 -3.25 C 2.1875 -2.8125 2.289062 -2.410156 2.5 -2.046875 C 2.71875 -1.679688 3.003906 -1.394531 3.359375 -1.1875 C 3.722656 -0.976562 4.125 -0.875 4.5625 -0.875 Z M 4.5625 -0.875 "/></g></g></g><g fill="#1361ac" fill-opacity="1"><g transform="translate(27.131176, 174.832703)"><g><path d="M 8.140625 -0.84375 L 8.546875 -0.84375 L 8.546875 0 C 8.398438 0.0820312 8.238281 0.125 8.0625 0.125 C 7.675781 0.125 7.359375 0.0234375 7.109375 -0.171875 C 6.859375 -0.378906 6.675781 -0.648438 6.5625 -0.984375 C 6.257812 -0.648438 5.894531 -0.378906 5.46875 -0.171875 C 5.039062 0.0234375 4.582031 0.125 4.09375 0.125 C 3.476562 0.125 2.914062 -0.0234375 2.40625 -0.328125 C 1.894531 -0.628906 1.488281 -1.035156 1.1875 -1.546875 C 0.882812 -2.054688 0.734375 -2.625 0.734375 -3.25 C 0.734375 -3.875 0.882812 -4.4375 1.1875 -4.9375 C 1.488281 -5.445312 1.894531 -5.851562 2.40625 -6.15625 C 2.914062 -6.457031 3.476562 -6.609375 4.09375 -6.609375 C 4.5625 -6.609375 5 -6.519531 5.40625 -6.34375 C 5.8125 -6.175781 6.164062 -5.941406 6.46875 -5.640625 L 6.46875 -6.484375 L 7.46875 -6.484375 L 7.46875 -1.6875 C 7.46875 -1.382812 7.535156 -1.164062 7.671875 -1.03125 C 7.804688 -0.90625 7.960938 -0.84375 8.140625 -0.84375 Z M 4.09375 -0.875 C 4.53125 -0.875 4.925781 -0.976562 5.28125 -1.1875 C 5.632812 -1.394531 5.921875 -1.679688 6.140625 -2.046875 C 6.359375 -2.410156 6.46875 -2.8125 6.46875 -3.25 C 6.46875 -3.6875 6.359375 -4.082031 6.140625 -4.4375 C 5.921875 -4.800781 5.632812 -5.085938 5.28125 -5.296875 C 4.925781 -5.503906 4.53125 -5.609375 4.09375 -5.609375 C 3.664062 -5.609375 3.269531 -5.503906 2.90625 -5.296875 C 2.539062 -5.085938 2.253906 -4.800781 2.046875 -4.4375 C 1.835938 -4.082031 1.734375 -3.6875 1.734375 -3.25 C 1.734375 -2.8125 1.835938 -2.410156 2.046875 -2.046875 C 2.253906 -1.679688 2.539062 -1.394531 2.90625 -1.1875 C 3.269531 -0.976562 3.664062 -0.875 4.09375 -0.875 Z M 4.09375 -0.875 "/></g></g></g><g fill="#1361ac" fill-opacity="1"><g transform="translate(36.129502, 174.832703)"><g><path d="M 4.09375 0.125 C 3.476562 0.125 2.914062 -0.0234375 2.40625 -0.328125 C 1.894531 -0.628906 1.488281 -1.035156 1.1875 -1.546875 C 0.882812 -2.054688 0.734375 -2.625 0.734375 -3.25 C 0.734375 -3.875 0.882812 -4.4375 1.1875 -4.9375 C 1.488281 -5.445312 1.894531 -5.851562 2.40625 -6.15625 C 2.914062 -6.457031 3.476562 -6.609375 4.09375 -6.609375 C 4.851562 -6.609375 5.523438 -6.390625 6.109375 -5.953125 C 6.691406 -5.515625 7.09375 -4.957031 7.3125 -4.28125 L 6.234375 -4.28125 C 6.046875 -4.675781 5.757812 -4.992188 5.375 -5.234375 C 5 -5.484375 4.570312 -5.609375 4.09375 -5.609375 C 3.664062 -5.609375 3.269531 -5.503906 2.90625 -5.296875 C 2.539062 -5.085938 2.253906 -4.800781 2.046875 -4.4375 C 1.835938 -4.082031 1.734375 -3.6875 1.734375 -3.25 C 1.734375 -2.800781 1.835938 -2.394531 2.046875 -2.03125 C 2.253906 -1.675781 2.539062 -1.394531 2.90625 -1.1875 C 3.269531 -0.976562 3.664062 -0.875 4.09375 -0.875 C 4.570312 -0.875 5 -0.992188 5.375 -1.234375 C 5.757812 -1.484375 6.046875 -1.804688 6.234375 -2.203125 L 7.3125 -2.203125 C 7.09375 -1.523438 6.691406 -0.96875 6.109375 -0.53125 C 5.523438 -0.09375 4.851562 0.125 4.09375 0.125 Z M 4.09375 0.125 "/></g></g></g><g fill="#1361ac" fill-opacity="1"><g transform="translate(44.122619, 174.832703)"><g><path d="M 7.46875 -3.3125 L 7.453125 -3.09375 L 1.734375 -3.09375 C 1.753906 -2.6875 1.875 -2.3125 2.09375 -1.96875 C 2.3125 -1.625 2.59375 -1.351562 2.9375 -1.15625 C 3.289062 -0.96875 3.675781 -0.875 4.09375 -0.875 C 4.582031 -0.875 5.023438 -1.003906 5.421875 -1.265625 C 5.816406 -1.523438 6.101562 -1.863281 6.28125 -2.28125 L 7.34375 -2.28125 C 7.207031 -1.820312 6.976562 -1.410156 6.65625 -1.046875 C 6.34375 -0.679688 5.96875 -0.394531 5.53125 -0.1875 C 5.09375 0.0195312 4.613281 0.125 4.09375 0.125 C 3.476562 0.125 2.914062 -0.0234375 2.40625 -0.328125 C 1.894531 -0.628906 1.488281 -1.035156 1.1875 -1.546875 C 0.882812 -2.054688 0.734375 -2.625 0.734375 -3.25 C 0.734375 -3.875 0.882812 -4.4375 1.1875 -4.9375 C 1.488281 -5.445312 1.894531 -5.851562 2.40625 -6.15625 C 2.914062 -6.457031 3.476562 -6.609375 4.09375 -6.609375 C 4.71875 -6.609375 5.28125 -6.460938 5.78125 -6.171875 C 6.28125 -5.878906 6.679688 -5.484375 6.984375 -4.984375 C 7.296875 -4.492188 7.457031 -3.9375 7.46875 -3.3125 Z M 4.09375 -5.609375 C 3.582031 -5.609375 3.125 -5.457031 2.71875 -5.15625 C 2.3125 -4.863281 2.023438 -4.476562 1.859375 -4 L 6.328125 -4 C 6.171875 -4.476562 5.890625 -4.863281 5.484375 -5.15625 C 5.078125 -5.457031 4.613281 -5.609375 4.09375 -5.609375 Z M 4.09375 -5.609375 "/></g></g></g><g fill="#1361ac" fill-opacity="1"><g transform="translate(52.521062, 174.832703)"><g/></g></g><g fill="#1361ac" fill-opacity="1"><g transform="translate(56.687891, 174.832703)"><g><path d="M 4.09375 0.125 C 3.476562 0.125 2.914062 -0.0234375 2.40625 -0.328125 C 1.894531 -0.628906 1.488281 -1.035156 1.1875 -1.546875 C 0.882812 -2.054688 0.734375 -2.625 0.734375 -3.25 C 0.734375 -3.875 0.882812 -4.4375 1.1875 -4.9375 C 1.488281 -5.445312 1.894531 -5.851562 2.40625 -6.15625 C 2.914062 -6.457031 3.476562 -6.609375 4.09375 -6.609375 C 4.726562 -6.609375 5.296875 -6.457031 5.796875 -6.15625 C 6.304688 -5.851562 6.710938 -5.445312 7.015625 -4.9375 C 7.316406 -4.4375 7.46875 -3.875 7.46875 -3.25 C 7.46875 -2.625 7.316406 -2.054688 7.015625 -1.546875 C 6.710938 -1.035156 6.304688 -0.628906 5.796875 -0.328125 C 5.296875 -0.0234375 4.726562 0.125 4.09375 0.125 Z M 4.09375 -0.875 C 4.53125 -0.875 4.925781 -0.976562 5.28125 -1.1875 C 5.632812 -1.394531 5.921875 -1.679688 6.140625 -2.046875 C 6.359375 -2.410156 6.46875 -2.8125 6.46875 -3.25 C 6.46875 -3.6875 6.359375 -4.082031 6.140625 -4.4375 C 5.921875 -4.800781 5.632812 -5.085938 5.28125 -5.296875 C 4.925781 -5.503906 4.53125 -5.609375 4.09375 -5.609375 C 3.664062 -5.609375 3.269531 -5.503906 2.90625 -5.296875 C 2.539062 -5.085938 2.253906 -4.800781 2.046875 -4.4375 C 1.835938 -4.082031 1.734375 -3.6875 1.734375 -3.25 C 1.734375 -2.8125 1.835938 -2.410156 2.046875 -2.046875 C 2.253906 -1.679688 2.539062 -1.394531 2.90625 -1.1875 C 3.269531 -0.976562 3.664062 -0.875 4.09375 -0.875 Z M 4.09375 -0.875 "/></g></g></g><g fill="#1361ac" fill-opacity="1"><g transform="translate(65.151185, 174.832703)"><g><path d="M 4.296875 -6.484375 L 4.296875 -5.515625 L 2.5625 -5.515625 L 2.5625 0 L 1.5625 0 L 1.5625 -5.515625 L 0.46875 -5.515625 L 0.46875 -6.484375 L 1.5625 -6.484375 L 1.5625 -10.09375 C 1.5625 -10.445312 1.644531 -10.757812 1.8125 -11.03125 C 1.988281 -11.300781 2.21875 -11.519531 2.5 -11.6875 C 2.78125 -11.851562 3.085938 -11.9375 3.421875 -11.9375 C 3.578125 -11.9375 3.738281 -11.910156 3.90625 -11.859375 C 4.070312 -11.816406 4.195312 -11.769531 4.28125 -11.71875 L 4.28125 -10.9375 L 3.53125 -10.953125 C 3.269531 -10.953125 3.039062 -10.863281 2.84375 -10.6875 C 2.65625 -10.507812 2.5625 -10.269531 2.5625 -9.96875 L 2.5625 -6.484375 Z M 4.296875 -6.484375 "/></g></g></g><g fill="#1361ac" fill-opacity="1"><g transform="translate(69.885471, 174.832703)"><g/></g></g><g fill="#1361ac" fill-opacity="1"><g transform="translate(74.052301, 174.832703)"><g><path d="M 4.5625 -6.609375 C 5.1875 -6.609375 5.75 -6.457031 6.25 -6.15625 C 6.757812 -5.851562 7.164062 -5.445312 7.46875 -4.9375 C 7.769531 -4.4375 7.921875 -3.875 7.921875 -3.25 C 7.921875 -2.625 7.769531 -2.054688 7.46875 -1.546875 C 7.164062 -1.035156 6.757812 -0.628906 6.25 -0.328125 C 5.75 -0.0234375 5.1875 0.125 4.5625 0.125 C 4.09375 0.125 3.65625 0.0390625 3.25 -0.125 C 2.851562 -0.300781 2.5 -0.539062 2.1875 -0.84375 L 2.1875 0 L 1.1875 0 L 1.1875 -11.9375 L 2.1875 -11.9375 L 2.1875 -5.640625 C 2.5 -5.941406 2.851562 -6.175781 3.25 -6.34375 C 3.65625 -6.519531 4.09375 -6.609375 4.5625 -6.609375 Z M 4.5625 -0.875 C 5 -0.875 5.394531 -0.976562 5.75 -1.1875 C 6.113281 -1.394531 6.398438 -1.679688 6.609375 -2.046875 C 6.816406 -2.410156 6.921875 -2.8125 6.921875 -3.25 C 6.921875 -3.6875 6.816406 -4.082031 6.609375 -4.4375 C 6.398438 -4.800781 6.113281 -5.085938 5.75 -5.296875 C 5.394531 -5.503906 5 -5.609375 4.5625 -5.609375 C 4.125 -5.609375 3.722656 -5.503906 3.359375 -5.296875 C 3.003906 -5.085938 2.71875 -4.800781 2.5 -4.4375 C 2.289062 -4.082031 2.1875 -3.6875 2.1875 -3.25 C 2.1875 -2.8125 2.289062 -2.410156 2.5 -2.046875 C 2.71875 -1.679688 3.003906 -1.394531 3.359375 -1.1875 C 3.722656 -0.976562 4.125 -0.875 4.5625 -0.875 Z M 4.5625 -0.875 "/></g></g></g><g fill="#1361ac" fill-opacity="1"><g transform="translate(82.969555, 174.832703)"><g><path d="M 4.34375 -6.609375 C 4.539062 -6.609375 4.707031 -6.59375 4.84375 -6.5625 L 4.84375 -5.546875 C 4.71875 -5.585938 4.550781 -5.609375 4.34375 -5.609375 C 3.957031 -5.609375 3.597656 -5.515625 3.265625 -5.328125 C 2.929688 -5.148438 2.664062 -4.90625 2.46875 -4.59375 C 2.28125 -4.28125 2.1875 -3.921875 2.1875 -3.515625 L 2.1875 0 L 1.1875 0 L 1.1875 -6.484375 L 2.1875 -6.484375 L 2.1875 -5.5625 C 2.4375 -5.882812 2.738281 -6.140625 3.09375 -6.328125 C 3.457031 -6.515625 3.875 -6.609375 4.34375 -6.609375 Z M 4.34375 -6.609375 "/></g></g></g><g fill="#1361ac" fill-opacity="1"><g transform="translate(88.157813, 174.832703)"><g><path d="M 8.140625 -0.84375 L 8.546875 -0.84375 L 8.546875 0 C 8.398438 0.0820312 8.238281 0.125 8.0625 0.125 C 7.675781 0.125 7.359375 0.0234375 7.109375 -0.171875 C 6.859375 -0.378906 6.675781 -0.648438 6.5625 -0.984375 C 6.257812 -0.648438 5.894531 -0.378906 5.46875 -0.171875 C 5.039062 0.0234375 4.582031 0.125 4.09375 0.125 C 3.476562 0.125 2.914062 -0.0234375 2.40625 -0.328125 C 1.894531 -0.628906 1.488281 -1.035156 1.1875 -1.546875 C 0.882812 -2.054688 0.734375 -2.625 0.734375 -3.25 C 0.734375 -3.875 0.882812 -4.4375 1.1875 -4.9375 C 1.488281 -5.445312 1.894531 -5.851562 2.40625 -6.15625 C 2.914062 -6.457031 3.476562 -6.609375 4.09375 -6.609375 C 4.5625 -6.609375 5 -6.519531 5.40625 -6.34375 C 5.8125 -6.175781 6.164062 -5.941406 6.46875 -5.640625 L 6.46875 -6.484375 L 7.46875 -6.484375 L 7.46875 -1.6875 C 7.46875 -1.382812 7.535156 -1.164062 7.671875 -1.03125 C 7.804688 -0.90625 7.960938 -0.84375 8.140625 -0.84375 Z M 4.09375 -0.875 C 4.53125 -0.875 4.925781 -0.976562 5.28125 -1.1875 C 5.632812 -1.394531 5.921875 -1.679688 6.140625 -2.046875 C 6.359375 -2.410156 6.46875 -2.8125 6.46875 -3.25 C 6.46875 -3.6875 6.359375 -4.082031 6.140625 -4.4375 C 5.921875 -4.800781 5.632812 -5.085938 5.28125 -5.296875 C 4.925781 -5.503906 4.53125 -5.609375 4.09375 -5.609375 C 3.664062 -5.609375 3.269531 -5.503906 2.90625 -5.296875 C 2.539062 -5.085938 2.253906 -4.800781 2.046875 -4.4375 C 1.835938 -4.082031 1.734375 -3.6875 1.734375 -3.25 C 1.734375 -2.8125 1.835938 -2.410156 2.046875 -2.046875 C 2.253906 -1.679688 2.539062 -1.394531 2.90625 -1.1875 C 3.269531 -0.976562 3.664062 -0.875 4.09375 -0.875 Z M 4.09375 -0.875 "/></g></g></g><g fill="#1361ac" fill-opacity="1"><g transform="translate(97.156137, 174.832703)"><g><path d="M 3.765625 -6.609375 C 4.179688 -6.609375 4.570312 -6.5 4.9375 -6.28125 C 5.300781 -6.0625 5.59375 -5.765625 5.8125 -5.390625 C 6.039062 -5.015625 6.15625 -4.597656 6.15625 -4.140625 L 6.15625 0 L 5.15625 0 L 5.15625 -4.140625 C 5.15625 -4.546875 5.007812 -4.890625 4.71875 -5.171875 C 4.4375 -5.460938 4.09375 -5.609375 3.6875 -5.609375 C 3.269531 -5.609375 2.914062 -5.460938 2.625 -5.171875 C 2.332031 -4.890625 2.1875 -4.546875 2.1875 -4.140625 L 2.1875 0 L 1.1875 0 L 1.1875 -6.484375 L 2.1875 -6.484375 L 2.1875 -5.96875 C 2.40625 -6.175781 2.644531 -6.332031 2.90625 -6.4375 C 3.175781 -6.550781 3.460938 -6.609375 3.765625 -6.609375 Z M 3.765625 -6.609375 "/></g></g></g><g fill="#1361ac" fill-opacity="1"><g transform="translate(104.679073, 174.832703)"><g><path d="M 6.46875 -11.9375 L 7.46875 -11.9375 L 7.46875 0 L 6.46875 0 L 6.46875 -0.84375 C 6.164062 -0.539062 5.8125 -0.300781 5.40625 -0.125 C 5 0.0390625 4.5625 0.125 4.09375 0.125 C 3.476562 0.125 2.914062 -0.0234375 2.40625 -0.328125 C 1.894531 -0.628906 1.488281 -1.035156 1.1875 -1.546875 C 0.882812 -2.054688 0.734375 -2.625 0.734375 -3.25 C 0.734375 -3.875 0.882812 -4.4375 1.1875 -4.9375 C 1.488281 -5.445312 1.894531 -5.851562 2.40625 -6.15625 C 2.914062 -6.457031 3.476562 -6.609375 4.09375 -6.609375 C 4.5625 -6.609375 5 -6.519531 5.40625 -6.34375 C 5.8125 -6.175781 6.164062 -5.941406 6.46875 -5.640625 Z M 4.09375 -0.875 C 4.53125 -0.875 4.925781 -0.976562 5.28125 -1.1875 C 5.632812 -1.394531 5.921875 -1.679688 6.140625 -2.046875 C 6.359375 -2.410156 6.46875 -2.8125 6.46875 -3.25 C 6.46875 -3.6875 6.359375 -4.082031 6.140625 -4.4375 C 5.921875 -4.800781 5.632812 -5.085938 5.28125 -5.296875 C 4.925781 -5.503906 4.53125 -5.609375 4.09375 -5.609375 C 3.664062 -5.609375 3.269531 -5.503906 2.90625 -5.296875 C 2.539062 -5.085938 2.253906 -4.800781 2.046875 -4.4375 C 1.835938 -4.082031 1.734375 -3.6875 1.734375 -3.25 C 1.734375 -2.8125 1.835938 -2.410156 2.046875 -2.046875 C 2.253906 -1.679688 2.539062 -1.394531 2.90625 -1.1875 C 3.269531 -0.976562 3.664062 -0.875 4.09375 -0.875 Z M 4.09375 -0.875 "/></g></g></g><g fill="#1361ac" fill-opacity="1"><g transform="translate(113.596327, 174.832703)"><g><path d="M 2.78125 0.125 C 2.269531 0.125 1.796875 -0.0078125 1.359375 -0.28125 C 0.929688 -0.5625 0.65625 -0.894531 0.53125 -1.28125 L 1.5 -1.671875 C 1.5625 -1.429688 1.710938 -1.234375 1.953125 -1.078125 C 2.203125 -0.929688 2.476562 -0.859375 2.78125 -0.859375 C 3.070312 -0.859375 3.320312 -0.9375 3.53125 -1.09375 C 3.75 -1.25 3.859375 -1.46875 3.859375 -1.75 C 3.859375 -2.007812 3.753906 -2.207031 3.546875 -2.34375 C 3.347656 -2.488281 3.050781 -2.632812 2.65625 -2.78125 C 2.082031 -3 1.632812 -3.253906 1.3125 -3.546875 C 0.988281 -3.847656 0.828125 -4.253906 0.828125 -4.765625 C 0.828125 -5.160156 0.914062 -5.492188 1.09375 -5.765625 C 1.269531 -6.035156 1.503906 -6.242188 1.796875 -6.390625 C 2.085938 -6.535156 2.390625 -6.609375 2.703125 -6.609375 C 3.117188 -6.609375 3.507812 -6.503906 3.875 -6.296875 C 4.238281 -6.085938 4.484375 -5.835938 4.609375 -5.546875 L 3.734375 -5.09375 C 3.640625 -5.257812 3.503906 -5.382812 3.328125 -5.46875 C 3.160156 -5.5625 2.96875 -5.609375 2.75 -5.609375 C 2.476562 -5.609375 2.257812 -5.539062 2.09375 -5.40625 C 1.925781 -5.28125 1.84375 -5.078125 1.84375 -4.796875 C 1.84375 -4.515625 1.941406 -4.304688 2.140625 -4.171875 C 2.347656 -4.035156 2.648438 -3.882812 3.046875 -3.71875 C 3.328125 -3.601562 3.609375 -3.46875 3.890625 -3.3125 C 4.171875 -3.15625 4.398438 -2.953125 4.578125 -2.703125 C 4.765625 -2.453125 4.859375 -2.132812 4.859375 -1.75 C 4.859375 -1.1875 4.65625 -0.734375 4.25 -0.390625 C 3.84375 -0.046875 3.351562 0.125 2.78125 0.125 Z M 2.78125 0.125 "/></g></g></g><g fill="#1361ac" fill-opacity="1"><g transform="translate(119.222344, 174.832703)"><g/></g></g><g fill="#1361ac" fill-opacity="1"><g transform="translate(123.389174, 174.832703)"><g><path d="M 8.171875 -5.421875 L 8.171875 -4.421875 L 7.265625 -4.421875 L 7.265625 -2.75 C 7.265625 -2.226562 7.140625 -1.757812 6.890625 -1.34375 C 6.648438 -0.925781 6.3125 -0.597656 5.875 -0.359375 C 5.4375 -0.117188 4.925781 0 4.34375 0 C 3.78125 0 3.269531 -0.113281 2.8125 -0.34375 C 2.351562 -0.570312 1.988281 -0.882812 1.71875 -1.28125 C 1.445312 -1.6875 1.3125 -2.144531 1.3125 -2.65625 C 1.3125 -3.132812 1.425781 -3.578125 1.65625 -3.984375 C 1.894531 -4.398438 2.195312 -4.722656 2.5625 -4.953125 C 2.207031 -5.210938 1.921875 -5.535156 1.703125 -5.921875 C 1.492188 -6.316406 1.390625 -6.75 1.390625 -7.21875 C 1.390625 -7.707031 1.503906 -8.140625 1.734375 -8.515625 C 1.960938 -8.890625 2.265625 -9.1875 2.640625 -9.40625 C 3.023438 -9.625 3.453125 -9.734375 3.921875 -9.734375 L 6.21875 -9.734375 L 6.21875 -8.6875 L 4.09375 -8.6875 C 3.65625 -8.6875 3.265625 -8.554688 2.921875 -8.296875 C 2.585938 -8.035156 2.421875 -7.660156 2.421875 -7.171875 C 2.421875 -6.660156 2.597656 -6.238281 2.953125 -5.90625 C 3.316406 -5.582031 3.757812 -5.421875 4.28125 -5.421875 L 6.25 -5.421875 L 6.25 -7.046875 L 7.265625 -7.046875 L 7.265625 -5.421875 Z M 4.328125 -0.890625 C 4.921875 -0.890625 5.390625 -1.066406 5.734375 -1.421875 C 6.078125 -1.785156 6.25 -2.226562 6.25 -2.75 L 6.25 -4.421875 L 4.0625 -4.421875 C 3.570312 -4.421875 3.144531 -4.253906 2.78125 -3.921875 C 2.425781 -3.585938 2.25 -3.175781 2.25 -2.6875 C 2.25 -2.15625 2.453125 -1.722656 2.859375 -1.390625 C 3.273438 -1.054688 3.765625 -0.890625 4.328125 -0.890625 Z M 4.328125 -0.890625 "/></g></g></g><g fill="#1361ac" fill-opacity="1"><g transform="translate(132.45235, 174.832703)"><g/></g></g><g fill="#1361ac" fill-opacity="1"><g transform="translate(136.619179, 174.832703)"><g><path d="M 4.5625 -6.609375 C 5.1875 -6.609375 5.75 -6.457031 6.25 -6.15625 C 6.757812 -5.851562 7.164062 -5.445312 7.46875 -4.9375 C 7.769531 -4.4375 7.921875 -3.875 7.921875 -3.25 C 7.921875 -2.625 7.769531 -2.054688 7.46875 -1.546875 C 7.164062 -1.035156 6.757812 -0.628906 6.25 -0.328125 C 5.75 -0.0234375 5.1875 0.125 4.5625 0.125 C 4.09375 0.125 3.65625 0.0390625 3.25 -0.125 C 2.851562 -0.300781 2.5 -0.539062 2.1875 -0.84375 L 2.1875 0 L 1.1875 0 L 1.1875 -11.9375 L 2.1875 -11.9375 L 2.1875 -5.640625 C 2.5 -5.941406 2.851562 -6.175781 3.25 -6.34375 C 3.65625 -6.519531 4.09375 -6.609375 4.5625 -6.609375 Z M 4.5625 -0.875 C 5 -0.875 5.394531 -0.976562 5.75 -1.1875 C 6.113281 -1.394531 6.398438 -1.679688 6.609375 -2.046875 C 6.816406 -2.410156 6.921875 -2.8125 6.921875 -3.25 C 6.921875 -3.6875 6.816406 -4.082031 6.609375 -4.4375 C 6.398438 -4.800781 6.113281 -5.085938 5.75 -5.296875 C 5.394531 -5.503906 5 -5.609375 4.5625 -5.609375 C 4.125 -5.609375 3.722656 -5.503906 3.359375 -5.296875 C 3.003906 -5.085938 2.71875 -4.800781 2.5 -4.4375 C 2.289062 -4.082031 2.1875 -3.6875 2.1875 -3.25 C 2.1875 -2.8125 2.289062 -2.410156 2.5 -2.046875 C 2.71875 -1.679688 3.003906 -1.394531 3.359375 -1.1875 C 3.722656 -0.976562 4.125 -0.875 4.5625 -0.875 Z M 4.5625 -0.875 "/></g></g></g><g fill="#1361ac" fill-opacity="1"><g transform="translate(145.536434, 174.832703)"><g><path d="M 3.40625 0.125 C 2.675781 0.125 2.085938 -0.09375 1.640625 -0.53125 C 1.191406 -0.976562 0.96875 -1.578125 0.96875 -2.328125 L 0.96875 -6.484375 L 1.96875 -6.484375 L 1.96875 -2.453125 C 1.96875 -1.960938 2.101562 -1.578125 2.375 -1.296875 C 2.644531 -1.015625 2.988281 -0.875 3.40625 -0.875 C 3.820312 -0.875 4.164062 -1.015625 4.4375 -1.296875 C 4.707031 -1.578125 4.84375 -1.960938 4.84375 -2.453125 L 4.84375 -6.484375 L 5.84375 -6.484375 L 5.84375 -2.328125 C 5.84375 -1.578125 5.613281 -0.976562 5.15625 -0.53125 C 4.707031 -0.09375 4.125 0.125 3.40625 0.125 Z M 3.40625 0.125 "/></g></g></g><g fill="#1361ac" fill-opacity="1"><g transform="translate(152.58919, 174.832703)"><g><path d="M 2.78125 0.125 C 2.269531 0.125 1.796875 -0.0078125 1.359375 -0.28125 C 0.929688 -0.5625 0.65625 -0.894531 0.53125 -1.28125 L 1.5 -1.671875 C 1.5625 -1.429688 1.710938 -1.234375 1.953125 -1.078125 C 2.203125 -0.929688 2.476562 -0.859375 2.78125 -0.859375 C 3.070312 -0.859375 3.320312 -0.9375 3.53125 -1.09375 C 3.75 -1.25 3.859375 -1.46875 3.859375 -1.75 C 3.859375 -2.007812 3.753906 -2.207031 3.546875 -2.34375 C 3.347656 -2.488281 3.050781 -2.632812 2.65625 -2.78125 C 2.082031 -3 1.632812 -3.253906 1.3125 -3.546875 C 0.988281 -3.847656 0.828125 -4.253906 0.828125 -4.765625 C 0.828125 -5.160156 0.914062 -5.492188 1.09375 -5.765625 C 1.269531 -6.035156 1.503906 -6.242188 1.796875 -6.390625 C 2.085938 -6.535156 2.390625 -6.609375 2.703125 -6.609375 C 3.117188 -6.609375 3.507812 -6.503906 3.875 -6.296875 C 4.238281 -6.085938 4.484375 -5.835938 4.609375 -5.546875 L 3.734375 -5.09375 C 3.640625 -5.257812 3.503906 -5.382812 3.328125 -5.46875 C 3.160156 -5.5625 2.96875 -5.609375 2.75 -5.609375 C 2.476562 -5.609375 2.257812 -5.539062 2.09375 -5.40625 C 1.925781 -5.28125 1.84375 -5.078125 1.84375 -4.796875 C 1.84375 -4.515625 1.941406 -4.304688 2.140625 -4.171875 C 2.347656 -4.035156 2.648438 -3.882812 3.046875 -3.71875 C 3.328125 -3.601562 3.609375 -3.46875 3.890625 -3.3125 C 4.171875 -3.15625 4.398438 -2.953125 4.578125 -2.703125 C 4.765625 -2.453125 4.859375 -2.132812 4.859375 -1.75 C 4.859375 -1.1875 4.65625 -0.734375 4.25 -0.390625 C 3.84375 -0.046875 3.351562 0.125 2.78125 0.125 Z M 2.78125 0.125 "/></g></g></g><g fill="#1361ac" fill-opacity="1"><g transform="translate(158.215201, 174.832703)"><g><path d="M 1.8125 -7.703125 C 1.625 -7.703125 1.457031 -7.769531 1.3125 -7.90625 C 1.175781 -8.039062 1.109375 -8.195312 1.109375 -8.375 C 1.109375 -8.582031 1.175781 -8.75 1.3125 -8.875 C 1.457031 -9.007812 1.625 -9.078125 1.8125 -9.078125 C 2 -9.078125 2.160156 -9.007812 2.296875 -8.875 C 2.441406 -8.75 2.515625 -8.582031 2.515625 -8.375 C 2.515625 -8.195312 2.441406 -8.039062 2.296875 -7.90625 C 2.160156 -7.769531 2 -7.703125 1.8125 -7.703125 Z M 1.3125 0 L 1.3125 -6.484375 L 2.3125 -6.484375 L 2.3125 0 Z M 1.3125 0 "/></g></g></g><g fill="#1361ac" fill-opacity="1"><g transform="translate(162.090199, 174.832703)"><g><path d="M 3.765625 -6.609375 C 4.179688 -6.609375 4.570312 -6.5 4.9375 -6.28125 C 5.300781 -6.0625 5.59375 -5.765625 5.8125 -5.390625 C 6.039062 -5.015625 6.15625 -4.597656 6.15625 -4.140625 L 6.15625 0 L 5.15625 0 L 5.15625 -4.140625 C 5.15625 -4.546875 5.007812 -4.890625 4.71875 -5.171875 C 4.4375 -5.460938 4.09375 -5.609375 3.6875 -5.609375 C 3.269531 -5.609375 2.914062 -5.460938 2.625 -5.171875 C 2.332031 -4.890625 2.1875 -4.546875 2.1875 -4.140625 L 2.1875 0 L 1.1875 0 L 1.1875 -6.484375 L 2.1875 -6.484375 L 2.1875 -5.96875 C 2.40625 -6.175781 2.644531 -6.332031 2.90625 -6.4375 C 3.175781 -6.550781 3.460938 -6.609375 3.765625 -6.609375 Z M 3.765625 -6.609375 "/></g></g></g><g fill="#1361ac" fill-opacity="1"><g transform="translate(169.613134, 174.832703)"><g><path d="M 7.46875 -3.3125 L 7.453125 -3.09375 L 1.734375 -3.09375 C 1.753906 -2.6875 1.875 -2.3125 2.09375 -1.96875 C 2.3125 -1.625 2.59375 -1.351562 2.9375 -1.15625 C 3.289062 -0.96875 3.675781 -0.875 4.09375 -0.875 C 4.582031 -0.875 5.023438 -1.003906 5.421875 -1.265625 C 5.816406 -1.523438 6.101562 -1.863281 6.28125 -2.28125 L 7.34375 -2.28125 C 7.207031 -1.820312 6.976562 -1.410156 6.65625 -1.046875 C 6.34375 -0.679688 5.96875 -0.394531 5.53125 -0.1875 C 5.09375 0.0195312 4.613281 0.125 4.09375 0.125 C 3.476562 0.125 2.914062 -0.0234375 2.40625 -0.328125 C 1.894531 -0.628906 1.488281 -1.035156 1.1875 -1.546875 C 0.882812 -2.054688 0.734375 -2.625 0.734375 -3.25 C 0.734375 -3.875 0.882812 -4.4375 1.1875 -4.9375 C 1.488281 -5.445312 1.894531 -5.851562 2.40625 -6.15625 C 2.914062 -6.457031 3.476562 -6.609375 4.09375 -6.609375 C 4.71875 -6.609375 5.28125 -6.460938 5.78125 -6.171875 C 6.28125 -5.878906 6.679688 -5.484375 6.984375 -4.984375 C 7.296875 -4.492188 7.457031 -3.9375 7.46875 -3.3125 Z M 4.09375 -5.609375 C 3.582031 -5.609375 3.125 -5.457031 2.71875 -5.15625 C 2.3125 -4.863281 2.023438 -4.476562 1.859375 -4 L 6.328125 -4 C 6.171875 -4.476562 5.890625 -4.863281 5.484375 -5.15625 C 5.078125 -5.457031 4.613281 -5.609375 4.09375 -5.609375 Z M 4.09375 -5.609375 "/></g></g></g><g fill="#1361ac" fill-opacity="1"><g transform="translate(178.011577, 174.832703)"><g><path d="M 2.78125 0.125 C 2.269531 0.125 1.796875 -0.0078125 1.359375 -0.28125 C 0.929688 -0.5625 0.65625 -0.894531 0.53125 -1.28125 L 1.5 -1.671875 C 1.5625 -1.429688 1.710938 -1.234375 1.953125 -1.078125 C 2.203125 -0.929688 2.476562 -0.859375 2.78125 -0.859375 C 3.070312 -0.859375 3.320312 -0.9375 3.53125 -1.09375 C 3.75 -1.25 3.859375 -1.46875 3.859375 -1.75 C 3.859375 -2.007812 3.753906 -2.207031 3.546875 -2.34375 C 3.347656 -2.488281 3.050781 -2.632812 2.65625 -2.78125 C 2.082031 -3 1.632812 -3.253906 1.3125 -3.546875 C 0.988281 -3.847656 0.828125 -4.253906 0.828125 -4.765625 C 0.828125 -5.160156 0.914062 -5.492188 1.09375 -5.765625 C 1.269531 -6.035156 1.503906 -6.242188 1.796875 -6.390625 C 2.085938 -6.535156 2.390625 -6.609375 2.703125 -6.609375 C 3.117188 -6.609375 3.507812 -6.503906 3.875 -6.296875 C 4.238281 -6.085938 4.484375 -5.835938 4.609375 -5.546875 L 3.734375 -5.09375 C 3.640625 -5.257812 3.503906 -5.382812 3.328125 -5.46875 C 3.160156 -5.5625 2.96875 -5.609375 2.75 -5.609375 C 2.476562 -5.609375 2.257812 -5.539062 2.09375 -5.40625 C 1.925781 -5.28125 1.84375 -5.078125 1.84375 -4.796875 C 1.84375 -4.515625 1.941406 -4.304688 2.140625 -4.171875 C 2.347656 -4.035156 2.648438 -3.882812 3.046875 -3.71875 C 3.328125 -3.601562 3.609375 -3.46875 3.890625 -3.3125 C 4.171875 -3.15625 4.398438 -2.953125 4.578125 -2.703125 C 4.765625 -2.453125 4.859375 -2.132812 4.859375 -1.75 C 4.859375 -1.1875 4.65625 -0.734375 4.25 -0.390625 C 3.84375 -0.046875 3.351562 0.125 2.78125 0.125 Z M 2.78125 0.125 "/></g></g></g><g fill="#1361ac" fill-opacity="1"><g transform="translate(183.637588, 174.832703)"><g><path d="M 2.78125 0.125 C 2.269531 0.125 1.796875 -0.0078125 1.359375 -0.28125 C 0.929688 -0.5625 0.65625 -0.894531 0.53125 -1.28125 L 1.5 -1.671875 C 1.5625 -1.429688 1.710938 -1.234375 1.953125 -1.078125 C 2.203125 -0.929688 2.476562 -0.859375 2.78125 -0.859375 C 3.070312 -0.859375 3.320312 -0.9375 3.53125 -1.09375 C 3.75 -1.25 3.859375 -1.46875 3.859375 -1.75 C 3.859375 -2.007812 3.753906 -2.207031 3.546875 -2.34375 C 3.347656 -2.488281 3.050781 -2.632812 2.65625 -2.78125 C 2.082031 -3 1.632812 -3.253906 1.3125 -3.546875 C 0.988281 -3.847656 0.828125 -4.253906 0.828125 -4.765625 C 0.828125 -5.160156 0.914062 -5.492188 1.09375 -5.765625 C 1.269531 -6.035156 1.503906 -6.242188 1.796875 -6.390625 C 2.085938 -6.535156 2.390625 -6.609375 2.703125 -6.609375 C 3.117188 -6.609375 3.507812 -6.503906 3.875 -6.296875 C 4.238281 -6.085938 4.484375 -5.835938 4.609375 -5.546875 L 3.734375 -5.09375 C 3.640625 -5.257812 3.503906 -5.382812 3.328125 -5.46875 C 3.160156 -5.5625 2.96875 -5.609375 2.75 -5.609375 C 2.476562 -5.609375 2.257812 -5.539062 2.09375 -5.40625 C 1.925781 -5.28125 1.84375 -5.078125 1.84375 -4.796875 C 1.84375 -4.515625 1.941406 -4.304688 2.140625 -4.171875 C 2.347656 -4.035156 2.648438 -3.882812 3.046875 -3.71875 C 3.328125 -3.601562 3.609375 -3.46875 3.890625 -3.3125 C 4.171875 -3.15625 4.398438 -2.953125 4.578125 -2.703125 C 4.765625 -2.453125 4.859375 -2.132812 4.859375 -1.75 C 4.859375 -1.1875 4.65625 -0.734375 4.25 -0.390625 C 3.84375 -0.046875 3.351562 0.125 2.78125 0.125 Z M 2.78125 0.125 "/></g></g></g><g fill="#1361ac" fill-opacity="1"><g transform="translate(189.2636, 174.832703)"><g><path d="M 7.46875 -3.3125 L 7.453125 -3.09375 L 1.734375 -3.09375 C 1.753906 -2.6875 1.875 -2.3125 2.09375 -1.96875 C 2.3125 -1.625 2.59375 -1.351562 2.9375 -1.15625 C 3.289062 -0.96875 3.675781 -0.875 4.09375 -0.875 C 4.582031 -0.875 5.023438 -1.003906 5.421875 -1.265625 C 5.816406 -1.523438 6.101562 -1.863281 6.28125 -2.28125 L 7.34375 -2.28125 C 7.207031 -1.820312 6.976562 -1.410156 6.65625 -1.046875 C 6.34375 -0.679688 5.96875 -0.394531 5.53125 -0.1875 C 5.09375 0.0195312 4.613281 0.125 4.09375 0.125 C 3.476562 0.125 2.914062 -0.0234375 2.40625 -0.328125 C 1.894531 -0.628906 1.488281 -1.035156 1.1875 -1.546875 C 0.882812 -2.054688 0.734375 -2.625 0.734375 -3.25 C 0.734375 -3.875 0.882812 -4.4375 1.1875 -4.9375 C 1.488281 -5.445312 1.894531 -5.851562 2.40625 -6.15625 C 2.914062 -6.457031 3.476562 -6.609375 4.09375 -6.609375 C 4.71875 -6.609375 5.28125 -6.460938 5.78125 -6.171875 C 6.28125 -5.878906 6.679688 -5.484375 6.984375 -4.984375 C 7.296875 -4.492188 7.457031 -3.9375 7.46875 -3.3125 Z M 4.09375 -5.609375 C 3.582031 -5.609375 3.125 -5.457031 2.71875 -5.15625 C 2.3125 -4.863281 2.023438 -4.476562 1.859375 -4 L 6.328125 -4 C 6.171875 -4.476562 5.890625 -4.863281 5.484375 -5.15625 C 5.078125 -5.457031 4.613281 -5.609375 4.09375 -5.609375 Z M 4.09375 -5.609375 "/></g></g></g><g fill="#1361ac" fill-opacity="1"><g transform="translate(197.662042, 174.832703)"><g><path d="M 2.78125 0.125 C 2.269531 0.125 1.796875 -0.0078125 1.359375 -0.28125 C 0.929688 -0.5625 0.65625 -0.894531 0.53125 -1.28125 L 1.5 -1.671875 C 1.5625 -1.429688 1.710938 -1.234375 1.953125 -1.078125 C 2.203125 -0.929688 2.476562 -0.859375 2.78125 -0.859375 C 3.070312 -0.859375 3.320312 -0.9375 3.53125 -1.09375 C 3.75 -1.25 3.859375 -1.46875 3.859375 -1.75 C 3.859375 -2.007812 3.753906 -2.207031 3.546875 -2.34375 C 3.347656 -2.488281 3.050781 -2.632812 2.65625 -2.78125 C 2.082031 -3 1.632812 -3.253906 1.3125 -3.546875 C 0.988281 -3.847656 0.828125 -4.253906 0.828125 -4.765625 C 0.828125 -5.160156 0.914062 -5.492188 1.09375 -5.765625 C 1.269531 -6.035156 1.503906 -6.242188 1.796875 -6.390625 C 2.085938 -6.535156 2.390625 -6.609375 2.703125 -6.609375 C 3.117188 -6.609375 3.507812 -6.503906 3.875 -6.296875 C 4.238281 -6.085938 4.484375 -5.835938 4.609375 -5.546875 L 3.734375 -5.09375 C 3.640625 -5.257812 3.503906 -5.382812 3.328125 -5.46875 C 3.160156 -5.5625 2.96875 -5.609375 2.75 -5.609375 C 2.476562 -5.609375 2.257812 -5.539062 2.09375 -5.40625 C 1.925781 -5.28125 1.84375 -5.078125 1.84375 -4.796875 C 1.84375 -4.515625 1.941406 -4.304688 2.140625 -4.171875 C 2.347656 -4.035156 2.648438 -3.882812 3.046875 -3.71875 C 3.328125 -3.601562 3.609375 -3.46875 3.890625 -3.3125 C 4.171875 -3.15625 4.398438 -2.953125 4.578125 -2.703125 C 4.765625 -2.453125 4.859375 -2.132812 4.859375 -1.75 C 4.859375 -1.1875 4.65625 -0.734375 4.25 -0.390625 C 3.84375 -0.046875 3.351562 0.125 2.78125 0.125 Z M 2.78125 0.125 "/></g></g></g><g fill="#1361ac" fill-opacity="1"><g transform="translate(203.288053, 174.832703)"><g><path d="M 1.546875 0.125 C 1.304688 0.125 1.097656 0.0351562 0.921875 -0.140625 C 0.742188 -0.316406 0.65625 -0.523438 0.65625 -0.765625 C 0.65625 -1.015625 0.742188 -1.222656 0.921875 -1.390625 C 1.097656 -1.566406 1.304688 -1.65625 1.546875 -1.65625 C 1.785156 -1.65625 1.992188 -1.566406 2.171875 -1.390625 C 2.347656 -1.222656 2.4375 -1.015625 2.4375 -0.765625 C 2.4375 -0.523438 2.347656 -0.316406 2.171875 -0.140625 C 1.992188 0.0351562 1.785156 0.125 1.546875 0.125 Z M 1.546875 0.125 "/></g></g></g></svg>