<svg xmlns="http://www.w3.org/2000/svg" xmlns:xlink="http://www.w3.org/1999/xlink" width="300" zoomAndPan="magnify" viewBox="0 0 224.87999 225" height="300" preserveAspectRatio="xMidYMid meet" version="1.0"><defs><g/><clipPath id="5ed66b6144"><path d="M 86 50.394531 L 139.246094 50.394531 L 139.246094 107 L 86 107 Z M 86 50.394531 " clip-rule="nonzero"/></clipPath><clipPath id="74c3ba1b05"><path d="M 102.738281 55.902344 C 96.140625 62.636719 95.214844 64.484375 94.292969 66.726562 C 93.234375 69.367188 92.046875 72.535156 91.652344 75.570312 C 91.125 78.605469 90.859375 81.90625 91.785156 85.074219 C 92.839844 88.503906 95.480469 92.464844 98.382812 95.238281 C 101.285156 97.875 105.511719 100.253906 109.207031 101.175781 C 112.375 102.101562 116.070312 101.96875 118.839844 101.441406 C 121.085938 100.914062 123.066406 100.121094 124.78125 98.933594 C 126.496094 97.875 127.949219 96.558594 129.136719 94.839844 C 130.71875 92.464844 132.171875 89.296875 132.832031 85.996094 C 133.757812 81.773438 134.019531 75.304688 133.097656 71.347656 C 132.4375 68.441406 131.117188 66.066406 129.269531 64.085938 C 127.421875 61.84375 124.914062 59.863281 122.007812 58.542969 C 118.578125 57.089844 113.429688 56.167969 109.601562 56.035156 C 106.300781 55.773438 102.210938 57.75 100.363281 56.960938 C 99.308594 56.5625 98.382812 55.242188 98.515625 54.453125 C 98.648438 53.527344 100.496094 51.8125 101.285156 51.8125 C 102.210938 51.945312 103.792969 53.925781 103.792969 54.847656 C 103.664062 55.773438 101.550781 57.089844 100.625 57.089844 C 99.835938 57.089844 98.910156 56.167969 98.648438 55.507812 C 98.382812 54.847656 98.382812 53.660156 98.910156 53 C 99.96875 51.8125 104.191406 51.019531 107.226562 50.757812 C 110.921875 50.359375 115.804688 51.019531 119.371094 51.945312 C 122.539062 52.867188 125.308594 54.054688 127.816406 55.773438 C 130.457031 57.621094 133.097656 60.257812 134.8125 62.898438 C 136.660156 65.539062 137.847656 68.3125 138.507812 71.609375 C 139.300781 75.570312 139.167969 81.113281 138.375 85.46875 C 137.585938 89.5625 135.867188 94.050781 133.886719 97.085938 C 132.304688 99.722656 130.457031 101.703125 127.816406 103.289062 C 124.914062 105.136719 120.6875 106.457031 116.863281 106.851562 C 112.902344 107.25 108.019531 106.589844 104.324219 105.269531 C 100.757812 103.949219 97.460938 101.703125 94.820312 99.195312 C 92.3125 96.820312 90.332031 93.652344 88.878906 91.011719 C 87.691406 88.902344 86.769531 87.183594 86.371094 85.074219 C 85.976562 82.960938 85.976562 81.113281 86.238281 78.605469 C 86.503906 75.042969 87.824219 69.234375 89.011719 65.804688 C 89.9375 63.164062 90.859375 61.316406 92.3125 59.203125 C 94.027344 56.695312 96.535156 53.132812 98.777344 51.945312 C 100.230469 51.152344 102.476562 51.019531 103.398438 51.546875 C 104.058594 51.945312 104.324219 53.132812 104.191406 53.925781 C 104.058594 54.582031 102.738281 55.902344 102.738281 55.902344 " clip-rule="nonzero"/></clipPath><clipPath id="1080e96fd1"><path d="M 90.789062 60.820312 L 107.683594 60.820312 L 107.683594 100.304688 L 90.789062 100.304688 Z M 90.789062 60.820312 " clip-rule="nonzero"/></clipPath><clipPath id="2d314722b5"><path d="M 94.554688 60.917969 C 104.585938 67.652344 106.039062 72.929688 106.960938 77.417969 C 107.886719 82.167969 107.753906 88.636719 106.960938 92.597656 C 106.566406 95.367188 105.90625 98.273438 104.585938 99.328125 C 103.792969 100.121094 102.34375 100.253906 101.550781 99.988281 C 100.757812 99.726562 100.097656 98.667969 100.097656 98.007812 C 99.96875 97.347656 100.230469 96.160156 100.890625 95.632812 C 101.550781 95.105469 103.265625 94.972656 104.058594 95.367188 C 104.71875 95.765625 105.378906 96.820312 105.246094 97.480469 C 105.246094 98.40625 103.53125 100.253906 102.605469 100.253906 C 101.816406 100.253906 100.496094 99.328125 100.097656 98.273438 C 99.308594 96.292969 102.078125 91.277344 102.34375 87.582031 C 102.476562 83.886719 102.210938 79.53125 101.550781 76.363281 C 101.023438 73.855469 100.625 71.742188 99.175781 69.894531 C 97.460938 67.652344 91.785156 66.199219 90.992188 64.351562 C 90.59375 63.425781 90.992188 61.976562 91.519531 61.449219 C 92.179688 60.789062 94.554688 60.917969 94.554688 60.917969 " clip-rule="nonzero"/></clipPath><clipPath id="9c8ba62b16"><path d="M 114.789062 60.753906 L 128.90625 60.753906 L 128.90625 101.960938 L 114.789062 101.960938 Z M 114.789062 60.753906 " clip-rule="nonzero"/></clipPath><clipPath id="14926c0b3f"><path d="M 125.835938 65.804688 C 120.292969 74.515625 120.160156 78.472656 120.292969 81.378906 C 120.558594 83.886719 121.085938 85.867188 122.140625 88.375 C 123.59375 91.542969 128.742188 96.425781 128.871094 98.800781 C 128.871094 99.988281 128.082031 101.175781 127.421875 101.574219 C 126.761719 101.96875 125.441406 101.96875 124.914062 101.574219 C 124.253906 101.042969 123.460938 99.328125 123.726562 98.535156 C 123.855469 97.875 124.648438 96.953125 125.308594 96.6875 C 126.101562 96.558594 127.289062 96.6875 127.816406 97.085938 C 128.476562 97.746094 129.003906 99.460938 128.742188 100.253906 C 128.34375 101.042969 127.023438 101.96875 125.96875 101.835938 C 124.253906 101.703125 121.746094 98.40625 120.160156 95.765625 C 117.917969 92.199219 115.671875 86.261719 115.015625 82.039062 C 114.617188 78.738281 115.144531 75.570312 115.671875 72.796875 C 116.203125 70.554688 116.597656 68.3125 117.917969 66.464844 C 119.371094 64.351562 122.539062 61.050781 124.386719 60.789062 C 125.441406 60.789062 127.023438 61.84375 127.289062 62.636719 C 127.554688 63.558594 125.835938 65.804688 125.835938 65.804688 " clip-rule="nonzero"/></clipPath></defs><g fill="#edf0ed" fill-opacity="1"><g transform="translate(40.041751, 138.90364)"><g><path d="M 4.671875 -9.734375 C 5.179688 -9.734375 5.632812 -9.609375 6.03125 -9.359375 C 6.4375 -9.117188 6.757812 -8.789062 7 -8.375 C 7.25 -7.96875 7.375 -7.515625 7.375 -7.015625 C 7.375 -6.523438 7.25 -6.070312 7 -5.65625 C 6.757812 -5.25 6.4375 -4.925781 6.03125 -4.6875 C 5.632812 -4.445312 5.179688 -4.328125 4.671875 -4.328125 L 2.21875 -4.328125 L 2.21875 0 L 1.1875 0 L 1.1875 -9.734375 Z M 4.578125 -5.3125 C 5.054688 -5.3125 5.46875 -5.457031 5.8125 -5.75 C 6.164062 -6.050781 6.34375 -6.46875 6.34375 -7 C 6.34375 -7.519531 6.164062 -7.9375 5.8125 -8.25 C 5.46875 -8.5625 5.054688 -8.71875 4.578125 -8.71875 L 2.21875 -8.71875 L 2.21875 -5.3125 Z M 4.578125 -5.3125 "/></g></g></g><g fill="#edf0ed" fill-opacity="1"><g transform="translate(47.953797, 138.90364)"><g><path d="M 4.34375 -6.609375 C 4.539062 -6.609375 4.707031 -6.59375 4.84375 -6.5625 L 4.84375 -5.546875 C 4.71875 -5.585938 4.550781 -5.609375 4.34375 -5.609375 C 3.957031 -5.609375 3.597656 -5.515625 3.265625 -5.328125 C 2.929688 -5.148438 2.664062 -4.90625 2.46875 -4.59375 C 2.28125 -4.28125 2.1875 -3.921875 2.1875 -3.515625 L 2.1875 0 L 1.1875 0 L 1.1875 -6.484375 L 2.1875 -6.484375 L 2.1875 -5.5625 C 2.4375 -5.882812 2.738281 -6.140625 3.09375 -6.328125 C 3.457031 -6.515625 3.875 -6.609375 4.34375 -6.609375 Z M 4.34375 -6.609375 "/></g></g></g><g fill="#edf0ed" fill-opacity="1"><g transform="translate(53.142056, 138.90364)"><g><path d="M 7.46875 -3.3125 L 7.453125 -3.09375 L 1.734375 -3.09375 C 1.753906 -2.6875 1.875 -2.3125 2.09375 -1.96875 C 2.3125 -1.625 2.59375 -1.351562 2.9375 -1.15625 C 3.289062 -0.96875 3.675781 -0.875 4.09375 -0.875 C 4.582031 -0.875 5.023438 -1.003906 5.421875 -1.265625 C 5.816406 -1.523438 6.101562 -1.863281 6.28125 -2.28125 L 7.34375 -2.28125 C 7.207031 -1.820312 6.976562 -1.410156 6.65625 -1.046875 C 6.34375 -0.679688 5.96875 -0.394531 5.53125 -0.1875 C 5.09375 0.0195312 4.613281 0.125 4.09375 0.125 C 3.476562 0.125 2.914062 -0.0234375 2.40625 -0.328125 C 1.894531 -0.628906 1.488281 -1.035156 1.1875 -1.546875 C 0.882812 -2.054688 0.734375 -2.625 0.734375 -3.25 C 0.734375 -3.875 0.882812 -4.4375 1.1875 -4.9375 C 1.488281 -5.445312 1.894531 -5.851562 2.40625 -6.15625 C 2.914062 -6.457031 3.476562 -6.609375 4.09375 -6.609375 C 4.71875 -6.609375 5.28125 -6.460938 5.78125 -6.171875 C 6.28125 -5.878906 6.679688 -5.484375 6.984375 -4.984375 C 7.296875 -4.492188 7.457031 -3.9375 7.46875 -3.3125 Z M 4.09375 -5.609375 C 3.582031 -5.609375 3.125 -5.457031 2.71875 -5.15625 C 2.3125 -4.863281 2.023438 -4.476562 1.859375 -4 L 6.328125 -4 C 6.171875 -4.476562 5.890625 -4.863281 5.484375 -5.15625 C 5.078125 -5.457031 4.613281 -5.609375 4.09375 -5.609375 Z M 4.09375 -5.609375 "/></g></g></g><g fill="#edf0ed" fill-opacity="1"><g transform="translate(61.5405, 138.90364)"><g><path d="M 4.09375 0.125 C 3.476562 0.125 2.914062 -0.0234375 2.40625 -0.328125 C 1.894531 -0.628906 1.488281 -1.035156 1.1875 -1.546875 C 0.882812 -2.054688 0.734375 -2.625 0.734375 -3.25 C 0.734375 -3.875 0.882812 -4.4375 1.1875 -4.9375 C 1.488281 -5.445312 1.894531 -5.851562 2.40625 -6.15625 C 2.914062 -6.457031 3.476562 -6.609375 4.09375 -6.609375 C 4.851562 -6.609375 5.523438 -6.390625 6.109375 -5.953125 C 6.691406 -5.515625 7.09375 -4.957031 7.3125 -4.28125 L 6.234375 -4.28125 C 6.046875 -4.675781 5.757812 -4.992188 5.375 -5.234375 C 5 -5.484375 4.570312 -5.609375 4.09375 -5.609375 C 3.664062 -5.609375 3.269531 -5.503906 2.90625 -5.296875 C 2.539062 -5.085938 2.253906 -4.800781 2.046875 -4.4375 C 1.835938 -4.082031 1.734375 -3.6875 1.734375 -3.25 C 1.734375 -2.800781 1.835938 -2.394531 2.046875 -2.03125 C 2.253906 -1.675781 2.539062 -1.394531 2.90625 -1.1875 C 3.269531 -0.976562 3.664062 -0.875 4.09375 -0.875 C 4.570312 -0.875 5 -0.992188 5.375 -1.234375 C 5.757812 -1.484375 6.046875 -1.804688 6.234375 -2.203125 L 7.3125 -2.203125 C 7.09375 -1.523438 6.691406 -0.96875 6.109375 -0.53125 C 5.523438 -0.09375 4.851562 0.125 4.09375 0.125 Z M 4.09375 0.125 "/></g></g></g><g fill="#edf0ed" fill-opacity="1"><g transform="translate(69.533616, 138.90364)"><g><path d="M 1.8125 -7.703125 C 1.625 -7.703125 1.457031 -7.769531 1.3125 -7.90625 C 1.175781 -8.039062 1.109375 -8.195312 1.109375 -8.375 C 1.109375 -8.582031 1.175781 -8.75 1.3125 -8.875 C 1.457031 -9.007812 1.625 -9.078125 1.8125 -9.078125 C 2 -9.078125 2.160156 -9.007812 2.296875 -8.875 C 2.441406 -8.75 2.515625 -8.582031 2.515625 -8.375 C 2.515625 -8.195312 2.441406 -8.039062 2.296875 -7.90625 C 2.160156 -7.769531 2 -7.703125 1.8125 -7.703125 Z M 1.3125 0 L 1.3125 -6.484375 L 2.3125 -6.484375 L 2.3125 0 Z M 1.3125 0 "/></g></g></g><g fill="#edf0ed" fill-opacity="1"><g transform="translate(73.408614, 138.90364)"><g><path d="M 2.78125 0.125 C 2.269531 0.125 1.796875 -0.0078125 1.359375 -0.28125 C 0.929688 -0.5625 0.65625 -0.894531 0.53125 -1.28125 L 1.5 -1.671875 C 1.5625 -1.429688 1.710938 -1.234375 1.953125 -1.078125 C 2.203125 -0.929688 2.476562 -0.859375 2.78125 -0.859375 C 3.070312 -0.859375 3.320312 -0.9375 3.53125 -1.09375 C 3.75 -1.25 3.859375 -1.46875 3.859375 -1.75 C 3.859375 -2.007812 3.753906 -2.207031 3.546875 -2.34375 C 3.347656 -2.488281 3.050781 -2.632812 2.65625 -2.78125 C 2.082031 -3 1.632812 -3.253906 1.3125 -3.546875 C 0.988281 -3.847656 0.828125 -4.253906 0.828125 -4.765625 C 0.828125 -5.160156 0.914062 -5.492188 1.09375 -5.765625 C 1.269531 -6.035156 1.503906 -6.242188 1.796875 -6.390625 C 2.085938 -6.535156 2.390625 -6.609375 2.703125 -6.609375 C 3.117188 -6.609375 3.507812 -6.503906 3.875 -6.296875 C 4.238281 -6.085938 4.484375 -5.835938 4.609375 -5.546875 L 3.734375 -5.09375 C 3.640625 -5.257812 3.503906 -5.382812 3.328125 -5.46875 C 3.160156 -5.5625 2.96875 -5.609375 2.75 -5.609375 C 2.476562 -5.609375 2.257812 -5.539062 2.09375 -5.40625 C 1.925781 -5.28125 1.84375 -5.078125 1.84375 -4.796875 C 1.84375 -4.515625 1.941406 -4.304688 2.140625 -4.171875 C 2.347656 -4.035156 2.648438 -3.882812 3.046875 -3.71875 C 3.328125 -3.601562 3.609375 -3.46875 3.890625 -3.3125 C 4.171875 -3.15625 4.398438 -2.953125 4.578125 -2.703125 C 4.765625 -2.453125 4.859375 -2.132812 4.859375 -1.75 C 4.859375 -1.1875 4.65625 -0.734375 4.25 -0.390625 C 3.84375 -0.046875 3.351562 0.125 2.78125 0.125 Z M 2.78125 0.125 "/></g></g></g><g fill="#edf0ed" fill-opacity="1"><g transform="translate(79.034625, 138.90364)"><g><path d="M 1.8125 -7.703125 C 1.625 -7.703125 1.457031 -7.769531 1.3125 -7.90625 C 1.175781 -8.039062 1.109375 -8.195312 1.109375 -8.375 C 1.109375 -8.582031 1.175781 -8.75 1.3125 -8.875 C 1.457031 -9.007812 1.625 -9.078125 1.8125 -9.078125 C 2 -9.078125 2.160156 -9.007812 2.296875 -8.875 C 2.441406 -8.75 2.515625 -8.582031 2.515625 -8.375 C 2.515625 -8.195312 2.441406 -8.039062 2.296875 -7.90625 C 2.160156 -7.769531 2 -7.703125 1.8125 -7.703125 Z M 1.3125 0 L 1.3125 -6.484375 L 2.3125 -6.484375 L 2.3125 0 Z M 1.3125 0 "/></g></g></g><g fill="#edf0ed" fill-opacity="1"><g transform="translate(82.909623, 138.90364)"><g><path d="M 4.09375 0.125 C 3.476562 0.125 2.914062 -0.0234375 2.40625 -0.328125 C 1.894531 -0.628906 1.488281 -1.035156 1.1875 -1.546875 C 0.882812 -2.054688 0.734375 -2.625 0.734375 -3.25 C 0.734375 -3.875 0.882812 -4.4375 1.1875 -4.9375 C 1.488281 -5.445312 1.894531 -5.851562 2.40625 -6.15625 C 2.914062 -6.457031 3.476562 -6.609375 4.09375 -6.609375 C 4.726562 -6.609375 5.296875 -6.457031 5.796875 -6.15625 C 6.304688 -5.851562 6.710938 -5.445312 7.015625 -4.9375 C 7.316406 -4.4375 7.46875 -3.875 7.46875 -3.25 C 7.46875 -2.625 7.316406 -2.054688 7.015625 -1.546875 C 6.710938 -1.035156 6.304688 -0.628906 5.796875 -0.328125 C 5.296875 -0.0234375 4.726562 0.125 4.09375 0.125 Z M 4.09375 -0.875 C 4.53125 -0.875 4.925781 -0.976562 5.28125 -1.1875 C 5.632812 -1.394531 5.921875 -1.679688 6.140625 -2.046875 C 6.359375 -2.410156 6.46875 -2.8125 6.46875 -3.25 C 6.46875 -3.6875 6.359375 -4.082031 6.140625 -4.4375 C 5.921875 -4.800781 5.632812 -5.085938 5.28125 -5.296875 C 4.925781 -5.503906 4.53125 -5.609375 4.09375 -5.609375 C 3.664062 -5.609375 3.269531 -5.503906 2.90625 -5.296875 C 2.539062 -5.085938 2.253906 -4.800781 2.046875 -4.4375 C 1.835938 -4.082031 1.734375 -3.6875 1.734375 -3.25 C 1.734375 -2.8125 1.835938 -2.410156 2.046875 -2.046875 C 2.253906 -1.679688 2.539062 -1.394531 2.90625 -1.1875 C 3.269531 -0.976562 3.664062 -0.875 4.09375 -0.875 Z M 4.09375 -0.875 "/></g></g></g><g fill="#edf0ed" fill-opacity="1"><g transform="translate(91.372917, 138.90364)"><g><path d="M 3.765625 -6.609375 C 4.179688 -6.609375 4.570312 -6.5 4.9375 -6.28125 C 5.300781 -6.0625 5.59375 -5.765625 5.8125 -5.390625 C 6.039062 -5.015625 6.15625 -4.597656 6.15625 -4.140625 L 6.15625 0 L 5.15625 0 L 5.15625 -4.140625 C 5.15625 -4.546875 5.007812 -4.890625 4.71875 -5.171875 C 4.4375 -5.460938 4.09375 -5.609375 3.6875 -5.609375 C 3.269531 -5.609375 2.914062 -5.460938 2.625 -5.171875 C 2.332031 -4.890625 2.1875 -4.546875 2.1875 -4.140625 L 2.1875 0 L 1.1875 0 L 1.1875 -6.484375 L 2.1875 -6.484375 L 2.1875 -5.96875 C 2.40625 -6.175781 2.644531 -6.332031 2.90625 -6.4375 C 3.175781 -6.550781 3.460938 -6.609375 3.765625 -6.609375 Z M 3.765625 -6.609375 "/></g></g></g><g fill="#edf0ed" fill-opacity="1"><g transform="translate(98.895852, 138.90364)"><g><path d="M 2.015625 -5.21875 C 1.828125 -5.21875 1.660156 -5.285156 1.515625 -5.421875 C 1.378906 -5.554688 1.3125 -5.722656 1.3125 -5.921875 C 1.3125 -6.097656 1.378906 -6.253906 1.515625 -6.390625 C 1.660156 -6.535156 1.828125 -6.609375 2.015625 -6.609375 C 2.203125 -6.609375 2.363281 -6.535156 2.5 -6.390625 C 2.644531 -6.253906 2.71875 -6.097656 2.71875 -5.921875 C 2.71875 -5.722656 2.644531 -5.554688 2.5 -5.421875 C 2.363281 -5.285156 2.203125 -5.21875 2.015625 -5.21875 Z M 2.015625 0.125 C 1.828125 0.125 1.660156 0.0546875 1.515625 -0.078125 C 1.378906 -0.210938 1.3125 -0.375 1.3125 -0.5625 C 1.3125 -0.75 1.378906 -0.910156 1.515625 -1.046875 C 1.660156 -1.191406 1.828125 -1.265625 2.015625 -1.265625 C 2.203125 -1.265625 2.363281 -1.191406 2.5 -1.046875 C 2.644531 -0.910156 2.71875 -0.75 2.71875 -0.5625 C 2.71875 -0.375 2.644531 -0.210938 2.5 -0.078125 C 2.363281 0.0546875 2.203125 0.125 2.015625 0.125 Z M 2.015625 0.125 "/></g></g></g><g fill="#edf0ed" fill-opacity="1"><g transform="translate(40.041751, 156.868171)"><g><path d="M 2.21875 -1.03125 L 5.84375 -1.03125 L 5.84375 0 L 1.1875 0 L 1.1875 -9.734375 L 2.21875 -9.734375 Z M 2.21875 -1.03125 "/></g></g></g><g fill="#edf0ed" fill-opacity="1"><g transform="translate(46.283853, 156.868171)"><g><path d="M 1.8125 -7.703125 C 1.625 -7.703125 1.457031 -7.769531 1.3125 -7.90625 C 1.175781 -8.039062 1.109375 -8.195312 1.109375 -8.375 C 1.109375 -8.582031 1.175781 -8.75 1.3125 -8.875 C 1.457031 -9.007812 1.625 -9.078125 1.8125 -9.078125 C 2 -9.078125 2.160156 -9.007812 2.296875 -8.875 C 2.441406 -8.75 2.515625 -8.582031 2.515625 -8.375 C 2.515625 -8.195312 2.441406 -8.039062 2.296875 -7.90625 C 2.160156 -7.769531 2 -7.703125 1.8125 -7.703125 Z M 1.3125 0 L 1.3125 -6.484375 L 2.3125 -6.484375 L 2.3125 0 Z M 1.3125 0 "/></g></g></g><g fill="#edf0ed" fill-opacity="1"><g transform="translate(50.158852, 156.868171)"><g><path d="M 6.859375 0 L 5.484375 0 L 2.28125 -3.609375 L 2.28125 0 L 1.28125 0 L 1.28125 -11.9375 L 2.28125 -11.9375 L 2.28125 -3.640625 L 5.234375 -6.484375 L 6.578125 -6.484375 L 3.5625 -3.59375 Z M 6.859375 0 "/></g></g></g><g fill="#edf0ed" fill-opacity="1"><g transform="translate(57.114333, 156.868171)"><g><path d="M 7.46875 -3.3125 L 7.453125 -3.09375 L 1.734375 -3.09375 C 1.753906 -2.6875 1.875 -2.3125 2.09375 -1.96875 C 2.3125 -1.625 2.59375 -1.351562 2.9375 -1.15625 C 3.289062 -0.96875 3.675781 -0.875 4.09375 -0.875 C 4.582031 -0.875 5.023438 -1.003906 5.421875 -1.265625 C 5.816406 -1.523438 6.101562 -1.863281 6.28125 -2.28125 L 7.34375 -2.28125 C 7.207031 -1.820312 6.976562 -1.410156 6.65625 -1.046875 C 6.34375 -0.679688 5.96875 -0.394531 5.53125 -0.1875 C 5.09375 0.0195312 4.613281 0.125 4.09375 0.125 C 3.476562 0.125 2.914062 -0.0234375 2.40625 -0.328125 C 1.894531 -0.628906 1.488281 -1.035156 1.1875 -1.546875 C 0.882812 -2.054688 0.734375 -2.625 0.734375 -3.25 C 0.734375 -3.875 0.882812 -4.4375 1.1875 -4.9375 C 1.488281 -5.445312 1.894531 -5.851562 2.40625 -6.15625 C 2.914062 -6.457031 3.476562 -6.609375 4.09375 -6.609375 C 4.71875 -6.609375 5.28125 -6.460938 5.78125 -6.171875 C 6.28125 -5.878906 6.679688 -5.484375 6.984375 -4.984375 C 7.296875 -4.492188 7.457031 -3.9375 7.46875 -3.3125 Z M 4.09375 -5.609375 C 3.582031 -5.609375 3.125 -5.457031 2.71875 -5.15625 C 2.3125 -4.863281 2.023438 -4.476562 1.859375 -4 L 6.328125 -4 C 6.171875 -4.476562 5.890625 -4.863281 5.484375 -5.15625 C 5.078125 -5.457031 4.613281 -5.609375 4.09375 -5.609375 Z M 4.09375 -5.609375 "/></g></g></g><g fill="#edf0ed" fill-opacity="1"><g transform="translate(65.512776, 156.868171)"><g/></g></g><g fill="#edf0ed" fill-opacity="1"><g transform="translate(69.679606, 156.868171)"><g><path d="M 4.171875 -5.515625 L 2.4375 -5.515625 L 2.4375 -1.828125 C 2.4375 -1.523438 2.53125 -1.285156 2.71875 -1.109375 C 2.914062 -0.929688 3.144531 -0.84375 3.40625 -0.84375 L 4.15625 -0.84375 L 4.15625 -0.078125 C 4.0625 -0.0234375 3.929688 0.0195312 3.765625 0.0625 C 3.609375 0.101562 3.453125 0.125 3.296875 0.125 C 2.953125 0.125 2.640625 0.046875 2.359375 -0.109375 C 2.085938 -0.273438 1.863281 -0.5 1.6875 -0.78125 C 1.507812 -1.0625 1.421875 -1.367188 1.421875 -1.703125 L 1.421875 -5.515625 L 0.34375 -5.515625 L 0.34375 -6.484375 L 1.421875 -6.484375 L 1.421875 -9.3125 L 2.4375 -9.3125 L 2.4375 -6.484375 L 4.171875 -6.484375 Z M 4.171875 -5.515625 "/></g></g></g><g fill="#edf0ed" fill-opacity="1"><g transform="translate(74.640884, 156.868171)"><g><path d="M 3.625 -6.609375 C 4.082031 -6.609375 4.5 -6.5 4.875 -6.28125 C 5.25 -6.0625 5.539062 -5.765625 5.75 -5.390625 C 5.96875 -5.023438 6.078125 -4.613281 6.078125 -4.15625 L 6.078125 0 L 5.09375 0 L 5.09375 -4.15625 C 5.09375 -4.5625 4.945312 -4.90625 4.65625 -5.1875 C 4.375 -5.46875 4.03125 -5.609375 3.625 -5.609375 C 3.226562 -5.609375 2.890625 -5.46875 2.609375 -5.1875 C 2.328125 -4.90625 2.1875 -4.5625 2.1875 -4.15625 L 2.1875 0 L 1.1875 0 L 1.1875 -11.9375 L 2.1875 -11.9375 L 2.1875 -6.140625 C 2.394531 -6.296875 2.617188 -6.410156 2.859375 -6.484375 C 3.097656 -6.566406 3.351562 -6.609375 3.625 -6.609375 Z M 3.625 -6.609375 "/></g></g></g><g fill="#edf0ed" fill-opacity="1"><g transform="translate(82.082749, 156.868171)"><g><path d="M 7.46875 -3.3125 L 7.453125 -3.09375 L 1.734375 -3.09375 C 1.753906 -2.6875 1.875 -2.3125 2.09375 -1.96875 C 2.3125 -1.625 2.59375 -1.351562 2.9375 -1.15625 C 3.289062 -0.96875 3.675781 -0.875 4.09375 -0.875 C 4.582031 -0.875 5.023438 -1.003906 5.421875 -1.265625 C 5.816406 -1.523438 6.101562 -1.863281 6.28125 -2.28125 L 7.34375 -2.28125 C 7.207031 -1.820312 6.976562 -1.410156 6.65625 -1.046875 C 6.34375 -0.679688 5.96875 -0.394531 5.53125 -0.1875 C 5.09375 0.0195312 4.613281 0.125 4.09375 0.125 C 3.476562 0.125 2.914062 -0.0234375 2.40625 -0.328125 C 1.894531 -0.628906 1.488281 -1.035156 1.1875 -1.546875 C 0.882812 -2.054688 0.734375 -2.625 0.734375 -3.25 C 0.734375 -3.875 0.882812 -4.4375 1.1875 -4.9375 C 1.488281 -5.445312 1.894531 -5.851562 2.40625 -6.15625 C 2.914062 -6.457031 3.476562 -6.609375 4.09375 -6.609375 C 4.71875 -6.609375 5.28125 -6.460938 5.78125 -6.171875 C 6.28125 -5.878906 6.679688 -5.484375 6.984375 -4.984375 C 7.296875 -4.492188 7.457031 -3.9375 7.46875 -3.3125 Z M 4.09375 -5.609375 C 3.582031 -5.609375 3.125 -5.457031 2.71875 -5.15625 C 2.3125 -4.863281 2.023438 -4.476562 1.859375 -4 L 6.328125 -4 C 6.171875 -4.476562 5.890625 -4.863281 5.484375 -5.15625 C 5.078125 -5.457031 4.613281 -5.609375 4.09375 -5.609375 Z M 4.09375 -5.609375 "/></g></g></g><g fill="#edf0ed" fill-opacity="1"><g transform="translate(90.481191, 156.868171)"><g/></g></g><g fill="#edf0ed" fill-opacity="1"><g transform="translate(94.648021, 156.868171)"><g><path d="M 4.5625 -6.609375 C 5.1875 -6.609375 5.75 -6.457031 6.25 -6.15625 C 6.757812 -5.851562 7.164062 -5.445312 7.46875 -4.9375 C 7.769531 -4.4375 7.921875 -3.875 7.921875 -3.25 C 7.921875 -2.625 7.769531 -2.054688 7.46875 -1.546875 C 7.164062 -1.035156 6.757812 -0.628906 6.25 -0.328125 C 5.75 -0.0234375 5.1875 0.125 4.5625 0.125 C 4.09375 0.125 3.65625 0.0390625 3.25 -0.125 C 2.851562 -0.300781 2.5 -0.539062 2.1875 -0.84375 L 2.1875 3.890625 L 1.1875 3.890625 L 1.1875 -6.484375 L 2.1875 -6.484375 L 2.1875 -5.640625 C 2.5 -5.941406 2.851562 -6.175781 3.25 -6.34375 C 3.65625 -6.519531 4.09375 -6.609375 4.5625 -6.609375 Z M 4.5625 -0.875 C 5 -0.875 5.394531 -0.976562 5.75 -1.1875 C 6.113281 -1.394531 6.398438 -1.679688 6.609375 -2.046875 C 6.816406 -2.410156 6.921875 -2.8125 6.921875 -3.25 C 6.921875 -3.6875 6.816406 -4.082031 6.609375 -4.4375 C 6.398438 -4.800781 6.113281 -5.085938 5.75 -5.296875 C 5.394531 -5.503906 5 -5.609375 4.5625 -5.609375 C 4.125 -5.609375 3.722656 -5.503906 3.359375 -5.296875 C 3.003906 -5.085938 2.71875 -4.800781 2.5 -4.4375 C 2.289062 -4.082031 2.1875 -3.6875 2.1875 -3.25 C 2.1875 -2.8125 2.289062 -2.410156 2.5 -2.046875 C 2.71875 -1.679688 3.003906 -1.394531 3.359375 -1.1875 C 3.722656 -0.976562 4.125 -0.875 4.5625 -0.875 Z M 4.5625 -0.875 "/></g></g></g><g fill="#edf0ed" fill-opacity="1"><g transform="translate(103.565275, 156.868171)"><g><path d="M 7.46875 -3.3125 L 7.453125 -3.09375 L 1.734375 -3.09375 C 1.753906 -2.6875 1.875 -2.3125 2.09375 -1.96875 C 2.3125 -1.625 2.59375 -1.351562 2.9375 -1.15625 C 3.289062 -0.96875 3.675781 -0.875 4.09375 -0.875 C 4.582031 -0.875 5.023438 -1.003906 5.421875 -1.265625 C 5.816406 -1.523438 6.101562 -1.863281 6.28125 -2.28125 L 7.34375 -2.28125 C 7.207031 -1.820312 6.976562 -1.410156 6.65625 -1.046875 C 6.34375 -0.679688 5.96875 -0.394531 5.53125 -0.1875 C 5.09375 0.0195312 4.613281 0.125 4.09375 0.125 C 3.476562 0.125 2.914062 -0.0234375 2.40625 -0.328125 C 1.894531 -0.628906 1.488281 -1.035156 1.1875 -1.546875 C 0.882812 -2.054688 0.734375 -2.625 0.734375 -3.25 C 0.734375 -3.875 0.882812 -4.4375 1.1875 -4.9375 C 1.488281 -5.445312 1.894531 -5.851562 2.40625 -6.15625 C 2.914062 -6.457031 3.476562 -6.609375 4.09375 -6.609375 C 4.71875 -6.609375 5.28125 -6.460938 5.78125 -6.171875 C 6.28125 -5.878906 6.679688 -5.484375 6.984375 -4.984375 C 7.296875 -4.492188 7.457031 -3.9375 7.46875 -3.3125 Z M 4.09375 -5.609375 C 3.582031 -5.609375 3.125 -5.457031 2.71875 -5.15625 C 2.3125 -4.863281 2.023438 -4.476562 1.859375 -4 L 6.328125 -4 C 6.171875 -4.476562 5.890625 -4.863281 5.484375 -5.15625 C 5.078125 -5.457031 4.613281 -5.609375 4.09375 -5.609375 Z M 4.09375 -5.609375 "/></g></g></g><g fill="#edf0ed" fill-opacity="1"><g transform="translate(111.963717, 156.868171)"><g><path d="M 4.34375 -6.609375 C 4.539062 -6.609375 4.707031 -6.59375 4.84375 -6.5625 L 4.84375 -5.546875 C 4.71875 -5.585938 4.550781 -5.609375 4.34375 -5.609375 C 3.957031 -5.609375 3.597656 -5.515625 3.265625 -5.328125 C 2.929688 -5.148438 2.664062 -4.90625 2.46875 -4.59375 C 2.28125 -4.28125 2.1875 -3.921875 2.1875 -3.515625 L 2.1875 0 L 1.1875 0 L 1.1875 -6.484375 L 2.1875 -6.484375 L 2.1875 -5.5625 C 2.4375 -5.882812 2.738281 -6.140625 3.09375 -6.328125 C 3.457031 -6.515625 3.875 -6.609375 4.34375 -6.609375 Z M 4.34375 -6.609375 "/></g></g></g><g fill="#edf0ed" fill-opacity="1"><g transform="translate(117.151975, 156.868171)"><g><path d="M 4.296875 -6.484375 L 4.296875 -5.515625 L 2.5625 -5.515625 L 2.5625 0 L 1.5625 0 L 1.5625 -5.515625 L 0.46875 -5.515625 L 0.46875 -6.484375 L 1.5625 -6.484375 L 1.5625 -10.09375 C 1.5625 -10.445312 1.644531 -10.757812 1.8125 -11.03125 C 1.988281 -11.300781 2.21875 -11.519531 2.5 -11.6875 C 2.78125 -11.851562 3.085938 -11.9375 3.421875 -11.9375 C 3.578125 -11.9375 3.738281 -11.910156 3.90625 -11.859375 C 4.070312 -11.816406 4.195312 -11.769531 4.28125 -11.71875 L 4.28125 -10.9375 L 3.53125 -10.953125 C 3.269531 -10.953125 3.039062 -10.863281 2.84375 -10.6875 C 2.65625 -10.507812 2.5625 -10.269531 2.5625 -9.96875 L 2.5625 -6.484375 Z M 4.296875 -6.484375 "/></g></g></g><g fill="#edf0ed" fill-opacity="1"><g transform="translate(121.886261, 156.868171)"><g><path d="M 7.46875 -3.3125 L 7.453125 -3.09375 L 1.734375 -3.09375 C 1.753906 -2.6875 1.875 -2.3125 2.09375 -1.96875 C 2.3125 -1.625 2.59375 -1.351562 2.9375 -1.15625 C 3.289062 -0.96875 3.675781 -0.875 4.09375 -0.875 C 4.582031 -0.875 5.023438 -1.003906 5.421875 -1.265625 C 5.816406 -1.523438 6.101562 -1.863281 6.28125 -2.28125 L 7.34375 -2.28125 C 7.207031 -1.820312 6.976562 -1.410156 6.65625 -1.046875 C 6.34375 -0.679688 5.96875 -0.394531 5.53125 -0.1875 C 5.09375 0.0195312 4.613281 0.125 4.09375 0.125 C 3.476562 0.125 2.914062 -0.0234375 2.40625 -0.328125 C 1.894531 -0.628906 1.488281 -1.035156 1.1875 -1.546875 C 0.882812 -2.054688 0.734375 -2.625 0.734375 -3.25 C 0.734375 -3.875 0.882812 -4.4375 1.1875 -4.9375 C 1.488281 -5.445312 1.894531 -5.851562 2.40625 -6.15625 C 2.914062 -6.457031 3.476562 -6.609375 4.09375 -6.609375 C 4.71875 -6.609375 5.28125 -6.460938 5.78125 -6.171875 C 6.28125 -5.878906 6.679688 -5.484375 6.984375 -4.984375 C 7.296875 -4.492188 7.457031 -3.9375 7.46875 -3.3125 Z M 4.09375 -5.609375 C 3.582031 -5.609375 3.125 -5.457031 2.71875 -5.15625 C 2.3125 -4.863281 2.023438 -4.476562 1.859375 -4 L 6.328125 -4 C 6.171875 -4.476562 5.890625 -4.863281 5.484375 -5.15625 C 5.078125 -5.457031 4.613281 -5.609375 4.09375 -5.609375 Z M 4.09375 -5.609375 "/></g></g></g><g fill="#edf0ed" fill-opacity="1"><g transform="translate(130.284703, 156.868171)"><g><path d="M 4.09375 0.125 C 3.476562 0.125 2.914062 -0.0234375 2.40625 -0.328125 C 1.894531 -0.628906 1.488281 -1.035156 1.1875 -1.546875 C 0.882812 -2.054688 0.734375 -2.625 0.734375 -3.25 C 0.734375 -3.875 0.882812 -4.4375 1.1875 -4.9375 C 1.488281 -5.445312 1.894531 -5.851562 2.40625 -6.15625 C 2.914062 -6.457031 3.476562 -6.609375 4.09375 -6.609375 C 4.851562 -6.609375 5.523438 -6.390625 6.109375 -5.953125 C 6.691406 -5.515625 7.09375 -4.957031 7.3125 -4.28125 L 6.234375 -4.28125 C 6.046875 -4.675781 5.757812 -4.992188 5.375 -5.234375 C 5 -5.484375 4.570312 -5.609375 4.09375 -5.609375 C 3.664062 -5.609375 3.269531 -5.503906 2.90625 -5.296875 C 2.539062 -5.085938 2.253906 -4.800781 2.046875 -4.4375 C 1.835938 -4.082031 1.734375 -3.6875 1.734375 -3.25 C 1.734375 -2.800781 1.835938 -2.394531 2.046875 -2.03125 C 2.253906 -1.675781 2.539062 -1.394531 2.90625 -1.1875 C 3.269531 -0.976562 3.664062 -0.875 4.09375 -0.875 C 4.570312 -0.875 5 -0.992188 5.375 -1.234375 C 5.757812 -1.484375 6.046875 -1.804688 6.234375 -2.203125 L 7.3125 -2.203125 C 7.09375 -1.523438 6.691406 -0.96875 6.109375 -0.53125 C 5.523438 -0.09375 4.851562 0.125 4.09375 0.125 Z M 4.09375 0.125 "/></g></g></g><g fill="#edf0ed" fill-opacity="1"><g transform="translate(138.277824, 156.868171)"><g><path d="M 4.171875 -5.515625 L 2.4375 -5.515625 L 2.4375 -1.828125 C 2.4375 -1.523438 2.53125 -1.285156 2.71875 -1.109375 C 2.914062 -0.929688 3.144531 -0.84375 3.40625 -0.84375 L 4.15625 -0.84375 L 4.15625 -0.078125 C 4.0625 -0.0234375 3.929688 0.0195312 3.765625 0.0625 C 3.609375 0.101562 3.453125 0.125 3.296875 0.125 C 2.953125 0.125 2.640625 0.046875 2.359375 -0.109375 C 2.085938 -0.273438 1.863281 -0.5 1.6875 -0.78125 C 1.507812 -1.0625 1.421875 -1.367188 1.421875 -1.703125 L 1.421875 -5.515625 L 0.34375 -5.515625 L 0.34375 -6.484375 L 1.421875 -6.484375 L 1.421875 -9.3125 L 2.4375 -9.3125 L 2.4375 -6.484375 L 4.171875 -6.484375 Z M 4.171875 -5.515625 "/></g></g></g><g fill="#edf0ed" fill-opacity="1"><g transform="translate(143.239101, 156.868171)"><g/></g></g><g fill="#edf0ed" fill-opacity="1"><g transform="translate(147.405931, 156.868171)"><g><path d="M 2.78125 0.125 C 2.269531 0.125 1.796875 -0.0078125 1.359375 -0.28125 C 0.929688 -0.5625 0.65625 -0.894531 0.53125 -1.28125 L 1.5 -1.671875 C 1.5625 -1.429688 1.710938 -1.234375 1.953125 -1.078125 C 2.203125 -0.929688 2.476562 -0.859375 2.78125 -0.859375 C 3.070312 -0.859375 3.320312 -0.9375 3.53125 -1.09375 C 3.75 -1.25 3.859375 -1.46875 3.859375 -1.75 C 3.859375 -2.007812 3.753906 -2.207031 3.546875 -2.34375 C 3.347656 -2.488281 3.050781 -2.632812 2.65625 -2.78125 C 2.082031 -3 1.632812 -3.253906 1.3125 -3.546875 C 0.988281 -3.847656 0.828125 -4.253906 0.828125 -4.765625 C 0.828125 -5.160156 0.914062 -5.492188 1.09375 -5.765625 C 1.269531 -6.035156 1.503906 -6.242188 1.796875 -6.390625 C 2.085938 -6.535156 2.390625 -6.609375 2.703125 -6.609375 C 3.117188 -6.609375 3.507812 -6.503906 3.875 -6.296875 C 4.238281 -6.085938 4.484375 -5.835938 4.609375 -5.546875 L 3.734375 -5.09375 C 3.640625 -5.257812 3.503906 -5.382812 3.328125 -5.46875 C 3.160156 -5.5625 2.96875 -5.609375 2.75 -5.609375 C 2.476562 -5.609375 2.257812 -5.539062 2.09375 -5.40625 C 1.925781 -5.28125 1.84375 -5.078125 1.84375 -4.796875 C 1.84375 -4.515625 1.941406 -4.304688 2.140625 -4.171875 C 2.347656 -4.035156 2.648438 -3.882812 3.046875 -3.71875 C 3.328125 -3.601562 3.609375 -3.46875 3.890625 -3.3125 C 4.171875 -3.15625 4.398438 -2.953125 4.578125 -2.703125 C 4.765625 -2.453125 4.859375 -2.132812 4.859375 -1.75 C 4.859375 -1.1875 4.65625 -0.734375 4.25 -0.390625 C 3.84375 -0.046875 3.351562 0.125 2.78125 0.125 Z M 2.78125 0.125 "/></g></g></g><g fill="#edf0ed" fill-opacity="1"><g transform="translate(153.031942, 156.868171)"><g><path d="M 7.46875 -3.3125 L 7.453125 -3.09375 L 1.734375 -3.09375 C 1.753906 -2.6875 1.875 -2.3125 2.09375 -1.96875 C 2.3125 -1.625 2.59375 -1.351562 2.9375 -1.15625 C 3.289062 -0.96875 3.675781 -0.875 4.09375 -0.875 C 4.582031 -0.875 5.023438 -1.003906 5.421875 -1.265625 C 5.816406 -1.523438 6.101562 -1.863281 6.28125 -2.28125 L 7.34375 -2.28125 C 7.207031 -1.820312 6.976562 -1.410156 6.65625 -1.046875 C 6.34375 -0.679688 5.96875 -0.394531 5.53125 -0.1875 C 5.09375 0.0195312 4.613281 0.125 4.09375 0.125 C 3.476562 0.125 2.914062 -0.0234375 2.40625 -0.328125 C 1.894531 -0.628906 1.488281 -1.035156 1.1875 -1.546875 C 0.882812 -2.054688 0.734375 -2.625 0.734375 -3.25 C 0.734375 -3.875 0.882812 -4.4375 1.1875 -4.9375 C 1.488281 -5.445312 1.894531 -5.851562 2.40625 -6.15625 C 2.914062 -6.457031 3.476562 -6.609375 4.09375 -6.609375 C 4.71875 -6.609375 5.28125 -6.460938 5.78125 -6.171875 C 6.28125 -5.878906 6.679688 -5.484375 6.984375 -4.984375 C 7.296875 -4.492188 7.457031 -3.9375 7.46875 -3.3125 Z M 4.09375 -5.609375 C 3.582031 -5.609375 3.125 -5.457031 2.71875 -5.15625 C 2.3125 -4.863281 2.023438 -4.476562 1.859375 -4 L 6.328125 -4 C 6.171875 -4.476562 5.890625 -4.863281 5.484375 -5.15625 C 5.078125 -5.457031 4.613281 -5.609375 4.09375 -5.609375 Z M 4.09375 -5.609375 "/></g></g></g><g fill="#edf0ed" fill-opacity="1"><g transform="translate(161.430385, 156.868171)"><g><path d="M 4.34375 -6.609375 C 4.539062 -6.609375 4.707031 -6.59375 4.84375 -6.5625 L 4.84375 -5.546875 C 4.71875 -5.585938 4.550781 -5.609375 4.34375 -5.609375 C 3.957031 -5.609375 3.597656 -5.515625 3.265625 -5.328125 C 2.929688 -5.148438 2.664062 -4.90625 2.46875 -4.59375 C 2.28125 -4.28125 2.1875 -3.921875 2.1875 -3.515625 L 2.1875 0 L 1.1875 0 L 1.1875 -6.484375 L 2.1875 -6.484375 L 2.1875 -5.5625 C 2.4375 -5.882812 2.738281 -6.140625 3.09375 -6.328125 C 3.457031 -6.515625 3.875 -6.609375 4.34375 -6.609375 Z M 4.34375 -6.609375 "/></g></g></g><g fill="#edf0ed" fill-opacity="1"><g transform="translate(166.618643, 156.868171)"><g><path d="M 5.234375 -6.484375 L 6.328125 -6.484375 L 3.71875 0 L 2.734375 0 L 0.140625 -6.484375 L 1.234375 -6.484375 L 3.25 -1.171875 Z M 5.234375 -6.484375 "/></g></g></g><g fill="#edf0ed" fill-opacity="1"><g transform="translate(173.347141, 156.868171)"><g><path d="M 7.46875 -3.3125 L 7.453125 -3.09375 L 1.734375 -3.09375 C 1.753906 -2.6875 1.875 -2.3125 2.09375 -1.96875 C 2.3125 -1.625 2.59375 -1.351562 2.9375 -1.15625 C 3.289062 -0.96875 3.675781 -0.875 4.09375 -0.875 C 4.582031 -0.875 5.023438 -1.003906 5.421875 -1.265625 C 5.816406 -1.523438 6.101562 -1.863281 6.28125 -2.28125 L 7.34375 -2.28125 C 7.207031 -1.820312 6.976562 -1.410156 6.65625 -1.046875 C 6.34375 -0.679688 5.96875 -0.394531 5.53125 -0.1875 C 5.09375 0.0195312 4.613281 0.125 4.09375 0.125 C 3.476562 0.125 2.914062 -0.0234375 2.40625 -0.328125 C 1.894531 -0.628906 1.488281 -1.035156 1.1875 -1.546875 C 0.882812 -2.054688 0.734375 -2.625 0.734375 -3.25 C 0.734375 -3.875 0.882812 -4.4375 1.1875 -4.9375 C 1.488281 -5.445312 1.894531 -5.851562 2.40625 -6.15625 C 2.914062 -6.457031 3.476562 -6.609375 4.09375 -6.609375 C 4.71875 -6.609375 5.28125 -6.460938 5.78125 -6.171875 C 6.28125 -5.878906 6.679688 -5.484375 6.984375 -4.984375 C 7.296875 -4.492188 7.457031 -3.9375 7.46875 -3.3125 Z M 4.09375 -5.609375 C 3.582031 -5.609375 3.125 -5.457031 2.71875 -5.15625 C 2.3125 -4.863281 2.023438 -4.476562 1.859375 -4 L 6.328125 -4 C 6.171875 -4.476562 5.890625 -4.863281 5.484375 -5.15625 C 5.078125 -5.457031 4.613281 -5.609375 4.09375 -5.609375 Z M 4.09375 -5.609375 "/></g></g></g><g fill="#edf0ed" fill-opacity="1"><g transform="translate(181.745583, 156.868171)"><g><path d="M 0.921875 2.015625 L 0.078125 2.015625 L 1.78125 -1.640625 L 2.921875 -1.640625 Z M 0.921875 2.015625 "/></g></g></g><g fill="#edf0ed" fill-opacity="1"><g transform="translate(40.041751, 174.832703)"><g><path d="M 7.46875 -3.3125 L 7.453125 -3.09375 L 1.734375 -3.09375 C 1.753906 -2.6875 1.875 -2.3125 2.09375 -1.96875 C 2.3125 -1.625 2.59375 -1.351562 2.9375 -1.15625 C 3.289062 -0.96875 3.675781 -0.875 4.09375 -0.875 C 4.582031 -0.875 5.023438 -1.003906 5.421875 -1.265625 C 5.816406 -1.523438 6.101562 -1.863281 6.28125 -2.28125 L 7.34375 -2.28125 C 7.207031 -1.820312 6.976562 -1.410156 6.65625 -1.046875 C 6.34375 -0.679688 5.96875 -0.394531 5.53125 -0.1875 C 5.09375 0.0195312 4.613281 0.125 4.09375 0.125 C 3.476562 0.125 2.914062 -0.0234375 2.40625 -0.328125 C 1.894531 -0.628906 1.488281 -1.035156 1.1875 -1.546875 C 0.882812 -2.054688 0.734375 -2.625 0.734375 -3.25 C 0.734375 -3.875 0.882812 -4.4375 1.1875 -4.9375 C 1.488281 -5.445312 1.894531 -5.851562 2.40625 -6.15625 C 2.914062 -6.457031 3.476562 -6.609375 4.09375 -6.609375 C 4.71875 -6.609375 5.28125 -6.460938 5.78125 -6.171875 C 6.28125 -5.878906 6.679688 -5.484375 6.984375 -4.984375 C 7.296875 -4.492188 7.457031 -3.9375 7.46875 -3.3125 Z M 4.09375 -5.609375 C 3.582031 -5.609375 3.125 -5.457031 2.71875 -5.15625 C 2.3125 -4.863281 2.023438 -4.476562 1.859375 -4 L 6.328125 -4 C 6.171875 -4.476562 5.890625 -4.863281 5.484375 -5.15625 C 5.078125 -5.457031 4.613281 -5.609375 4.09375 -5.609375 Z M 4.09375 -5.609375 "/></g></g></g><g fill="#edf0ed" fill-opacity="1"><g transform="translate(48.440194, 174.832703)"><g><path d="M 5.234375 -6.484375 L 6.328125 -6.484375 L 3.71875 0 L 2.734375 0 L 0.140625 -6.484375 L 1.234375 -6.484375 L 3.25 -1.171875 Z M 5.234375 -6.484375 "/></g></g></g><g fill="#edf0ed" fill-opacity="1"><g transform="translate(55.168694, 174.832703)"><g><path d="M 7.46875 -3.3125 L 7.453125 -3.09375 L 1.734375 -3.09375 C 1.753906 -2.6875 1.875 -2.3125 2.09375 -1.96875 C 2.3125 -1.625 2.59375 -1.351562 2.9375 -1.15625 C 3.289062 -0.96875 3.675781 -0.875 4.09375 -0.875 C 4.582031 -0.875 5.023438 -1.003906 5.421875 -1.265625 C 5.816406 -1.523438 6.101562 -1.863281 6.28125 -2.28125 L 7.34375 -2.28125 C 7.207031 -1.820312 6.976562 -1.410156 6.65625 -1.046875 C 6.34375 -0.679688 5.96875 -0.394531 5.53125 -0.1875 C 5.09375 0.0195312 4.613281 0.125 4.09375 0.125 C 3.476562 0.125 2.914062 -0.0234375 2.40625 -0.328125 C 1.894531 -0.628906 1.488281 -1.035156 1.1875 -1.546875 C 0.882812 -2.054688 0.734375 -2.625 0.734375 -3.25 C 0.734375 -3.875 0.882812 -4.4375 1.1875 -4.9375 C 1.488281 -5.445312 1.894531 -5.851562 2.40625 -6.15625 C 2.914062 -6.457031 3.476562 -6.609375 4.09375 -6.609375 C 4.71875 -6.609375 5.28125 -6.460938 5.78125 -6.171875 C 6.28125 -5.878906 6.679688 -5.484375 6.984375 -4.984375 C 7.296875 -4.492188 7.457031 -3.9375 7.46875 -3.3125 Z M 4.09375 -5.609375 C 3.582031 -5.609375 3.125 -5.457031 2.71875 -5.15625 C 2.3125 -4.863281 2.023438 -4.476562 1.859375 -4 L 6.328125 -4 C 6.171875 -4.476562 5.890625 -4.863281 5.484375 -5.15625 C 5.078125 -5.457031 4.613281 -5.609375 4.09375 -5.609375 Z M 4.09375 -5.609375 "/></g></g></g><g fill="#edf0ed" fill-opacity="1"><g transform="translate(63.567138, 174.832703)"><g><path d="M 4.34375 -6.609375 C 4.539062 -6.609375 4.707031 -6.59375 4.84375 -6.5625 L 4.84375 -5.546875 C 4.71875 -5.585938 4.550781 -5.609375 4.34375 -5.609375 C 3.957031 -5.609375 3.597656 -5.515625 3.265625 -5.328125 C 2.929688 -5.148438 2.664062 -4.90625 2.46875 -4.59375 C 2.28125 -4.28125 2.1875 -3.921875 2.1875 -3.515625 L 2.1875 0 L 1.1875 0 L 1.1875 -6.484375 L 2.1875 -6.484375 L 2.1875 -5.5625 C 2.4375 -5.882812 2.738281 -6.140625 3.09375 -6.328125 C 3.457031 -6.515625 3.875 -6.609375 4.34375 -6.609375 Z M 4.34375 -6.609375 "/></g></g></g><g fill="#edf0ed" fill-opacity="1"><g transform="translate(68.755398, 174.832703)"><g><path d="M 5.34375 -6.484375 L 6.484375 -6.484375 L 3.703125 0.484375 L 2.3125 3.890625 L 1.25 3.890625 L 2.796875 0.046875 L 0.140625 -6.484375 L 1.265625 -6.484375 L 3.34375 -1.171875 Z M 5.34375 -6.484375 "/></g></g></g><g fill="#edf0ed" fill-opacity="1"><g transform="translate(75.646025, 174.832703)"><g/></g></g><g fill="#edf0ed" fill-opacity="1"><g transform="translate(79.812855, 174.832703)"><g><path d="M 4.296875 -6.484375 L 4.296875 -5.515625 L 2.5625 -5.515625 L 2.5625 0 L 1.5625 0 L 1.5625 -5.515625 L 0.46875 -5.515625 L 0.46875 -6.484375 L 1.5625 -6.484375 L 1.5625 -10.09375 C 1.5625 -10.445312 1.644531 -10.757812 1.8125 -11.03125 C 1.988281 -11.300781 2.21875 -11.519531 2.5 -11.6875 C 2.78125 -11.851562 3.085938 -11.9375 3.421875 -11.9375 C 3.578125 -11.9375 3.738281 -11.910156 3.90625 -11.859375 C 4.070312 -11.816406 4.195312 -11.769531 4.28125 -11.71875 L 4.28125 -10.9375 L 3.53125 -10.953125 C 3.269531 -10.953125 3.039062 -10.863281 2.84375 -10.6875 C 2.65625 -10.507812 2.5625 -10.269531 2.5625 -9.96875 L 2.5625 -6.484375 Z M 4.296875 -6.484375 "/></g></g></g><g fill="#edf0ed" fill-opacity="1"><g transform="translate(84.547141, 174.832703)"><g><path d="M 4.34375 -6.609375 C 4.539062 -6.609375 4.707031 -6.59375 4.84375 -6.5625 L 4.84375 -5.546875 C 4.71875 -5.585938 4.550781 -5.609375 4.34375 -5.609375 C 3.957031 -5.609375 3.597656 -5.515625 3.265625 -5.328125 C 2.929688 -5.148438 2.664062 -4.90625 2.46875 -4.59375 C 2.28125 -4.28125 2.1875 -3.921875 2.1875 -3.515625 L 2.1875 0 L 1.1875 0 L 1.1875 -6.484375 L 2.1875 -6.484375 L 2.1875 -5.5625 C 2.4375 -5.882812 2.738281 -6.140625 3.09375 -6.328125 C 3.457031 -6.515625 3.875 -6.609375 4.34375 -6.609375 Z M 4.34375 -6.609375 "/></g></g></g><g fill="#edf0ed" fill-opacity="1"><g transform="translate(89.735399, 174.832703)"><g><path d="M 8.140625 -0.84375 L 8.546875 -0.84375 L 8.546875 0 C 8.398438 0.0820312 8.238281 0.125 8.0625 0.125 C 7.675781 0.125 7.359375 0.0234375 7.109375 -0.171875 C 6.859375 -0.378906 6.675781 -0.648438 6.5625 -0.984375 C 6.257812 -0.648438 5.894531 -0.378906 5.46875 -0.171875 C 5.039062 0.0234375 4.582031 0.125 4.09375 0.125 C 3.476562 0.125 2.914062 -0.0234375 2.40625 -0.328125 C 1.894531 -0.628906 1.488281 -1.035156 1.1875 -1.546875 C 0.882812 -2.054688 0.734375 -2.625 0.734375 -3.25 C 0.734375 -3.875 0.882812 -4.4375 1.1875 -4.9375 C 1.488281 -5.445312 1.894531 -5.851562 2.40625 -6.15625 C 2.914062 -6.457031 3.476562 -6.609375 4.09375 -6.609375 C 4.5625 -6.609375 5 -6.519531 5.40625 -6.34375 C 5.8125 -6.175781 6.164062 -5.941406 6.46875 -5.640625 L 6.46875 -6.484375 L 7.46875 -6.484375 L 7.46875 -1.6875 C 7.46875 -1.382812 7.535156 -1.164062 7.671875 -1.03125 C 7.804688 -0.90625 7.960938 -0.84375 8.140625 -0.84375 Z M 4.09375 -0.875 C 4.53125 -0.875 4.925781 -0.976562 5.28125 -1.1875 C 5.632812 -1.394531 5.921875 -1.679688 6.140625 -2.046875 C 6.359375 -2.410156 6.46875 -2.8125 6.46875 -3.25 C 6.46875 -3.6875 6.359375 -4.082031 6.140625 -4.4375 C 5.921875 -4.800781 5.632812 -5.085938 5.28125 -5.296875 C 4.925781 -5.503906 4.53125 -5.609375 4.09375 -5.609375 C 3.664062 -5.609375 3.269531 -5.503906 2.90625 -5.296875 C 2.539062 -5.085938 2.253906 -4.800781 2.046875 -4.4375 C 1.835938 -4.082031 1.734375 -3.6875 1.734375 -3.25 C 1.734375 -2.8125 1.835938 -2.410156 2.046875 -2.046875 C 2.253906 -1.679688 2.539062 -1.394531 2.90625 -1.1875 C 3.269531 -0.976562 3.664062 -0.875 4.09375 -0.875 Z M 4.09375 -0.875 "/></g></g></g><g fill="#edf0ed" fill-opacity="1"><g transform="translate(98.733723, 174.832703)"><g><path d="M 7.390625 -6.609375 C 7.847656 -6.609375 8.253906 -6.5 8.609375 -6.28125 C 8.972656 -6.0625 9.265625 -5.765625 9.484375 -5.390625 C 9.703125 -5.015625 9.8125 -4.601562 9.8125 -4.15625 L 9.8125 0 L 8.796875 0 L 8.796875 -4.15625 C 8.796875 -4.5625 8.65625 -4.90625 8.375 -5.1875 C 8.101562 -5.46875 7.773438 -5.609375 7.390625 -5.609375 C 7.015625 -5.609375 6.6875 -5.46875 6.40625 -5.1875 C 6.132812 -4.90625 6 -4.5625 6 -4.15625 L 6 0 L 5 0 L 5 -4.15625 C 5 -4.5625 4.859375 -4.90625 4.578125 -5.1875 C 4.304688 -5.46875 3.976562 -5.609375 3.59375 -5.609375 C 3.195312 -5.609375 2.863281 -5.46875 2.59375 -5.1875 C 2.320312 -4.90625 2.1875 -4.5625 2.1875 -4.15625 L 2.1875 0 L 1.1875 0 L 1.1875 -6.484375 L 2.1875 -6.484375 L 2.1875 -5.890625 C 2.382812 -6.097656 2.613281 -6.269531 2.875 -6.40625 C 3.132812 -6.539062 3.410156 -6.609375 3.703125 -6.609375 C 4.046875 -6.609375 4.375 -6.519531 4.6875 -6.34375 C 5.007812 -6.175781 5.28125 -5.941406 5.5 -5.640625 C 5.707031 -5.941406 5.976562 -6.175781 6.3125 -6.34375 C 6.644531 -6.519531 7.003906 -6.609375 7.390625 -6.609375 Z M 7.390625 -6.609375 "/></g></g></g><g fill="#edf0ed" fill-opacity="1"><g transform="translate(109.888389, 174.832703)"><g><path d="M 7.46875 -3.3125 L 7.453125 -3.09375 L 1.734375 -3.09375 C 1.753906 -2.6875 1.875 -2.3125 2.09375 -1.96875 C 2.3125 -1.625 2.59375 -1.351562 2.9375 -1.15625 C 3.289062 -0.96875 3.675781 -0.875 4.09375 -0.875 C 4.582031 -0.875 5.023438 -1.003906 5.421875 -1.265625 C 5.816406 -1.523438 6.101562 -1.863281 6.28125 -2.28125 L 7.34375 -2.28125 C 7.207031 -1.820312 6.976562 -1.410156 6.65625 -1.046875 C 6.34375 -0.679688 5.96875 -0.394531 5.53125 -0.1875 C 5.09375 0.0195312 4.613281 0.125 4.09375 0.125 C 3.476562 0.125 2.914062 -0.0234375 2.40625 -0.328125 C 1.894531 -0.628906 1.488281 -1.035156 1.1875 -1.546875 C 0.882812 -2.054688 0.734375 -2.625 0.734375 -3.25 C 0.734375 -3.875 0.882812 -4.4375 1.1875 -4.9375 C 1.488281 -5.445312 1.894531 -5.851562 2.40625 -6.15625 C 2.914062 -6.457031 3.476562 -6.609375 4.09375 -6.609375 C 4.71875 -6.609375 5.28125 -6.460938 5.78125 -6.171875 C 6.28125 -5.878906 6.679688 -5.484375 6.984375 -4.984375 C 7.296875 -4.492188 7.457031 -3.9375 7.46875 -3.3125 Z M 4.09375 -5.609375 C 3.582031 -5.609375 3.125 -5.457031 2.71875 -5.15625 C 2.3125 -4.863281 2.023438 -4.476562 1.859375 -4 L 6.328125 -4 C 6.171875 -4.476562 5.890625 -4.863281 5.484375 -5.15625 C 5.078125 -5.457031 4.613281 -5.609375 4.09375 -5.609375 Z M 4.09375 -5.609375 "/></g></g></g><g fill="#edf0ed" fill-opacity="1"><g transform="translate(118.286831, 174.832703)"><g/></g></g><g fill="#edf0ed" fill-opacity="1"><g transform="translate(122.453661, 174.832703)"><g><path d="M 7.390625 -6.609375 C 7.847656 -6.609375 8.253906 -6.5 8.609375 -6.28125 C 8.972656 -6.0625 9.265625 -5.765625 9.484375 -5.390625 C 9.703125 -5.015625 9.8125 -4.601562 9.8125 -4.15625 L 9.8125 0 L 8.796875 0 L 8.796875 -4.15625 C 8.796875 -4.5625 8.65625 -4.90625 8.375 -5.1875 C 8.101562 -5.46875 7.773438 -5.609375 7.390625 -5.609375 C 7.015625 -5.609375 6.6875 -5.46875 6.40625 -5.1875 C 6.132812 -4.90625 6 -4.5625 6 -4.15625 L 6 0 L 5 0 L 5 -4.15625 C 5 -4.5625 4.859375 -4.90625 4.578125 -5.1875 C 4.304688 -5.46875 3.976562 -5.609375 3.59375 -5.609375 C 3.195312 -5.609375 2.863281 -5.46875 2.59375 -5.1875 C 2.320312 -4.90625 2.1875 -4.5625 2.1875 -4.15625 L 2.1875 0 L 1.1875 0 L 1.1875 -6.484375 L 2.1875 -6.484375 L 2.1875 -5.890625 C 2.382812 -6.097656 2.613281 -6.269531 2.875 -6.40625 C 3.132812 -6.539062 3.410156 -6.609375 3.703125 -6.609375 C 4.046875 -6.609375 4.375 -6.519531 4.6875 -6.34375 C 5.007812 -6.175781 5.28125 -5.941406 5.5 -5.640625 C 5.707031 -5.941406 5.976562 -6.175781 6.3125 -6.34375 C 6.644531 -6.519531 7.003906 -6.609375 7.390625 -6.609375 Z M 7.390625 -6.609375 "/></g></g></g><g fill="#edf0ed" fill-opacity="1"><g transform="translate(133.608326, 174.832703)"><g><path d="M 8.140625 -0.84375 L 8.546875 -0.84375 L 8.546875 0 C 8.398438 0.0820312 8.238281 0.125 8.0625 0.125 C 7.675781 0.125 7.359375 0.0234375 7.109375 -0.171875 C 6.859375 -0.378906 6.675781 -0.648438 6.5625 -0.984375 C 6.257812 -0.648438 5.894531 -0.378906 5.46875 -0.171875 C 5.039062 0.0234375 4.582031 0.125 4.09375 0.125 C 3.476562 0.125 2.914062 -0.0234375 2.40625 -0.328125 C 1.894531 -0.628906 1.488281 -1.035156 1.1875 -1.546875 C 0.882812 -2.054688 0.734375 -2.625 0.734375 -3.25 C 0.734375 -3.875 0.882812 -4.4375 1.1875 -4.9375 C 1.488281 -5.445312 1.894531 -5.851562 2.40625 -6.15625 C 2.914062 -6.457031 3.476562 -6.609375 4.09375 -6.609375 C 4.5625 -6.609375 5 -6.519531 5.40625 -6.34375 C 5.8125 -6.175781 6.164062 -5.941406 6.46875 -5.640625 L 6.46875 -6.484375 L 7.46875 -6.484375 L 7.46875 -1.6875 C 7.46875 -1.382812 7.535156 -1.164062 7.671875 -1.03125 C 7.804688 -0.90625 7.960938 -0.84375 8.140625 -0.84375 Z M 4.09375 -0.875 C 4.53125 -0.875 4.925781 -0.976562 5.28125 -1.1875 C 5.632812 -1.394531 5.921875 -1.679688 6.140625 -2.046875 C 6.359375 -2.410156 6.46875 -2.8125 6.46875 -3.25 C 6.46875 -3.6875 6.359375 -4.082031 6.140625 -4.4375 C 5.921875 -4.800781 5.632812 -5.085938 5.28125 -5.296875 C 4.925781 -5.503906 4.53125 -5.609375 4.09375 -5.609375 C 3.664062 -5.609375 3.269531 -5.503906 2.90625 -5.296875 C 2.539062 -5.085938 2.253906 -4.800781 2.046875 -4.4375 C 1.835938 -4.082031 1.734375 -3.6875 1.734375 -3.25 C 1.734375 -2.8125 1.835938 -2.410156 2.046875 -2.046875 C 2.253906 -1.679688 2.539062 -1.394531 2.90625 -1.1875 C 3.269531 -0.976562 3.664062 -0.875 4.09375 -0.875 Z M 4.09375 -0.875 "/></g></g></g><g fill="#edf0ed" fill-opacity="1"><g transform="translate(142.606656, 174.832703)"><g><path d="M 4.171875 -5.515625 L 2.4375 -5.515625 L 2.4375 -1.828125 C 2.4375 -1.523438 2.53125 -1.285156 2.71875 -1.109375 C 2.914062 -0.929688 3.144531 -0.84375 3.40625 -0.84375 L 4.15625 -0.84375 L 4.15625 -0.078125 C 4.0625 -0.0234375 3.929688 0.0195312 3.765625 0.0625 C 3.609375 0.101562 3.453125 0.125 3.296875 0.125 C 2.953125 0.125 2.640625 0.046875 2.359375 -0.109375 C 2.085938 -0.273438 1.863281 -0.5 1.6875 -0.78125 C 1.507812 -1.0625 1.421875 -1.367188 1.421875 -1.703125 L 1.421875 -5.515625 L 0.34375 -5.515625 L 0.34375 -6.484375 L 1.421875 -6.484375 L 1.421875 -9.3125 L 2.4375 -9.3125 L 2.4375 -6.484375 L 4.171875 -6.484375 Z M 4.171875 -5.515625 "/></g></g></g><g fill="#edf0ed" fill-opacity="1"><g transform="translate(147.567934, 174.832703)"><g><path d="M 4.171875 -5.515625 L 2.4375 -5.515625 L 2.4375 -1.828125 C 2.4375 -1.523438 2.53125 -1.285156 2.71875 -1.109375 C 2.914062 -0.929688 3.144531 -0.84375 3.40625 -0.84375 L 4.15625 -0.84375 L 4.15625 -0.078125 C 4.0625 -0.0234375 3.929688 0.0195312 3.765625 0.0625 C 3.609375 0.101562 3.453125 0.125 3.296875 0.125 C 2.953125 0.125 2.640625 0.046875 2.359375 -0.109375 C 2.085938 -0.273438 1.863281 -0.5 1.6875 -0.78125 C 1.507812 -1.0625 1.421875 -1.367188 1.421875 -1.703125 L 1.421875 -5.515625 L 0.34375 -5.515625 L 0.34375 -6.484375 L 1.421875 -6.484375 L 1.421875 -9.3125 L 2.4375 -9.3125 L 2.4375 -6.484375 L 4.171875 -6.484375 Z M 4.171875 -5.515625 "/></g></g></g><g fill="#edf0ed" fill-opacity="1"><g transform="translate(152.529212, 174.832703)"><g><path d="M 7.46875 -3.3125 L 7.453125 -3.09375 L 1.734375 -3.09375 C 1.753906 -2.6875 1.875 -2.3125 2.09375 -1.96875 C 2.3125 -1.625 2.59375 -1.351562 2.9375 -1.15625 C 3.289062 -0.96875 3.675781 -0.875 4.09375 -0.875 C 4.582031 -0.875 5.023438 -1.003906 5.421875 -1.265625 C 5.816406 -1.523438 6.101562 -1.863281 6.28125 -2.28125 L 7.34375 -2.28125 C 7.207031 -1.820312 6.976562 -1.410156 6.65625 -1.046875 C 6.34375 -0.679688 5.96875 -0.394531 5.53125 -0.1875 C 5.09375 0.0195312 4.613281 0.125 4.09375 0.125 C 3.476562 0.125 2.914062 -0.0234375 2.40625 -0.328125 C 1.894531 -0.628906 1.488281 -1.035156 1.1875 -1.546875 C 0.882812 -2.054688 0.734375 -2.625 0.734375 -3.25 C 0.734375 -3.875 0.882812 -4.4375 1.1875 -4.9375 C 1.488281 -5.445312 1.894531 -5.851562 2.40625 -6.15625 C 2.914062 -6.457031 3.476562 -6.609375 4.09375 -6.609375 C 4.71875 -6.609375 5.28125 -6.460938 5.78125 -6.171875 C 6.28125 -5.878906 6.679688 -5.484375 6.984375 -4.984375 C 7.296875 -4.492188 7.457031 -3.9375 7.46875 -3.3125 Z M 4.09375 -5.609375 C 3.582031 -5.609375 3.125 -5.457031 2.71875 -5.15625 C 2.3125 -4.863281 2.023438 -4.476562 1.859375 -4 L 6.328125 -4 C 6.171875 -4.476562 5.890625 -4.863281 5.484375 -5.15625 C 5.078125 -5.457031 4.613281 -5.609375 4.09375 -5.609375 Z M 4.09375 -5.609375 "/></g></g></g><g fill="#edf0ed" fill-opacity="1"><g transform="translate(160.927654, 174.832703)"><g><path d="M 4.34375 -6.609375 C 4.539062 -6.609375 4.707031 -6.59375 4.84375 -6.5625 L 4.84375 -5.546875 C 4.71875 -5.585938 4.550781 -5.609375 4.34375 -5.609375 C 3.957031 -5.609375 3.597656 -5.515625 3.265625 -5.328125 C 2.929688 -5.148438 2.664062 -4.90625 2.46875 -4.59375 C 2.28125 -4.28125 2.1875 -3.921875 2.1875 -3.515625 L 2.1875 0 L 1.1875 0 L 1.1875 -6.484375 L 2.1875 -6.484375 L 2.1875 -5.5625 C 2.4375 -5.882812 2.738281 -6.140625 3.09375 -6.328125 C 3.457031 -6.515625 3.875 -6.609375 4.34375 -6.609375 Z M 4.34375 -6.609375 "/></g></g></g><g fill="#edf0ed" fill-opacity="1"><g transform="translate(166.115912, 174.832703)"><g><path d="M 2.78125 0.125 C 2.269531 0.125 1.796875 -0.0078125 1.359375 -0.28125 C 0.929688 -0.5625 0.65625 -0.894531 0.53125 -1.28125 L 1.5 -1.671875 C 1.5625 -1.429688 1.710938 -1.234375 1.953125 -1.078125 C 2.203125 -0.929688 2.476562 -0.859375 2.78125 -0.859375 C 3.070312 -0.859375 3.320312 -0.9375 3.53125 -1.09375 C 3.75 -1.25 3.859375 -1.46875 3.859375 -1.75 C 3.859375 -2.007812 3.753906 -2.207031 3.546875 -2.34375 C 3.347656 -2.488281 3.050781 -2.632812 2.65625 -2.78125 C 2.082031 -3 1.632812 -3.253906 1.3125 -3.546875 C 0.988281 -3.847656 0.828125 -4.253906 0.828125 -4.765625 C 0.828125 -5.160156 0.914062 -5.492188 1.09375 -5.765625 C 1.269531 -6.035156 1.503906 -6.242188 1.796875 -6.390625 C 2.085938 -6.535156 2.390625 -6.609375 2.703125 -6.609375 C 3.117188 -6.609375 3.507812 -6.503906 3.875 -6.296875 C 4.238281 -6.085938 4.484375 -5.835938 4.609375 -5.546875 L 3.734375 -5.09375 C 3.640625 -5.257812 3.503906 -5.382812 3.328125 -5.46875 C 3.160156 -5.5625 2.96875 -5.609375 2.75 -5.609375 C 2.476562 -5.609375 2.257812 -5.539062 2.09375 -5.40625 C 1.925781 -5.28125 1.84375 -5.078125 1.84375 -4.796875 C 1.84375 -4.515625 1.941406 -4.304688 2.140625 -4.171875 C 2.347656 -4.035156 2.648438 -3.882812 3.046875 -3.71875 C 3.328125 -3.601562 3.609375 -3.46875 3.890625 -3.3125 C 4.171875 -3.15625 4.398438 -2.953125 4.578125 -2.703125 C 4.765625 -2.453125 4.859375 -2.132812 4.859375 -1.75 C 4.859375 -1.1875 4.65625 -0.734375 4.25 -0.390625 C 3.84375 -0.046875 3.351562 0.125 2.78125 0.125 Z M 2.78125 0.125 "/></g></g></g><g fill="#edf0ed" fill-opacity="1"><g transform="translate(171.741924, 174.832703)"><g><path d="M 1.546875 0.125 C 1.304688 0.125 1.097656 0.0351562 0.921875 -0.140625 C 0.742188 -0.316406 0.65625 -0.523438 0.65625 -0.765625 C 0.65625 -1.015625 0.742188 -1.222656 0.921875 -1.390625 C 1.097656 -1.566406 1.304688 -1.65625 1.546875 -1.65625 C 1.785156 -1.65625 1.992188 -1.566406 2.171875 -1.390625 C 2.347656 -1.222656 2.4375 -1.015625 2.4375 -0.765625 C 2.4375 -0.523438 2.347656 -0.316406 2.171875 -0.140625 C 1.992188 0.0351562 1.785156 0.125 1.546875 0.125 Z M 1.546875 0.125 "/></g></g></g><g clip-path="url(#5ed66b6144)"><g clip-path="url(#74c3ba1b05)"><path fill="#edf0ed" d="M 80.960938 45.476562 L 143.917969 45.476562 L 143.917969 112.371094 L 80.960938 112.371094 Z M 80.960938 45.476562 " fill-opacity="1" fill-rule="nonzero"/></g></g><g clip-path="url(#1080e96fd1)"><g clip-path="url(#2d314722b5)"><path fill="#edf0ed" d="M 85.710938 55.640625 L 112.242188 55.640625 L 112.242188 105.695312 L 85.710938 105.695312 Z M 85.710938 55.640625 " fill-opacity="1" fill-rule="nonzero"/></g></g><g clip-path="url(#9c8ba62b16)"><g clip-path="url(#14926c0b3f)"><path fill="#edf0ed" d="M 109.734375 55.507812 L 134.152344 55.507812 L 134.152344 107.109375 L 109.734375 107.109375 Z M 109.734375 55.507812 " fill-opacity="1" fill-rule="nonzero"/></g></g></svg>